/* XPM */
static char *result[] = {
/* columns rows colors chars-per-pixel */
"16 17 13 1 ",
"  c #14182E",
". c #52333F",
"X c #2C354D",
"o c #404973",
"O c #8F4D57",
"+ c #BD6A62",
"@ c #4C6885",
"# c #686F99",
"$ c #4FA4B8",
"% c #FFC2A1",
"& c #A3A7C2",
"* c #DFE0E8",
"= c None",
/* pixels */
"================",
"=====      =====",
"==== oooooo ====",
"=== #oooooo# ===",
"=== #oooooo# ===",
"=== o#oooo#o ===",
"=== oo%%%%oo ===",
"== %oXX%%XXo% ==",
"== %X% %% %X% ==",
"=== o% ++ %o ===",
"=== o+%%%%+o  ==",
"== %* O++O.&%% =",
"== %+ O**O. +% =",
"== %% O**OO   ==",
"===  @@$$@  ====",
"=====    ++ ====",
"=========  ====="
};
