/* XPM */
static char *result[] = {
/* columns rows colors chars-per-pixel */
"16 17 11 1 ",
"  c #14182E",
". c #52333F",
"X c #2C354D",
"o c #404973",
"O c #8F4D57",
"+ c #BD6A62",
"@ c #4C6885",
"# c #686F99",
"$ c #4FA4B8",
"% c #FFC2A1",
"& c None",
/* pixels */
"&&&&&&&&&&&&&&&&",
"&&&&&      &&&&&",
"&&&& oooooo &&&&",
"&&& #oooooo# &&&",
"&&& o#oooo#o &&&",
"&&& oooooooo &&&",
"&&& oooooooo &&&",
"&& %oooooooo% &&",
"&& %oooooooo% &&",
"&&& oooooooo &&&",
"&&& oooooooo &&&",
"&& %XooooooX% &&",
"&& % XooooX % &&",
"&&&  ..OO. %% &&",
"&&&&  @$$@@  &&&",
"&&&& ++    &&&&&",
"&&&&&  &&&&&&&&&"
};
