/* XPM */
static char *result[] = {
/* columns rows colors chars-per-pixel */
"23 23 13 1 ",
"  c #14182E",
". c #2C354D",
"X c #404973",
"o c #8F4D57",
"O c #BD6A62",
"+ c #F0B541",
"@ c #4C6885",
"# c #686F99",
"$ c #4FA4B8",
"% c #FFEE83",
"& c #FFC2A1",
"* c #DFE0E8",
"= c None",
/* pixels */
"=====      ============",
"==== XXXXXX ===========",
"=== #XXXXXX# ==========",
"=== #XXXXXX# ==========",
"=== X#XXXX#X ==========",
"=== XX&&&&XX ==========",
"== &X..&&..X& =========",
"== &.& && &.& =========",
"=== X& O  &X ==========",
"=       + O  ==========",
" *******%&&& ==========",
" *******%&  ===========",
"=       + o ===========",
"====  @$    ===========",
"==== OO  OO ===========",
"=====  ==  ============",
"=======================",
"=======================",
"=======================",
"=======================",
"=======================",
"=======================",
"======================="
};
