/* XPM */
static char *result[] = {
/* columns rows colors chars-per-pixel */
"23 23 10 1 ",
"  c #14182E",
". c #2C354D",
"X c #404973",
"o c #BD6A62",
"O c #F0B541",
"+ c #686F99",
"@ c #FFEE83",
"# c #FFC2A1",
"$ c #DFE0E8",
"% c None",
/* pixels */
"%%%%%%%%%%%%%%%%%%%%%%%",
"%%%%%%%%%%%%%%%%%%%%%%%",
"%%%%%      %%%%%%%%%%%%",
"%%%% XXXXXX %%%%%%%%%%%",
"%%% +XXXXXX+ %%%%%%%%%%",
"%%% +XXXXXX+ %%%%%%%%%%",
"%%% X+XXXX+X %%%%%%%%%%",
"%%% XX####XX %%%%%%%%%%",
"%% #X..##..X# %%%%%%%%%",
"%% #.# ## #.# %%%%%%%%%",
"%%% X# oo #X %%%%%%%%%%",
"%%% Xo####oX %%%%%%%%%%",
"%% #o  $  #  %%%%%%%%%%",
"%% ## O o#  %%%%%%%%%%%",
"%%%    @O#  %%%%%%%%%%%",
"%%%%  $$@ o %%%%%%%%%%%",
"%%%% $$$ O %%%%%%%%%%%%",
"%%% $$$    %%%%%%%%%%%%",
"%% $$$ %%%%%%%%%%%%%%%%",
"%% $$ %%%%%%%%%%%%%%%%%",
"%%   %%%%%%%%%%%%%%%%%%",
"%%%%%%%%%%%%%%%%%%%%%%%",
"%%%%%%%%%%%%%%%%%%%%%%%"
};
