/* XPM */
static char *result[] = {
/* columns rows colors chars-per-pixel */
"16 17 12 1 ",
"  c #14182E",
". c #52333F",
"X c #2B2B45",
"o c #404973",
"O c #8F4D57",
"+ c #BD6A62",
"@ c #4C6885",
"# c #686F99",
"$ c #4FA4B8",
"% c #FFC2A1",
"& c #DFE0E8",
"* c None",
/* pixels */
"*****      *****",
"**** oooooo ****",
"*** o##ooooo ***",
"*** ooo##ooo ***",
"*** ooooo#oo ***",
"*** oooooo%% ***",
"*** oooooXX% ***",
"*** oo%%X% % ***",
"*** oo%+o% + ***",
"***   o%o%% ****",
"** %%%&O+ ++ ***",
"** %% .O&& + ***",
"***   OO&&  ****",
"*** O@@$$$++ ***",
"*** OO   ++  ***",
"****  ***  *****",
"****************"
};
