/* XPM */
static char *result[] = {
/* columns rows colors chars-per-pixel */
"16 17 11 1 ",
"  c #14182E",
". c #52333F",
"X c #2B2B45",
"o c #404973",
"O c #8F4D57",
"+ c #BD6A62",
"@ c #4C6885",
"# c #686F99",
"$ c #FFC2A1",
"% c #DFE0E8",
"& c None",
/* pixels */
"&&&&&&&&&&&&&&&&",
"&&&&&&&&&&&&&&&&",
"&&&&&      &&&&&",
"&&&& oooooo &&&&",
"&&& ooooo##o &&&",
"&&& ooo##ooo &&&",
"&&& oo#ooooo &&&",
"&&& $$oooooo &&&",
"&&& $XXooooo &&&",
"&&& $ $X$$oo &&&",
"&&& + $o+$oo &&&",
"&&&& $$o$ooo &&&",
"&&&&&  +O.%o &&&",
"&&&&& %%O $o &&&",
"&&&&& % $$  &&&&",
"&&&&& @ $$ &&&&&",
"&&&& OO ++ &&&&&"
};
