/* XPM */
static char *result[] = {
/* columns rows colors chars-per-pixel */
"16 21 12 1 ",
"  c #14182E",
". c #2B2B45",
"X c #404973",
"o c #8F4D57",
"O c #BD6A62",
"+ c #F0B541",
"@ c #686F99",
"# c #4FA4B8",
"$ c #FFEE83",
"% c #FFC2A1",
"& c #DFE0E8",
"* c None",
/* pixels */
"****************",
"****      ******",
"*** XXXXXX *****",
"** X@@XXXXX ****",
"** XXX@@XXX ****",
"** XXXXX@XX ****",
"** XXXXXX%% ****",
"** XXXXX..% ****",
"** XX%%.% % ****",
"** XX%OX% O ****",
"*  XXX%X%% *****",
"* OX& oo  ******",
"**  %O  & ******",
"** +$$+ # ******",
"*** && O *******",
"*** &&  ********",
"*** && *********",
"*** && *********",
"*** && *********",
"*** && *********",
"****  **********"
};
