/* XPM */
static char *result[] = {
/* columns rows colors chars-per-pixel */
"16 21 11 1 ",
"  c #14182E",
". c #2B2B45",
"X c #404973",
"o c #8F4D57",
"O c #BD6A62",
"+ c #F0B541",
"@ c #686F99",
"# c #FFEE83",
"$ c #FFC2A1",
"% c #DFE0E8",
"& c None",
/* pixels */
"&&&&&&&      &&&",
"&&&&&& XXXXXX &&",
"&&&&& XXXXX@@X &",
"&&&&& XXX@@XXX &",
"&&&&& XX@XXXXX &",
"&&&&& $$XXXXXX &",
"&&&&& $..XXXXX &",
"&&&&& $ $.$$XX &",
"&&&&& O $XO$XX &",
"&&&&&& $$X$XXX &",
"&&&&&&& Oo % X &",
"&&&&&&  % O$ X &",
"&&&&&& +  $$  &&",
"&&&&&&& #+o  &&&",
"&&&&&& %%#  &&&&",
"&&&&& %%% + &&&&",
"&&&& %%% &  &&&&",
"&&&& %% &&&&&&&&",
"&&&&   &&&&&&&&&",
"&&&&&&&&&&&&&&&&",
"&&&&&&&&&&&&&&&&"
};
