/* XPM */
static char *result[] = {
/* columns rows colors chars-per-pixel */
"20 20 10 1 ",
"  c black",
". c #0C0E19",
"X c #1D235D",
"o c #9E2E46",
"O c #33418A",
"+ c #425B9E",
"@ c #4D8AB3",
"# c #65B1B8",
"$ c white",
"% c None",
/* pixels */
"%%%%%%%%%%%%%%%%%%%%",
"%%%%%%%%%%%%%%%%%%%%",
"%%%%%%%%%%%%%%%%%%%%",
"%%%%%%%%%%%%%%%%%%%%",
"%%%%%XXXXXXXX%%%%%%%",
"%%%%X+@@@@@@@X%%%%%%",
"%%%X+@@######+X%%%%%",
"%%%X@@########X%%%%%",
"%%%X@@##$ ## #+X%%%%",
"%%X+@###  ## ##X%%%%",
"%%X+@#OO#####O#X%%%%",
"%%X+@##OOOOOO#@X%%%%",
"%%X++@##ooOO##+X%%%%",
"%%%X++@@@@@@@++X%%%%",
"%%..X+++++++++X.%%%%",
"%....XXXXXXXXX...%%%",
"%................%%%",
"%................%%%",
"%%..............%%%%",
"%%%%%%%%%%%%%%%%%%%%"
};
