/* XPM */
static char *result[] = {
/* columns rows colors chars-per-pixel */
"20 20 7 1 ",
"  c black",
". c #0C0E19",
"X c #1D235D",
"o c #425B9E",
"O c #4D8AB3",
"+ c #65B1B8",
"@ c None",
/* pixels */
"@@@@@@@@@@@@@@@@@@@@",
"@@@@@@@@@@@@@@@@@@@@",
"@@@@@@@@@@@@@@@@@@@@",
"@@@@@@@@@@@@@@@@@@@@",
"@@@@@XXXXXXX@@@@@@@@",
"@@@@XoOOOOOOX@@@@@@@",
"@@@XoOOO++++OX@@@@@@",
"@@@XOOO++++++oX@@@@@",
"@@@XOOO++  ++ X@@@@@",
"@@@XOO+++  ++ OX@@@@",
"@@@XOO++++++++OX@@@@",
"@@@XoOO+++++++OoX@@@",
"@@@@XooO++++++OoX@@@",
"@@@@.XooOOOOOOooX@@@",
"@@@...XXoooooooX.@@@",
"@@@.....XXXXXXX..@@@",
"@@@..............@@@",
"@@@@............@@@@",
"@@@@@@@@@@@@@@@@@@@@",
"@@@@@@@@@@@@@@@@@@@@"
};
