/* XPM */
static char *result[] = {
/* columns rows colors chars-per-pixel */
"20 20 7 1 ",
"  c black",
". c #0C0E19",
"X c #1D235D",
"o c #425B9E",
"O c #4D8AB3",
"+ c #65B1B8",
"@ c None",
/* pixels */
"@@@@@@@@@@@@@@@@@@@@",
"@@@@@@XXXXX@@@@@@@@@",
"@@@@@XoOOOOXX@@@@@@@",
"@@@@XoOO+++XOX@@@@@@",
"@@@@XOO++++X+oX@@@@@",
"@@@@XOO+  +X+XX@@@@@",
"@@@XoO++  +XX oX@@@@",
"@@@XoOO++++X+ OX@@@@",
"@@@@XoOO++X+++OX@@@@",
"@@@@@XXXXX++++OX@@@@",
"@@@@XoooO+++++OX@@@@",
"@@@@XooO++++++OX@@@@",
"@@@@XooO+++++OoX@@@@",
"@@@@@XooOOOOOooX@@@@",
"@@@@@@XoooooooX@@@@@",
"@@@@@@@XXXXXXX@@@@@@",
"@@@@@@.........@@@@@",
"@@@@@...........@@@@",
"@@@@@...........@@@@",
"@@@@@@.........@@@@@"
};
