/* XPM */
static char *result[] = {
/* columns rows colors chars-per-pixel */
"20 20 5 1 ",
"  c #0C0E19",
". c #1D235D",
"X c #4D8AB3",
"o c #65B1B8",
"O c None",
/* pixels */
"OOOOOOOOOOOOOOOOOOOO",
"OOO...OOOOOOOOOOOOOO",
"OO.XoX.OOOOOOOOOOOOO",
"OO.oooX.OOOOOOOOOOOO",
"OO.oooo.OOOOOOOO...O",
"OOO.oo.OOOOOOOO.oX.O",
"OOOO..OOOOOOOOO.X..O",
"OOOOOOOOOOOOOOO...OO",
"OOOOOOOOOOOOOOOOOOOO",
"OOOOOOOOOOOOOOOOOOOO",
"OOOOOOOOOOOOOOOOOOOO",
"OOOOOOOOOOOOOOOOOOOO",
"OOO..OOOOOOOOOOOOOOO",
"OO.Xo.OOOOOOOOOOOOOO",
"OO.oX.OOOOOOOOOOOOOO",
"OO...OOOOOOOOOOOO  O",
"OOO   OOOOOOOOOO   O",
"OOO    OOOOOOOOO  OO",
"OOOO   OOOOOOOOOOOOO",
"OOOOOOOOOOOOOOOOOOOO"
};
