/* XPM */
static char *result[] = {
/* columns rows colors chars-per-pixel */
"20 20 5 1 ",
"  c #0C0E19",
". c #1D235D",
"X c #4D8AB3",
"o c #65B1B8",
"O c None",
/* pixels */
"OOOOOOOOOOOOOOOOOOOO",
"OOOOOOOOOOOOOOOOOOOO",
"OOOOOOOOOOOOOOOOOOOO",
"OOOOOOOOOOOOOOOOOOOO",
"OOOOOOOOOOOOOOOOOOOO",
"OOOOOOOOOOOOOOOOOOOO",
"OOOOOOOOOOOOOOOOOOOO",
"OOOOOOOOOOOOOOOOOOOO",
"OOOOOOOOOOOOOOOOOOOO",
"OOOOOOOOOOOOOOOOOOOO",
"OOOOOOOOOOOOOOOOOOOO",
"OOOOOOOOOOOOOOOOOOOO",
"OOOOOOOOOOOOOOOOOOOO",
"OOO...OOOOOOOOOOOOOO",
"OO.XoX.OOOOOOOO...OO",
"OO..ooX.OOOOOO.oX.OO",
"O.Xo.oo. OOOOO.X  OO",
" .oX.   OOOOOO   OOO",
"O     OOOOOOOOOOOOOO",
"OOOOOOOOOOOOOOOOOOOO"
};
