/* XPM */
static char *result[] = {
/* columns rows colors chars-per-pixel */
"32 32 82 1 ",
"  c #352E27",
". c #362F28",
"X c #362F29",
"o c #372F29",
"O c #373029",
"+ c #38302A",
"@ c #38312A",
"# c #39312A",
"$ c #39322B",
"% c #3A322B",
"& c #3A332B",
"* c #3B332C",
"= c #3B342C",
"- c #3C342C",
"; c #3C342D",
": c #3D352D",
"> c #3D352E",
", c #3E352E",
"< c #3E362E",
"1 c #3E362F",
"2 c #3F362F",
"3 c #3F372F",
"4 c #403730",
"5 c #403830",
"6 c #413830",
"7 c #413931",
"8 c #423931",
"9 c #423A31",
"0 c #423A32",
"q c #433A32",
"w c #433B32",
"e c #443B32",
"r c #443B33",
"t c #453C33",
"y c #453C34",
"u c #463C34",
"i c #463D34",
"p c #473D35",
"a c #473E35",
"s c #483E35",
"d c #483F36",
"f c #493F36",
"g c #494037",
"h c #4A4037",
"j c #4B4138",
"k c #4C4238",
"l c #4C4239",
"z c #4D4239",
"x c #4D4339",
"c c #4D433A",
"v c #4E433A",
"b c #4E443A",
"n c #4F443B",
"m c #4F453B",
"M c #50453B",
"N c #50453C",
"B c #50463C",
"V c #51463C",
"C c #51463D",
"Z c #51473D",
"A c #52473D",
"S c #52483D",
"D c #53483E",
"F c #755338",
"G c #296640",
"H c #615448",
"J c #615549",
"K c #625549",
"L c #63564A",
"P c #64574A",
"I c #64574B",
"U c #65574B",
"Y c #65584B",
"T c #65584C",
"R c #66584C",
"E c #66594C",
"W c #67594D",
"Q c #685A4E",
"! c #685B4E",
"~ c #9D7658",
"^ c #509B66",
"/ c #69B57F",
/* pixels */
":fBbcnn<gBmbhlllBllkmxBb>zbbjgV>",
"k:c5$b:vlnvncxbnjlnlncmMh:hmbc>l",
"Nz>lxohgmjk.*bMbn:=@&bcxjcnj :lj",
"b#VnbB;nmm;nM.xlOmDnp$jmcBm.nm;k",
";MVlb9$5x7%Clo8m%cVDld-Vgx&Mv8:7",
";tAApp*rc7>er1<j;fzxc8%cv3Xifu@t",
"<+iwd=*8gvqq3eZm6;7fd*7kb<50e4$c",
":3346;a;vhdlbcVbx64q2exx:xxnkxx;",
"^^^^^^^^^^^^^^^^^^^^^^^^^^^^^^^^",
"^//^^^^^^^^^^//^^^^^^/^^^^^^/^^^",
"GG//^^^^^^^^///^^^^^//GG^^^//GG^",
"^GG/^^^^^//^//GG^//^/GG^^^^/G//^",
"^^^^^//^GG///GG^^///^^^^^^^^///^",
"^^^^///^^^G/^^^^GG//^^^^^^^^//GG",
"^^^^//GG^^^^^^^^^GG/^^^^^^^^/GG^",
"^^^^/GG^^^^^^^^^^^^^^^^^^^^^^G^^",
"vnlBbxnbflnvvjclblLKUcvcbnfIRIbi",
"jclxchnvNljlkVljglILWMbcVgEbZmYc",
"MxmRIMnlgbIWl>khIR:jBKLlbzIVAlLb",
"lnYBbUxllRmW;IRlHLD>SLTjnl8P!K6s",
"nbYNmLmnfPI%WMbJWIMB,LKmcjz867lk",
"km3IY<Mhcq@vIAcE65QWL#4mmlmmmzbl",
"vjkrrjkmj:xkrLLyBcYRLn>lxbljBbNx",
"xbnlbVjv:lzBj8rlbjqt3jx:llvmjdzx",
"~~~~~~~~~~~~~~~~~~~~~~~~~~~~~~~~",
"~~~~~~~~~~~~~~~~~FF~~~~~~~~~~FF~",
"~~~~~~FF~~~FF~~~~FF~~~~~~~FF~FF~",
"~FFF~~FF~~FFFF~~~~~~FFF~~FFFF~~~",
"FFFFF~~~~~FFFF~~~~~FFFFF~FFFF~~~",
"FFFFF~~~F~~FF~~~~~~FFFFF~~FF~~~~",
"~FFF~~~~~~~~~~FF~~~~FFF~~~~~~~~~",
"~~~~~~~~~~~~~~FF~~~~~~~~~~~~~~~~"
};
