/* XPM */
static char *result[] = {
/* columns rows colors chars-per-pixel */
"48 12 3 1 ",
"  c #A4A8B5",
". c white",
"X c None",
/* pixels */
"XXXXXXXXXXXXXXXXXXXXXXXXXXXXXXXXXXXXXXXXXXXXXXXX",
"XXXXXXXXXXXXXXXXXXXXXXXXXXXXXXXXXXXXXXXXXXXXXXXX",
"XXXXXXXXXXXXXXXXXXXXXXXXXXXXXXXXXXXXXXXXXXXXXXXX",
"XXXX....XXXXXXXXXXXXXXXXXXXXXXXXXXXXXXXXXXXXXXXX",
"XXX......XXXXXXXX..XXXXXXXXXXXXXXXXXXXXXXXXXXXXX",
"XXX......XXXXXXX....XXXXXXXXX..XXXXXXXXXXXXXXXXX",
"XXX......XXXXXXX .. XXXXXXXXX .XXXXXXXXXXXXXXXXX",
"XXX .... XXXXXXXX  XXXXXXXXXXXXXXXXXXXXXXXXXXXXX",
"XXXX    XXXXXXXXXXXXXXXXXXXXXXXXXXXXXXXXXXXXXXXX",
"XXXXXXXXXXXXXXXXXXXXXXXXXXXXXXXXXXXXXXXXXXXXXXXX",
"XXXXXXXXXXXXXXXXXXXXXXXXXXXXXXXXXXXXXXXXXXXXXXXX",
"XXXXXXXXXXXXXXXXXXXXXXXXXXXXXXXXXXXXXXXXXXXXXXXX"
};
