/* XPM */
static char *_2c39b4c61ec459db748de56aeecef5aHLQi1Tbfb01EPJyR[] = {
/* columns rows colors chars-per-pixel */
"32 32 4 1 ",
"  c #6E924D",
". c #87B055",
"X c #4D733E",
"o c white",
/* pixels */
"   . .          XX              ",
"     .                          ",
"                                ",
"                                ",
"                             .  ",
"                            . . ",
"                             .  ",
"                                ",
"                                ",
"                                ",
"       X                        ",
"      X X                       ",
"       X                        ",
"                      .         ",
"                    . .         ",
"                    . .         ",
"                    .           ",
"                                ",
"          .                     ",
"         . .                    ",
"          .                     ",
"                                ",
"                   X            ",
"                  X X           ",
"                   X            ",
"                                ",
"                                ",
"              .                 ",
"              ..                ",
"   .          ..  .             ",
"   .           .X..             ",
"   . .         X..X             "
};
