/* XPM */
static char *a48bec0ed0424e7ad6d0746bcb2ae193T9576t78M3PM6cx0[] = {
/* columns rows colors chars-per-pixel */
"32 32 98 2 ",
"   c #007100",
".  c #006A00",
"X  c #004900",
"o  c #004800",
"O  c #005500",
"+  c #006600",
"@  c #006C00",
"#  c #006000",
"$  c #006500",
"%  c #007200",
"&  c #005200",
"*  c DarkGreen",
"=  c #006800",
"-  c #007000",
";  c #006300",
":  c #005A00",
">  c #006100",
",  c #005D00",
"<  c #006200",
"1  c #004E00",
"2  c #005600",
"3  c #005F00",
"4  c #006700",
"5  c #004F00",
"6  c #007F00",
"7  c #005900",
"8  c #006D00",
"9  c #005800",
"0  c #004400",
"q  c #006900",
"w  c #005E00",
"e  c #005700",
"r  c #007900",
"t  c #005B00",
"y  c #005C00",
"u  c #004B00",
"i  c #006E00",
"p  c #006F00",
"a  c #006B00",
"s  c #007C00",
"d  c #007300",
"f  c #005300",
"g  c #005400",
"h  c #004A00",
"j  c #004C00",
"k  c #004D00",
"l  c #007600",
"z  c #007700",
"x  c #007400",
"c  c #007500",
"v  c #005100",
"b  c #004500",
"n  c #004700",
"m  c #096637",
"M  c #16668B",
"N  c #004300",
"B  c #004200",
"V  c #155986",
"C  c #086235",
"Z  c #036913",
"A  c #084C30",
"S  c #005000",
"D  c #085C35",
"F  c #036A15",
"G  c #008300",
"H  c #0C654E",
"J  c #105D65",
"K  c #007B00",
"L  c #007E00",
"P  c #004000",
"I  c #066A29",
"U  c #086135",
"Y  c #007800",
"T  c #008400",
"R  c #008000",
"E  c #0F715D",
"W  c #056020",
"Q  c #11616A",
"!  c #065C24",
"~  c #007A00",
"^  c #035C13",
"/  c #0C544E",
"(  c #055721",
")  c #155182",
"_  c #004600",
"`  c #07502E",
"'  c #02540B",
"]  c #065429",
"[  c #19589B",
"{  c #065C27",
"}  c #0A613F",
"|  c #16538A",
" . c #004100",
".. c #008100",
"X. c #003B00",
"o. c #008800",
"O. c #003900",
"+. c white",
/* pixels */
"  . X o O + . @ # $ % % & * = # - ; : > , < 1 2 3 4 O 5 , 6 % 7 ",
"8 9 o 0 7 + 4 q , w 8 % O # * : 8 ; e 4 # , 2 , $ r @ & 7 - 3 t ",
"8 y 3 u t i $ 3 p # y # & w t u # 8 < > > < + 4 a s d f t w y # ",
"a 9 @ , t . > a - g h j k O y f > l a y t . i @ p z x $ t u g t ",
"2 ; l 2 e * < ; 4 t k f y f O f O   l w # d x c   # . y < O + 9 ",
"u , + ; v < # 7 1 , # , y & f t * p % . ; ; . c + : : O 3 & > 9 ",
"b t = , o < # y j ; p q , 9 9 # + $ 8   . 3 ; 4 7 & j n , , 9 o ",
"n , $ 4 5 < 9 9 y i p * e 2 t % x = @   - , m M u > j k > # & N ",
"B ; > , , 4 & 7 V C 3 < ; t y p a $ p a 4 < Z A o - t f < $ & S ",
"h q # > - . & g D F & < x ; & O , < ; # 9 7 = b g s 3 f < e # ; ",
"& , , . d i t t < . 9 . G - 5 N t H J < v 2 $ N 2 i e g 4 g a K ",
"> k 9 - - ; 8 $ 3 x 4 % L i & P 7 I U . , O , j < 4 & 9 Y S   T ",
"> 1 5 4 4 & 8 ; t d % z p y j N y d   l + g > : # 3 > # R v i R ",
", 3 n , y o 8 < 2 = = a 7 S g h : l x   4 9 + a , + 8 ; % n = r ",
"3 % 5 ; f X   + g ; 9 g u S t f > K p 3 # # @ Y y = p @ t b a i ",
"3 c O + v u l a : < 1 n u 2 y w .   * v t % i d , = + @ h u p ; ",
"t q S , y 7 - E W y b o e # , $ . w 7 1 y s q . + q < * u 7 q 3 ",
"g 3 & k q i + Q ! e N k ; ; , $ ; 9 f j w r 3 $ i a 3 w e $ # , ",
"O t 7 X - ~ ; 5 9 , b 1 = > w 3 : 9 1 X * % f * . . g y ; $ , < ",
"= 2 * 9 % L > w : q j v 4 9 e 7 9 < : S ; + f . t ^ / y < < > a ",
"r S 8 4 d K 3 i > c f e # & 2 9 e $ = 7 3 * y a v ( ) 1 g , . 4 ",
"p j = i % K e x i c & , < w 3 g v 3 8 < y $ > i f O u _ 1 . p > ",
"# S a . q c 7 - a a v 3 q ; ; e O q   < : w : % > ; n S g - 8 # ",
": & 3 ; t , O   % # X # c = 3 y < . 3 g t < 2 $ . 4 _ : w q $ g ",
"e ; y = v ` ' 8 = g X : Y q t < . q : O , ^ ] t , , o ; y , 2 > ",
"y q t # g [ { c . 1 X e $ 3 : # + + O o 2 } | & * & n O & 5 9 < ",
"5 8 , e , i w % + 9 g & f t f S # 4 w e 2 9 y g > o S & : S w r ",
"1 t : _ e @ 9 % # f 2 y f f j 5 # 3 w $ # y 7 7 c f t # . k >   ",
"f 7 9 1 5 < j . e # , t : $ S j $ : v = % 3 S 5 + : 4 q   , 3 w ",
"9 $ 9 O 2 : O * 1 w , ; + < k 7 - f  .= ..# h > = = , a ; : t h ",
", - 2 e 2 g * t e i t 9 y = 9 7 Y > X.w 6 : 2 + :   + $ v 3 9 e ",
"e ~ 2 : = f a v 2 a : < y : & * o.4 O.# s v y s = 6 w 7 n k 3 9 "
};
