/* XPM */
static char *c68235066bf54615b6576379f0735975i0scr4zpBrsk9qO5[] = {
/* columns rows colors chars-per-pixel */
"32 32 109 2 ",
"   c #D8AF8D",
".  c #D3AE8A",
"X  c #D2AB86",
"o  c #D1A882",
"O  c #D1A881",
"+  c #D2AB86",
"@  c #D3AE8A",
"#  c #D3B491",
"$  c #D2AB86",
"%  c #CEA178",
"&  c #CEA278",
"*  c #D2AB87",
"=  c #CB9D71",
"-  c #CC9E73",
";  c #BA8552",
":  c #C79464",
">  c #AE7641",
",  c #C58F5C",
"<  c #B8814C",
"1  c #C58F5C",
"2  c #C58F5C",
"3  c #C58F5C",
"4  c #C58F5C",
"5  c #C58F5C",
"6  c #C58F5C",
"7  c #C68F59",
"8  c #C58F5C",
"9  c #C58F5C",
"0  c None",
"q  c #C68F5A",
"w  c #D0A881",
"e  c #C9986A",
"r  c #C79464",
"t  c #C69261",
"y  c #C6915F",
"u  c #C69160",
"i  c #C79463",
"p  c #C58E5B",
"a  c #C58F5C",
"s  c #C48E5B",
"d  c #C48D59",
"f  c #C38C58",
"g  c #C58F5B",
"h  c #B8814C",
"j  c #B9824D",
"k  c #BC8551",
"l  c #C38D59",
"z  c #BE854C",
"x  c #BC8248",
"c  c #BC8247",
"v  c #BD8248",
"b  c #BF874F",
"n  c #AE7640",
"m  c #BA834F",
"M  c #C58F5D",
"N  c #C28A55",
"B  c #BB8045",
"V  c #BB8044",
"C  c #C38D58",
"Z  c #B7804C",
"A  c #BB8145",
"S  c #BD8348",
"D  c #BE844B",
"F  c #C38C57",
"G  c #C18A54",
"H  c #C28B55",
"J  c #BD8652",
"K  c #B67F4A",
"L  c #B67E4A",
"P  c #B8804C",
"I  c #C08A56",
"U  c #B37C46",
"Y  c #AD753F",
"T  c #B8814D",
"R  c #B07943",
"E  c #B07843",
"W  c #B27A44",
"Q  c #BF8854",
"!  c #B47C47",
"~  c #AE753F",
"^  c #BA834E",
"/  c #C18B57",
"(  c #C28C58",
")  c #B77F4B",
"_  c #B7804B",
"`  c #BB8550",
"'  c #AE763F",
"]  c #AF7741",
"[  c #B57E49",
"{  c #BD8753",
"}  c #C18952",
"|  c #BC8145",
" . c #C28B56",
".. c #BF864F",
"X. c #C28A54",
"o. c #C5905D",
"O. c #B47D48",
"+. c #B47D47",
"@. c #BA8450",
"#. c #B17A44",
"$. c #C18A57",
"%. c #C6905D",
"&. c #BE8854",
"*. c #C08750",
"=. c #BE8753",
"-. c #BF864E",
";. c #C08851",
":. c #C38D5A",
">. c white",
/* pixels */
"  . X o O w w w w w w w w w w w w w w w w w w w w w w O o + @ # ",
"$ % e r t y y y y y y y u u u u y y y y y y y y y y y t i e & * ",
"= y p a a a a a a a a s d f f d g a a a a a a a a a a a a p u - ",
"; h h h h h j k l a d z x c c v b p a a a a a a a a a a a a a : ",
"> n n n n n n n m M N B V V V V c C a a a a a a a a a a a a a M ",
"n n n n n n n n Z a N A V V V V c C a a a a a a a a a a a a a a ",
"n n n n n n n n h a N A V V V V c C a a a a a a a a a a a a a a ",
"n n n n n n n n h a N B V V V V c l a a a a a a a a a a a a a a ",
"n n n n n n n n h a C S B B B V D s a a a a a a a a a a a a a a ",
"n n n n n n n n h a a F G N H H d a a a a a a a a a a a a a a a ",
"n n n n n n n n h a J K L P I a a a a a a a a a a a a a a a a a ",
"n n n n n n n n h s U Y n Y j a a a a a a a a a a a a a a a a a ",
"n n n n n n n n T s U n n n j a a a a a a a a a a a a a a a a a ",
"R R R R R R E W Q s ! Y ~ n ^ a a a a a a a a a a a a a a a a a ",
"/ / / / / / / ( a a J ) ) h / a a a a a a a a a a a a a a a a a ",
"a a a a a a a a a a a a a a a a a a a a a a a a a a a a a a a a ",
"a a a a a a a a a a a a a a a a a a a a a a a a a a a a a a a a ",
"a a a a a a a a a a a a a a a a a a a a a a a a a a a a a a a a ",
"a a a a a a a a a a a a a a a a a a a a a a a a a a a a a a a a ",
"a a a a a a a a a a a a a a a a a a a / j K L L _ ` s a a a a a ",
"a a a a a a a a a a a a a a a a a a a _ ' n n n n ] Q a a a a a ",
"a a a a a a a a a a a a a a a a a a a [ n n n n n ] J a a a a a ",
"a a a a a a a a a a a a s F H N H C s L n n n n n ] { a a a a a ",
"a a a a a a a a a a a a } | B B B c  .K n n n n n ] { a a a a a ",
"a a a a a a a a a a a a ..V V V V V X.K n n n n n ] { o.( Z O.+.",
"a a a a a a a a a a a a b V V V V V N @.] ] ] ] ] #.$.%.J n n n ",
"a a a a a a a a a a a a b V V V V V N s &.{ { { { I a a J n n n ",
"a a a a a a a a a a a a *.V V V V B  .a a a a a a a a a =.n n n ",
", a a a a a a a a a a a d *.....-.;.s a a a a a a a a a :.m h < ",
"1 a a a a a a a a a a a a a a a a a a a a a a a a a a a a a a 2 ",
"3 4 a a a a a a a a a a a a a a a a a a a a a a a a a a a a 5 6 ",
"7 8 9 0 a a a a a a a a a a a a a a a a a a a a a a a a 0 9 8 q "
};
