/* XPM */
static char *result[] = {
/* columns rows colors chars-per-pixel */
"32 16 9 1 ",
"  c black",
". c #21110D",
"X c #342319",
"o c #503625",
"O c #755338",
"+ c #D99945",
"@ c #E9CE7C",
"# c #677598",
"$ c None",
/* pixels */
"#..............##..............#",
".OOOOOOOOOOOOOO..OOOOOOOOOOOOOO.",
".OOOOOOOOOOOOOO..OOOOOOOOOOOOOO.",
".oXXXXXXXXXXXXo..oXXXXXXXXXXXXo.",
".OXooXooooXooXO..OXo          O.",
".OXoooooooXooXO..OXo          O.",
".OXooooooooooXO..OXo          O.",
".OXooooooooooXO..OXo          O.",
".OXoooooooo@+XO..OXo          O.",
".OXoooooooo++XO..OXo          O.",
".OXooooooooXXXO..OXo          O.",
".OXooXoooooooXO..OXo          O.",
".OXooXoooooooXO..OXo          O.",
".OXooXooooXooXO..OXo          O.",
".              ..              .",
" $$$$$$$$$$$$$$  $$$$$$$$$$$$$$ "
};
