/* XPM */
static char *xpm___resized[] = {
/* columns rows colors chars-per-pixel */
"32 32 162 2 ",
"   c None",
".  c #071029",
"X  c #0D132A",
"o  c #12162C",
"O  c #1D192D",
"+  c #1A1F38",
"@  c #1A1C33",
"#  c #271E31",
"$  c #1E233E",
"%  c #1E2237",
"&  c #272539",
"*  c #342536",
"=  c #3C2837",
"-  c #3B2B3A",
";  c #372A3A",
":  c #422B39",
">  c #4B2F3D",
",  c #43323F",
"<  c #1D354B",
"1  c #2A2A41",
"2  c #252C4B",
"3  c #282F4D",
"4  c #322E43",
"5  c #29364B",
"6  c #3D3643",
"7  c #3F3846",
"8  c #35344F",
"9  c #2D3456",
"0  c #2F3658",
"q  c #2A3D52",
"w  c #393D50",
"e  c #353D62",
"r  c #363F68",
"t  c #463B46",
"y  c #4A3E47",
"u  c #483F48",
"i  c #423343",
"p  c #513846",
"a  c #593641",
"s  c #603742",
"d  c #6B3E46",
"f  c #6A3C46",
"g  c #3D4458",
"h  c #374067",
"j  c #384067",
"k  c #3A436B",
"l  c #3D4772",
"z  c #3F4873",
"x  c #336A7F",
"c  c #4D424B",
"v  c #5D454C",
"b  c #434255",
"n  c #444A5B",
"m  c #484657",
"M  c #504657",
"N  c #5C4A53",
"B  c #544B5E",
"V  c #594C5D",
"C  c #754449",
"Z  c #7B484C",
"A  c #644950",
"S  c #40476E",
"D  c #43496E",
"F  c #434464",
"G  c #594C67",
"H  c #5B556D",
"J  c #57526A",
"K  c #414A74",
"L  c #494F76",
"P  c #464F79",
"I  c #47507A",
"U  c #49527C",
"Y  c #4B5076",
"T  c #5D5372",
"R  c #685863",
"E  c #685462",
"W  c #7E5A68",
"Q  c #635F7B",
"!  c #7D6461",
"~  c #68627C",
"^  c #70687F",
"/  c #796375",
"(  c #81434D",
")  c #814F51",
"_  c #8A4F51",
"`  c #895C5C",
"'  c #955453",
"]  c #8D5B60",
"[  c #826267",
"{  c #9C6264",
"}  c #8D716F",
"|  c #876D70",
" . c #997970",
".. c #A36661",
"X. c #A66B67",
"o. c #B1756E",
"O. c #A87070",
"+. c #A27E73",
"@. c #AB757E",
"#. c #A9857E",
"$. c #A1817C",
"%. c #BE8B7B",
"&. c #D48B7B",
"*. c #E2947D",
"=. c #4C5580",
"-. c #4F5882",
";. c #525A83",
":. c #575F8A",
">. c #585F89",
",. c #57608A",
"<. c #5A628C",
"1. c #4C7386",
"2. c #547989",
"3. c #6D6883",
"4. c #65688E",
"5. c #716980",
"6. c #616892",
"7. c #937B85",
"8. c #4A899C",
"9. c #5B8EA0",
"0. c #6297A6",
"q. c #649EB0",
"w. c #71B2C3",
"e. c #91828E",
"r. c #8B8F9D",
"t. c #8E909E",
"y. c #AA8984",
"u. c #AE8F8D",
"i. c #B18A81",
"p. c #AF908F",
"a. c #BC9085",
"s. c #B59492",
"d. c #8E92A0",
"f. c #9F95A2",
"g. c #93A6B4",
"h. c #B2B4BF",
"j. c #BBB1B5",
"k. c #C08D80",
"l. c #C79985",
"z. c #CA9C86",
"x. c #CB9D88",
"c. c #C7968B",
"v. c #D69F8F",
"b. c #E89882",
"n. c #CFA08C",
"m. c #D7A08F",
"M. c #DBA88F",
"N. c #C3A295",
"B. c #D6A897",
"V. c #D3A798",
"C. c #D6A998",
"Z. c #D9AB99",
"A. c #D4A491",
"S. c #E2AD93",
"D. c #FFBA9A",
"F. c #C6B7B8",
"G. c #E8B4A1",
"H. c #FEC19F",
"J. c #FFC5A2",
"K. c #B3BEC9",
"L. c #D8C6CE",
"P. c #D7C5CC",
/* pixels */
"                    o X X o X X o X X o o o                     ",
"                    $ 1 $ 1 1 $ 1 $ $ 1 $ $                     ",
"                o % 0 e e e e r e e e e e 0 % X                 ",
"                % 2 j K l z z z z z I I U z 3 %                 ",
"            o $ 0 h l K K K K K z =.,.6.6.,.z 0 $ o             ",
"            o $ e K K K K K I U I -.<.6.6.,.U e $ o             ",
"            o $ e K K z k U ,.6.6.<.-.U U U P e $ o             ",
"            o $ e z z K I ;.<.6.6.,.I z z z K e $ o             ",
"            o $ e l l P ,.<.;.U U L K l K K K e $ o             ",
"            o 1 J 5.5.3.6.,.I z z K K K K K K e $ o             ",
"            X t +.Z.Z.s.3.I K z z K K K K K K e & X             ",
"            X c c.J.S.y.H h k K l l z k K K K e 2 X             ",
"            X c z.S.} M 8 9 j K l l l l z K K e $ o             ",
"            X c z.n.V 1 c B F D Q ^ ^ Q Y z K e $ o             ",
"            X c z.x.c 7  .#.B G y.Z.B.u.Q z K e $ o             ",
"            X y %.%.t u x.B.E B a.D.J.B.3.z z e $ o             ",
"            X , ....- y l.B.~ G X.*.D.Z.3.l z e $ o             ",
"            X - Z ) v ! M.B.^ T O.&.v.p.~ z z e 1 o             ",
"                * v +.S.H.V.3.Q c.m.7.Q Y z K e $ X             ",
"                . t +.x.z.#./ / a.i.J e l K K e $ X             ",
"                    t c y A ] { ` A 4 2 r K K e 1 o             ",
"                    g w ; > _ ' f = O + 9 k z e $ o             ",
"                X b t.f.[ d d C a = O X + 3 h e 2 .             ",
"                X n h.P.@.( > > : i m w % + 0 0 % o             ",
"                . n h.P.@.( s : # b t.t.w o + $                 ",
"                . g g.K.e.E p = * R F.j.M X X o                 ",
"                o g 9.w.q.1.5 = C o.G.N.m X                     ",
"                o < x 8.0.2.5 : ..*.D.l.c X                     ",
"                    < g | [ ; c &.H.J.l.c X                     ",
"                    X = Z C & ;  .l.l.$.t X                     ",
"                        = * % & 6 c c t                         ",
"                        X o o o X X X X                         "
};
