/* XPM */
static char *__resized[] = {
/* columns rows colors chars-per-pixel */
"32 32 148 2 ",
"   c None",
".  c #050D27",
"X  c #091027",
"o  c #0D132B",
"O  c #12162B",
"+  c #1B192E",
"@  c #151D3A",
"#  c #1D1C30",
"$  c #261E33",
"%  c #1D223D",
"&  c #212235",
"*  c #322636",
"=  c #392736",
"-  c #362939",
";  c #3C2B3A",
":  c #4B2F3D",
">  c #1B364D",
",  c #202540",
"<  c #262B45",
"1  c #292D48",
"2  c #2B3248",
"3  c #3C3544",
"4  c #3F3A48",
"5  c #2E3454",
"6  c #2D375F",
"7  c #2D395B",
"8  c #363D56",
"9  c #343C61",
"0  c #403541",
"q  c #463C46",
"w  c #493E47",
"e  c #4A3E49",
"r  c #4A3644",
"t  c #5C3441",
"y  c #573444",
"u  c #643947",
"i  c #6E3D48",
"p  c #3B4060",
"a  c #36426B",
"s  c #3B4369",
"d  c #3C4672",
"f  c #3F4872",
"g  c #4D424B",
"h  c #444353",
"j  c #4D4A58",
"k  c #4A4354",
"l  c #534E5C",
"z  c #7B434D",
"x  c #7C4A4D",
"c  c #75474B",
"v  c #694F52",
"b  c #774856",
"n  c #64505D",
"m  c #755B5B",
"M  c #404666",
"N  c #454A6C",
"B  c #524F60",
"V  c #4F5169",
"C  c #545162",
"Z  c #5F5B6E",
"A  c #414A74",
"S  c #454F7B",
"D  c #47507A",
"F  c #4A537C",
"G  c #5B5870",
"H  c #50577D",
"J  c #685862",
"K  c #645C69",
"L  c #7D5E68",
"P  c #625A76",
"I  c #6E667C",
"U  c #71687F",
"Y  c #84454F",
"T  c #8A4852",
"R  c #995856",
"E  c #9F5F5D",
"W  c #9C625E",
"Q  c #9B5C60",
"!  c #935F66",
"~  c #846065",
"^  c #8A7472",
"/  c #9A7A70",
"(  c #A66968",
")  c #AC6E66",
"_  c #B46D65",
"`  c #AE736C",
"'  c #B7716C",
"]  c #A06972",
"[  c #A17E73",
"{  c #A5717A",
"}  c #AD7272",
"|  c #B77777",
" . c #C67A6E",
".. c #CE7E6F",
"X. c #A48175",
"o. c #A2827A",
"O. c #B88778",
"+. c #D28172",
"@. c #D18877",
"#. c #535A82",
"$. c #575F8A",
"%. c #5A628D",
"&. c #5F7185",
"*. c #487B90",
"=. c #6D6884",
"-. c #65688E",
";. c #616682",
":. c #776B85",
">. c #61778F",
",. c #626A94",
"<. c #8D7381",
"1. c #3B8095",
"2. c #6EA2B5",
"3. c #74B9CA",
"4. c #A78880",
"5. c #AA8A84",
"6. c #B59492",
"7. c #9794A0",
"8. c #A8A1B0",
"9. c #C68783",
"0. c #CB9581",
"q. c #CA9C87",
"w. c #CB9D89",
"e. c #C59A87",
"r. c #D99683",
"t. c #E59681",
"y. c #D2A18A",
"u. c #CAA89C",
"i. c #D3A695",
"p. c #DAAA93",
"a. c #D9AB99",
"s. c #E3AC92",
"d. c #EDAC93",
"f. c #F0AE92",
"g. c #F7B195",
"h. c #FDBD9D",
"j. c #C5A6AC",
"k. c #C6B7B8",
"l. c #E9B5A1",
"z. c #FFC6A3",
"x. c #FFC9A5",
"c. c #AEB5C1",
"v. c #CFBFC7",
"b. c #CFBFC8",
"n. c #C4BCC2",
"m. c #D9C7CB",
"M. c #C0D8E3",
"N. c #E6E9F1",
/* pixels */
"                    O O O O O O O O O O O O                     ",
"                    % % , & % , , , % , % %                     ",
"                o % 5 a a 9 9 9 9 9 9 9 9 5 % O                 ",
"                < 5 s A A A A A A A A A A s 5 <                 ",
"            O < N H D f A A f S A A A A f S H V < O             ",
"            O 1 #.,.F f f f f f A A A f f F ,.#.1 O             ",
"            O 1 #.,.#.f f A f f A A f f f F ,.#.1 O             ",
"            O < D %.#.D f f d d f d d A D #.%.D < O             ",
"            O % s #.%.$.D d d d d d d S %.%.#.s , O             ",
"            O % 9 D %.-.=.U I I I I I =.-.%.D 9 % o             ",
"            o & 9 f S =.6.a.i.i.i.i.a.6.=.S A 9 % o             ",
"            e k N d a G 5.p.h.z.x.h.p.5.G a s s k q             ",
"        o w X.5.P a 7 8 j ^ p.x.x.p.^ l 8 7 a I 5.X.w o         ",
"        o g w.a.U s C j 2 l w.x.x.w.l 2 l C s U p.w.g o         ",
"        o g w.p.K C o.o.q g e.x.x.e.g 4 X.o.C K p.w.g o         ",
"        o w X.o.C K p.w.g 3 O.g.g.O.3 g w.p.K C o.X.e o         ",
"            w e 9 I a.w.e - Q ..+.W * w w.a.I 9 k e             ",
"            X @ 6 =.w.0.m v ' ..+.) v m 0.e.P 9 @ X             ",
"            o @ 6 P } @.0.w.s.f.f.s.y.0.@.} P 6 @ X             ",
"            w l P :.! _ r.f.f.f.f.f.d.r._ ! :.;.l w             ",
"        X 0 X.u.n.8.~ z Q  . ..... .' Q z L 8.n.u.[ 0 .         ",
"        0 m 0.l.k.7.n y i Q | 9.9.| Q z t n 7.k.l.0.m q         ",
"    o w [ 0.@.} J e r t i { j.m.m.j.] i t r k J ` @.0.[ w o     ",
"    o g w.h.t.W ; + r i Y / m.N.N.m.{ Y i : # ; W t.h.q.g o     ",
"    o g e.x.h.O.0 $ u T T { m.N.N.b.{ T T u $ q O.h.x.q.g o     ",
"    o w [ w.w./ 3 $ y c b <.8.M.M.c.<.b c y $ 3 / w.w.[ q o     ",
"        q g g 0 % + $ 3 V >.2.3.3.2.>.V 3 $ # % 0 g g q         ",
"        o o o O O # * e P >.*.1.1.*.&.G q * # O O o o o         ",
"                O * c W ( ~ h > > h ~ ( W c * o                 ",
"                O ; b R R x - o o = z R R x ; o                 ",
"                    ; ; ; ;         ; ; : -                     ",
"                    O o o o         o O o o                     "
};
