/* XPM */
static char *__resized[] = {
/* columns rows colors chars-per-pixel */
"32 32 141 2 ",
"   c None",
".  c #050D27",
"X  c #091027",
"o  c #0D132B",
"O  c #12162B",
"+  c #19192E",
"@  c #141D3A",
"#  c #231C31",
"$  c #1F2134",
"%  c #1D223D",
"&  c #2F2434",
"*  c #312637",
"=  c #392736",
"-  c #362939",
";  c #3C2B3A",
":  c #1B364D",
">  c #202540",
",  c #262B45",
"<  c #292D48",
"1  c #2B3248",
"2  c #3C3544",
"3  c #3F3A47",
"4  c #2C3554",
"5  c #2D375E",
"6  c #373D56",
"7  c #343C62",
"8  c #403541",
"9  c #463C46",
"0  c #493E47",
"q  c #4A3E49",
"w  c #563343",
"e  c #683843",
"r  c #364168",
"t  c #3C4368",
"y  c #3C4772",
"u  c #3F4872",
"i  c #4D424B",
"p  c #434354",
"a  c #494251",
"s  c #4D4A58",
"d  c #534D5C",
"f  c #76464B",
"g  c #7F404B",
"h  c #7D4A4D",
"j  c #694E52",
"k  c #734553",
"l  c #7A4C5B",
"z  c #755B5B",
"x  c #404362",
"c  c #474C6E",
"v  c #4F5169",
"b  c #575262",
"n  c #5F5B6E",
"m  c #414A74",
"M  c #444E7A",
"N  c #46507B",
"B  c #4A537C",
"V  c #5C5971",
"C  c #50577D",
"Z  c #5F5B78",
"A  c #675762",
"S  c #675E6A",
"D  c #7C5D68",
"F  c #725662",
"G  c #615572",
"H  c #6E657C",
"J  c #71687F",
"K  c #854650",
"L  c #8B4650",
"P  c #995856",
"I  c #9D5D5D",
"U  c #9C625E",
"Y  c #925E65",
"T  c #846065",
"R  c #8A7472",
"E  c #9A7A70",
"W  c #A66968",
"Q  c #AB6D65",
"!  c #B36C64",
"~  c #AE726C",
"^  c #A36F79",
"/  c #A17E73",
"(  c #AD7272",
")  c #D17F70",
"_  c #A48075",
"`  c #A6847B",
"'  c #B88778",
"]  c #D18877",
"[  c #D38172",
"{  c #535A82",
"}  c #575F8A",
"|  c #5A628D",
" . c #5F7185",
".. c #487B90",
"X. c #6D6884",
"o. c #65688E",
"O. c #616682",
"+. c #736A83",
"@. c #61778F",
"#. c #626A94",
"$. c #8D7381",
"%. c #3B8095",
"&. c #6EA2B5",
"*. c #74B9CA",
"=. c #A68682",
"-. c #AA8B85",
";. c #BD8786",
":. c #B59492",
">. c #9C96A1",
",. c #A8A1B0",
"<. c #CB9581",
"1. c #C59A87",
"2. c #CA9C87",
"3. c #CB9C89",
"4. c #D89582",
"5. c #E59681",
"6. c #D2A089",
"7. c #CAA89C",
"8. c #D2A696",
"9. c #DBAA94",
"0. c #D9AB9A",
"q. c #E6A88E",
"w. c #E1AE94",
"e. c #F0AB90",
"r. c #EFB49B",
"t. c #F7B195",
"y. c #FDBD9D",
"u. c #C6B7B8",
"i. c #E9B5A1",
"p. c #DBC0BE",
"a. c #FFC6A3",
"s. c #FFC9A5",
"d. c #F6C4AC",
"f. c #F9CDB5",
"g. c #AEB5C1",
"h. c #CEBDC6",
"j. c #C4BCC2",
"k. c #EADEDC",
"l. c #C0D8E3",
"z. c #E4E7F0",
"x. c #E5E8F0",
/* pixels */
"                                                                ",
"                                                                ",
"                    O O O O O O O O O O O O                     ",
"                    % % > > % > % > % > % %                     ",
"                O % 4 7 r r 7 r 7 7 7 7 7 4 % O                 ",
"                , 4 t m m u u N m m m m M t 4 ,                 ",
"            O , v C M m u m u u m m m m m M C c < O             ",
"            O < C #.B u u u u u m m m u u B #.{ < O             ",
"            O < { #.B u y u u u u u u u u B #.C < O             ",
"            O < B | { N u y u u u y u u N { | B , O             ",
"            o & t { | | N y y y y y y M | | { t & o             ",
"            o % 7 M | o.X.J H J J X.J X.o.| N 7 > X             ",
"            o % 5 m N X.:.0.8.8.8.8.0.:.X.M u 7 % o             ",
"            0 a x r r V -.9.y.s.a.y.9.-.V r r t a q             ",
"        o q _ ` b 4 4 6 d R 9.s.s.9.R d 6 4 4 b ` _ i o         ",
"        o i 3.9.S 6 d s 1 d 3.s.s.3.d 1 s d 6 S 9.3.i o         ",
"        o i 3.0.H V -._ 3 i 1.s.s.1.i 3 / -.V H 0.3.i o         ",
"        o i _ =.Z X.0.2.0 2 ' t.t.' ; i 2.0.+.Z =._ 0 o         ",
"            0 a t +.0.3.0 - U [ ] U - i 2.0.J c a 0             ",
"            . @ 5 H 3.<.z j Q [ [ Q j z <.3.H 5 @ X             ",
"            X % 5 G ( ] <.6.q.e.q.q.6.3.] ( G 5 @ X             ",
"            9 d | J Y ! 4.r.d.f.f.d.r.] ! Y +.O.d 0             ",
"        . i / 7.j.,.T f I ;.p.k.k.p.;.I f D ,.j.7./ 8 .         ",
"        3 z ] i.u.>.F e g ^ h.x.z.h.^ g e F >.u.i.<.z 9         ",
"    o 9 / <.] ~ A d k K L ^ h.x.z.h.^ L K k d A ~ ] <./ q o     ",
"    o i 2.y.5.U = # w k l $.g.l.l.g.$.l f w # ; U 5.y.2.i o     ",
"    o i 2.s.y.' 9 O # 2 v @.&.*.*.&.@.v 2 # O 9 ' y.s.2.i o     ",
"    o 9 / 3.3.E 2 + & q V O...%.%... .V q & + 2 E 3.2./ 9 o     ",
"        0 i i 2 $ * f I W T p : : p T W I f * $ 2 i i 9         ",
"        o o o o o ; h I P h - o X = h P I h ; o o o o o         ",
"                    = 2 ; =         = ; ; ;                     ",
"                    o O O o         O o O o                     "
};
