/* XPM */
static char *__resized[] = {
/* columns rows colors chars-per-pixel */
"32 32 253 2 ",
"   c None",
".  c #050D27",
"X  c #091027",
"o  c #0C1028",
"O  c #0D1229",
"+  c #0D132A",
"@  c #0C132B",
"#  c #0F142A",
"$  c #0E152C",
"%  c #101428",
"&  c #11152B",
"*  c #12142B",
"=  c #12162B",
"-  c #12162C",
";  c #13162C",
":  c #19192E",
">  c #141D3A",
",  c #151D3A",
"<  c #221B30",
"1  c #231C31",
"2  c #1F2134",
"3  c #1C213B",
"4  c #1A203C",
"5  c #1B213C",
"6  c #1D223D",
"7  c #1E243E",
"8  c #2F2334",
"9  c #312636",
"0  c #3C2837",
"q  c #362939",
"w  c #3A2B39",
"e  c #3E2D3B",
"r  c #1B364D",
"t  c #202540",
"y  c #262A44",
"u  c #262B45",
"i  c #272B46",
"p  c #292D48",
"a  c #2B3248",
"s  c #3D3643",
"d  c #3E3743",
"f  c #393147",
"g  c #3F3A47",
"h  c #293553",
"j  c #2E3452",
"k  c #2B3654",
"l  c #2E3557",
"z  c #2C375E",
"x  c #2D375E",
"c  c #363D56",
"v  c #373E57",
"b  c #333B60",
"n  c #333B61",
"m  c #353D62",
"M  c #363D63",
"N  c #403541",
"B  c #433944",
"V  c #433A45",
"C  c #473A44",
"Z  c #473D46",
"A  c #473D47",
"S  c #473E47",
"D  c #493E46",
"F  c #483E47",
"G  c #493E47",
"H  c #483A4A",
"J  c #4A3F48",
"K  c #563343",
"L  c #683843",
"P  c #3F4455",
"I  c #344068",
"U  c #374269",
"Y  c #3B4369",
"T  c #3C4368",
"R  c #3F4468",
"E  c #3B4571",
"W  c #3B4671",
"Q  c #3E4771",
"!  c #3C4672",
"~  c #3D4772",
"^  c #3F4872",
"/  c #4C414A",
"(  c #4D414A",
")  c #4F424A",
"_  c #4E424B",
"`  c #4B424D",
"'  c #474153",
"]  c #494251",
"[  c #4D4A58",
"{  c #524859",
"}  c #564E5A",
"|  c #524E5D",
" . c #514E5E",
".. c #544E5D",
"X. c #73464B",
"o. c #77454A",
"O. c #7F404B",
"+. c #694E52",
"@. c #754451",
"#. c #714754",
"$. c #7A4C5B",
"%. c #745A5A",
"&. c #755D5C",
"*. c #404362",
"=. c #474C6E",
"-. c #4F5169",
";. c #575262",
":. c #5E5A6D",
">. c #404973",
",. c #404974",
"<. c #414A74",
"1. c #404A75",
"2. c #414A75",
"3. c #414B75",
"4. c #424B76",
"5. c #424B77",
"6. c #464E77",
"7. c #444E7A",
"8. c #47507A",
"9. c #46507C",
"0. c #4C5378",
"q. c #48517C",
"w. c #4B537E",
"e. c #4B547E",
"r. c #5B5871",
"t. c #5C5972",
"y. c #50577D",
"u. c #5F5B78",
"i. c #675762",
"p. c #675E6A",
"a. c #725662",
"s. c #7C5D68",
"d. c #615572",
"f. c #6D6479",
"g. c #6C627C",
"h. c #6E667E",
"j. c #6F677E",
"k. c #71687F",
"l. c #854650",
"z. c #8B4650",
"x. c #965554",
"c. c #985857",
"v. c #9A5C5D",
"b. c #9C5D5C",
"n. c #9A615D",
"m. c #9E635E",
"M. c #825E64",
"N. c #925E65",
"B. c #8A7472",
"V. c #9A7A70",
"C. c #A36767",
"Z. c #AB6D65",
"A. c #B36C64",
"S. c #AE726C",
"D. c #A26F79",
"F. c #A36F79",
"G. c #AD7272",
"H. c #A07D73",
"J. c #A07E73",
"K. c #A27E72",
"L. c #C86E64",
"P. c #C86F65",
"I. c #D17F70",
"U. c #A08076",
"Y. c #A58174",
"T. c #A68175",
"R. c #A6847B",
"E. c #B58477",
"W. c #BC897A",
"Q. c #D38172",
"!. c #D18877",
"~. c #505983",
"^. c #515983",
"/. c #555B80",
"(. c #555C81",
"). c #575F8A",
"_. c #58608B",
"`. c #5B638E",
"'. c #5C638E",
"]. c #5E7084",
"[. c #487B90",
"{. c #616682",
"}. c #6D6884",
"|. c #6E6884",
" X c #65688E",
".X c #706881",
"XX c #736A82",
"oX c #766B85",
"OX c #61778F",
"+X c #626994",
"@X c #626A95",
"#X c #8D7381",
"$X c #3B8095",
"%X c #6EA2B5",
"&X c #74B9CA",
"*X c #A68682",
"=X c #AB8B84",
"-X c #AA8B85",
";X c #BD8786",
":X c #B59492",
">X c #9C96A1",
",X c #A8A1B0",
"<X c #CB9380",
"1X c #CB9581",
"2X c #CC9581",
"3X c #CC9682",
"4X c #C59A87",
"5X c #C99B87",
"6X c #CB9C86",
"7X c #CA9C87",
"8X c #CA9C88",
"9X c #CB9D88",
"0X c #C99E8B",
"qX c #CD9E88",
"wX c #CE9E88",
"eX c #CA988D",
"rX c #D89582",
"tX c #E59681",
"yX c #D2A089",
"uX c #CAA89C",
"iX c #D1A596",
"pX c #D4A797",
"aX c #DCAB93",
"sX c #D9AA95",
"dX c #D8A998",
"fX c #DAAB99",
"gX c #D9AB9B",
"hX c #DAAC9C",
"jX c #E6A88E",
"kX c #E1AE94",
"lX c #F0AB90",
"zX c #EFB49B",
"xX c #F7B195",
"cX c #FABE9E",
"vX c #FFBC9C",
"bX c #FFBD9D",
"nX c #C6B7B8",
"mX c #E9B5A1",
"MX c #DBC0BE",
"NX c #FFC6A3",
"BX c #FFC8A4",
"VX c #FFC9A6",
"CX c #FFCAA7",
"ZX c #F6C4AC",
"AX c #F9CDB5",
"SX c #AEB5C1",
"DX c #C4BCC2",
"FX c #CDBDC6",
"GX c #CEBDC6",
"HX c #EADEDC",
"JX c #C0D8E3",
"KX c #E4E7F0",
"LX c #E5E8F0",
/* pixels */
"                                                                ",
"                                                                ",
"                                                                ",
"                                                                ",
"                    ; ; ; ; ; ; ; ; ; ; ; ;                     ",
"                    6 7 7 7 7 7 7 7 7 7 7 6                     ",
"                % 3 l M M m m m m m m M M l 3 %                 ",
"                y j Y 4.3.2.2.2.2.2.2.3.4.Y j y                 ",
"            & i =.y.6.,.,.<.<.<.<.<.<.,.,.6.y.=.i &             ",
"            & p (.@Xe.^ ^ >.>.>.>.>.>.^ ^ e.@X(.p &             ",
"            & p /.+Xw.Q ^ >.>.>.>.>.>.^ Q w.+X/.p &             ",
"            = u 0.`.~.8.1.~ ~ ~ ~ ~ ~ 1.8.~.`.0.u =             ",
"            - t T ^.'.).7.E W ! ! W E 7.).'.^.T t -             ",
"            # 5 b q._. X|.k.j.h.h.j.k.|. X_.q.b 5 #             ",
"            O 4 n 5.9.}.:XdXpXiXiXpXdX:X}.9.5.n 4 O             ",
"            G ] *.U I r.=XkXcXNXNXcXkX=Xr.I U *.] G             ",
"        + J T.R.;.k h c  .B.aXBXBXaXB. .c h k ;.R.T.J +         ",
"        + ) wXsXp.v | [ a } 0XVXVX0X} a [ | v p.sXwX) +         ",
"        + ) qXfXf.t.-XU.g ` 4XCXCX4X` g U.-Xt.f.fXqX) +         ",
"        + J Y.*Xu..XgX6XG N E.xXxXE.N G 6XgX.Xu.*XY.J +         ",
"            D ' R XXhX7XF q n.Q.Q.n.q F 7XhXXXR ' D             ",
"            X > x g.eX2X&.+.Z.I.I.Z.+.&.2XeXg.x > X             ",
"            X , z d.G.!.3XyXjXlXlXjXyX3X!.G.d.z , X             ",
"            Z ..{.oXN.A.rXzXZXAXAXZXzXrXA.N.oX{...Z             ",
"        . B K.uXDX,Xs.o.v.;XMXHXHXMX;Xv.o.s.,XDXuXK.B .         ",
"        V %.<XmXnX>Xa.L O.D.FXKXKXFXD.O.L a.>XnXmX<X%.V         ",
"    + S J.1X!.S.i.{ #.l.z.F.GXLXLXGXF.z.l.#.{ i.S.!.1XJ.S +     ",
"    + ( 8XbXtXm.w < K @.$.#XSXJXJXSX#X$.@.K < w m.tXbX8X( +     ",
"    + / 5XVXvXW.C * 1 f -.OX%X&X&X%XOX-.f 1 * C W.vXVX5X/ +     ",
"    + A H.7X9XV.d : 8 H :.].[.$X$X[.].:.H 8 : d V.9X7XH.A +     ",
"        A ( _ s 2 9 X.b.C.M.P r r P M.C.b.X.9 2 s _ ( A         ",
"        + + + @ $ e c.P.L.x.0 o o 0 x.L.P.c.e $ @ + + +         "
};
