/* XPM */
static char *__resized[] = {
/* columns rows colors chars-per-pixel */
"32 32 147 2 ",
"   c None",
".  c #090F26",
"X  c #050D27",
"o  c #0D132B",
"O  c #12162B",
"+  c #1B192E",
"@  c #171F3C",
"#  c #251E33",
"$  c #281F33",
"%  c #1F2134",
"&  c #1D223D",
"*  c #2F2434",
"=  c #392736",
"-  c #362939",
";  c #3D2C3A",
":  c #312637",
">  c #4A2E3D",
",  c #1B364D",
"<  c #202540",
"1  c #262B45",
"2  c #292D48",
"3  c #2B3248",
"4  c #3C3544",
"5  c #3F3A48",
"6  c #2E3454",
"7  c #2E385D",
"8  c #373D55",
"9  c #2E3860",
"0  c #343C61",
"q  c #403541",
"w  c #463C46",
"e  c #493E47",
"r  c #4A3E49",
"t  c #4A3644",
"y  c #5C3441",
"u  c #573444",
"i  c #643A48",
"p  c #6E3D48",
"a  c #3B4060",
"s  c #36426B",
"d  c #3B4369",
"f  c #3C4672",
"g  c #3F4872",
"h  c #4D424B",
"j  c #444253",
"k  c #4D4A58",
"l  c #4A4354",
"z  c #534E5B",
"x  c #7B434D",
"c  c #7D4A4D",
"v  c #75474B",
"b  c #694F52",
"n  c #774856",
"m  c #67525E",
"M  c #765D5C",
"N  c #404666",
"B  c #454A6C",
"V  c #524F60",
"C  c #4F5169",
"Z  c #545162",
"A  c #5F5B6E",
"S  c #414A74",
"D  c #454F7B",
"F  c #47507A",
"G  c #4A537C",
"H  c #5B5870",
"J  c #50577D",
"K  c #525A7A",
"L  c #655D69",
"P  c #625A76",
"I  c #696069",
"U  c #6E667C",
"Y  c #71687F",
"T  c #84454F",
"R  c #8A4852",
"E  c #995856",
"W  c #9F5F5D",
"Q  c #9D635E",
"!  c #A0655F",
"~  c #945F66",
"^  c #9B5C60",
"/  c #846065",
"(  c #806069",
")  c #8A7472",
"_  c #9A7A70",
"`  c #A66968",
"'  c #AC6E66",
"]  c #B46D65",
"[  c #B7716C",
"{  c #A06972",
"}  c #A07E73",
"|  c #A5717A",
" . c #AD7272",
".. c #B77777",
"X. c #C67A6E",
"o. c #CE7E6F",
"O. c #A48175",
"+. c #A7867C",
"@. c #BE8B7B",
"#. c #B58477",
"$. c #D28172",
"%. c #D18877",
"&. c #D28979",
"*. c #535A82",
"=. c #575F8A",
"-. c #5A628D",
";. c #5F7185",
":. c #487B90",
">. c #6D6884",
",. c #65688E",
"<. c #786C86",
"1. c #61778F",
"2. c #626A94",
"3. c #8D7381",
"4. c #3B8095",
"5. c #6EA2B5",
"6. c #74B9CA",
"7. c #A78880",
"8. c #AA8A84",
"9. c #B59492",
"0. c #9998A5",
"q. c #ADA4B2",
"w. c #C68783",
"e. c #CD9682",
"r. c #CA9C87",
"t. c #CB9D89",
"y. c #C59A87",
"u. c #D99683",
"i. c #E59681",
"p. c #D2A18A",
"a. c #D3A695",
"s. c #DAAA93",
"d. c #D9AB99",
"f. c #E3AC92",
"g. c #EDAC93",
"h. c #F0AE92",
"j. c #F7B195",
"k. c #FDBD9D",
"l. c #C5A6AC",
"z. c #FFC6A3",
"x. c #FFC9A5",
"c. c #AEB5C1",
"v. c #CFBFC7",
"b. c #CFBFC8",
"n. c #D9C7CB",
"m. c #C0D8E3",
"M. c #E6E9F1",
/* pixels */
"                    O O O O o O O O O O o O                     ",
"                    & & * < < < < < & < * &                     ",
"                O & 6 0 0 s 9 0 0 0 0 0 0 6 & O                 ",
"                1 6 s D g g g D S g D g S d 6 2                 ",
"            O 1 C J D g S S S S g D S S S D K B 2 O             ",
"            O 2 *.2.G g S f S g g f S S f G 2.*.2 O             ",
"            O 2 K 2.G g f S f S S S S f g G 2.K 2 o             ",
"            O 1 G -.*.F S g f f f f f S F *.-.G 2 O             ",
"            O & d *.-.=.F f f f f f f F =.-.*.d < O             ",
"            O & 0 F -.,.>.>.Y Y U U Y >.,.-.F 0 & o             ",
"            o & 0 g D >.9.s.a.a.a.a.d.9.>.D S 0 & o             ",
"            e l B f s H 8.d.k.z.x.k.s.8.H s d d l w             ",
"        o e O.8.P s 7 8 k ) s.x.x.s.) z 8 7 s U 8.O.r o         ",
"        o h t.d.Y d Z k 3 z t.x.x.t.z 3 k Z d Y d.t.h o         ",
"        o h t.s.L Z +.O.5 h y.x.x.y.h 5 O.+.Z L s.t.h o         ",
"        o r O.+.Z L a.r.h 4 #.j.j.#.q w t.a.L z +.O.r o         ",
"            w w 0 U d.r.r ; ^ o.%.Q - r r.d.U 0 r r             ",
"            o & 7 U t.e.M b ' o.o.' b M e.t.U 9 @ o             ",
"            o & 9 P  .&.e.t.g.h.h.f.p.e.%. .P 7 @ o             ",
"            o 1 K <.~ ] u.g.h.h.h.g.g.u.] ^ <.K 1 o             ",
"            . 8 0.q.( x ` [ X.o.o.X.[ ^ x ( q.0.8 .             ",
"            w I 0.0.m > p ^ ..w.w...^ x > L 0.0.L w             ",
"        X w O.+.L j u i p { l.n.n.l.{ x i > l I +.+.w X         ",
"        w M r.%.t + > p T | b.M.M.v.| T p > + t %.e.M w         ",
"    o w O.e.&.! ; $ i T R 3.n.M.M.v.| R R i $ ; Q &.e.O.w o     ",
"    o h r.k.i.! > $ u v R 3.c.m.m.c.3.M v u $ 4 Q i.k.r.h o     ",
"    o h r.x.k.@.e O # 4 C 1.5.6.6.5.;.C 4 # O w @.k.x.y.h o     ",
"    o w _ r.t._ 4 + $ r P ;.:.4.4.:.,.H r $ O 4 _ t.t.O.w o     ",
"        r h h 4 & : v ! ` / j , , j / ` Q v : * 4 h h w         ",
"        o o o o o ; c E E c - o o = x E E c ; o o o o o         ",
"                    - > ; ;         ; ; ; ;                     ",
"                    o o o o         o o O o                     "
};
