/* XPM */
static char *__resized[] = {
/* columns rows colors chars-per-pixel */
"32 34 165 2 ",
"   c None",
".  c #091027",
"X  c #0D132A",
"o  c #12162B",
"O  c #191A2F",
"+  c #151D3A",
"@  c #1D1C30",
"#  c #241D32",
"$  c #2A1E33",
"%  c #1D223D",
"&  c #2D2235",
"*  c #322636",
"=  c #362939",
"-  c #3C2B3A",
";  c #392736",
":  c #46303E",
">  c #1C2740",
",  c #1D374D",
"<  c #202540",
"1  c #242B44",
"2  c #292D48",
"3  c #2B3248",
"4  c #20354B",
"5  c #393043",
"6  c #3F3A48",
"7  c #37354B",
"8  c #2E3454",
"9  c #2D375F",
"0  c #2D395B",
"q  c #383D54",
"w  c #2E3860",
"e  c #343C61",
"r  c #423441",
"t  c #473C46",
"y  c #493E47",
"u  c #493E48",
"i  c #5B3542",
"p  c #543742",
"a  c #6C3B48",
"s  c #6A3A48",
"d  c #3B4060",
"f  c #36426B",
"g  c #3B4369",
"h  c #364964",
"j  c #3C4672",
"k  c #3F4872",
"l  c #3E5571",
"z  c #3C5F79",
"x  c #4D414A",
"c  c #444252",
"v  c #494554",
"b  c #4D4A58",
"n  c #534D5C",
"m  c #5A4958",
"M  c #72444A",
"N  c #7B494D",
"B  c #7C424D",
"V  c #694F52",
"C  c #654658",
"Z  c #774856",
"A  c #755D5C",
"S  c #404666",
"D  c #454A6C",
"F  c #524F60",
"G  c #495168",
"H  c #545162",
"J  c #5F5B6E",
"K  c #414A74",
"L  c #454F7B",
"P  c #47507A",
"I  c #4A537C",
"U  c #465974",
"Y  c #5B5870",
"T  c #50577D",
"R  c #565D79",
"E  c #645C69",
"W  c #715260",
"Q  c #645F7A",
"!  c #625573",
"~  c #6E657C",
"^  c #71687F",
"/  c #84454F",
"(  c #8A4852",
")  c #8F595C",
"_  c #995856",
"`  c #9F5F5D",
"'  c #9C625D",
"]  c #8B5A63",
"[  c #9C5B60",
"{  c #846065",
"}  c #8A7472",
"|  c #9D7F75",
" . c #97696D",
".. c #AB6C65",
"X. c #A46865",
"o. c #AD716B",
"O. c #B7716D",
"+. c #A16972",
"@. c #A17E73",
"#. c #A6727B",
"$. c #AE7373",
"%. c #B87777",
"&. c #B56E65",
"*. c #C77A6F",
"=. c #CE7E6F",
"-. c #A48175",
";. c #A2827A",
":. c #B58477",
">. c #BC897A",
",. c #D28172",
"<. c #D18877",
"1. c #E4957F",
"2. c #3D758B",
"3. c #535A82",
"4. c #575F8A",
"5. c #5A628D",
"6. c #5F7185",
"7. c #487B90",
"8. c #6D6884",
"9. c #65688E",
"0. c #606481",
"q. c #716883",
"w. c #62778E",
"e. c #737188",
"r. c #626A94",
"t. c #8D7381",
"y. c #917482",
"u. c #847E99",
"i. c #3C8095",
"p. c #6EA2B5",
"a. c #74B9CA",
"s. c #A78880",
"d. c #AA8A84",
"f. c #B79692",
"g. c #9B99AB",
"h. c #A397A2",
"j. c #C68783",
"k. c #CC9682",
"l. c #C69A86",
"z. c #CA9C86",
"x. c #CB9C8A",
"c. c #D99786",
"v. c #E89983",
"b. c #D2A18A",
"n. c #D3A695",
"m. c #DAAA93",
"M. c #DAAB99",
"N. c #C8A69B",
"B. c #E3AC92",
"V. c #EDAC93",
"C. c #F0AE92",
"Z. c #F7B195",
"A. c #FDBC9C",
"S. c #C6A6AC",
"D. c #FFC6A3",
"F. c #FFC9A5",
"G. c #FFCDB2",
"H. c #AEB5C1",
"J. c #B0B6C1",
"K. c #CBBDC6",
"L. c #D0C0C8",
"P. c #D9C7CB",
"I. c #ECCDC6",
"U. c #C0D8E3",
"Y. c #E6E9F1",
/* pixels */
"                    o o o o o o o o o o o o                     ",
"                    % % & < > > < % & < > &                     ",
"                o % 8 e e f e f e f e e e 0 % X                 ",
"                1 8 g K k k k k k k k k K g 3 1                 ",
"            o 1 D 3.L K K K k K k L L k k 3.3.K 2 o             ",
"            o 2 3.r.I k k k K k k k k k f 3.r.3.2 o             ",
"            o 2 3.r.L j k K k k k k k k j 3.5.3.2 o             ",
"            o 1 P 5.3.3.k k j j k j k k L 3.5.P 2 o             ",
"            o & f 3.5.5.l j j j j j j P 5.5.3.g > o             ",
"            o % e P 4.r.8.^ 8.~ ~ ~ ^ 8.9.5.P 9 + X             ",
"            X % e k L 8.f.M.n.n.n.n.M.f.8.P K e + X             ",
"            y v S j f Y d.B.A.F.F.A.m.d.Y f j g b u             ",
"        X u -.d.Q f 0 q b } M.F.F.m.} n q 0 f ~ d.-.u X         ",
"        o x x.M.^ g H b 3 n x.F.F.x.n 3 n H S ~ M.x.x X         ",
"        X x x.m.E H ;.;.t x l.F.F.l.x 6 @.;.H E m.x.x o         ",
"        X u -.;.H E m.x.x 5 :.Z.Z.:.5 x x.m.E H -.-.u o         ",
"            u c e ~ M.l.t - ' ,.,.' = x x.M.~ d u u             ",
"            . + w ~ x.k.A V ..,.,.o.V A k.x.~ w + .             ",
"            . + 9 ! $.<.k.b.B.C.Z.B.b.<.<.$.! w + . X X         ",
"            t n 5.q.) X.c.V.C.C.C.V.V.x.&.] Q R F u u u         ",
"        X t @.N.S.g.H x ) O.*.=.,.*.O.[ Z W u.g.f.l.l.@.u X     ",
"        X x k.G.I.g.c & a [ %.j.<.%.[ / i m e.h.B.A.F.x.x X     ",
"        X x l.A.c. .- & a +.S.P.L.S.+.a i p 7 m o.v.A.x.x X     ",
"        X x l.A.v.' - & a #.L.Y.Y.L.| / a : # $ M X.>.@.u X     ",
"        X x l.D.A.>.t $ s #.L.Y.Y.K.#.( / s & O & : u u         ",
"        X u @.l.l.;.c 7 C } J.U.U.J.y.Z Z p & X X X X X         ",
"            u x x v G U R w.p.a.a.p.w.G 7 # O O                 ",
"            X X . % h l U z 2.i.i.7.6.Y u * @ O                 ",
"                    1 1 > 1 4 , 4 c { +.X.M * X                 ",
"                    o o o o o o o ; N _ _ N - X                 ",
"                                    - - - -                     ",
"                                    X o o X                     ",
"                                                                ",
"                                                                "
};
