/* XPM */
static char *__resized[] = {
/* columns rows colors chars-per-pixel */
"32 34 166 2 ",
"   c None",
".  c #070D25",
"X  c #0D132A",
"o  c #12162B",
"O  c #191A2F",
"+  c #1C1D31",
"@  c #241D31",
"#  c #281C31",
"$  c #1D223D",
"%  c #2D2235",
"&  c #312636",
"*  c #362939",
"=  c #3C2B39",
"-  c #39333F",
";  c #4A2F3D",
":  c #40303E",
">  c #1D2741",
",  c #1D374D",
"<  c #202540",
"1  c #242B44",
"2  c #292D48",
"3  c #2B3248",
"4  c #20354B",
"5  c #3B3344",
"6  c #3F3A4A",
"7  c #343248",
"8  c #2E3454",
"9  c #2D395B",
"0  c #353C54",
"q  c #383E5E",
"w  c #343C61",
"e  c #403541",
"r  c #463B45",
"t  c #483E47",
"y  c #493E48",
"u  c #423D4F",
"i  c #5A3D49",
"p  c #563643",
"a  c #453F50",
"s  c #6B3946",
"d  c #663B48",
"f  c #3F4455",
"g  c #36426B",
"h  c #3B4369",
"j  c #364964",
"k  c #3C4672",
"l  c #3F4872",
"z  c #3E5571",
"x  c #3C5F79",
"c  c #4D414A",
"v  c #50434B",
"b  c #494554",
"n  c #4D4A58",
"m  c #4A4658",
"M  c #524E5D",
"N  c #5C4C5A",
"B  c #714449",
"V  c #7A484D",
"C  c #694E52",
"Z  c #654658",
"A  c #774856",
"S  c #755C5B",
"D  c #404666",
"F  c #454A6C",
"G  c #495168",
"H  c #545162",
"J  c #5E5A6D",
"K  c #414A74",
"L  c #454F7B",
"P  c #47507A",
"I  c #4B537B",
"U  c #465974",
"Y  c #5B5870",
"T  c #50577D",
"R  c #545B79",
"E  c #635B68",
"W  c #645F7A",
"Q  c #6F626A",
"!  c #6E667C",
"~  c #71687F",
"^  c #82434E",
"/  c #894751",
"(  c #8F585B",
")  c #965655",
"_  c #9C5E5D",
"`  c #9B625D",
"'  c #825E64",
"]  c #8A7472",
"[  c #9D7F75",
"{  c #986D6B",
"}  c #A46663",
"|  c #AB6D65",
" . c #B36C64",
".. c #AD716B",
"X. c #A36F79",
"o. c #A36F70",
"O. c #A17F73",
"+. c #A5707A",
"@. c #A47071",
"#. c #C86F64",
"$. c #D17F70",
"%. c #A38075",
"&. c #A18179",
"*. c #B88778",
"=. c #CF8675",
"-. c #D38172",
";. c #3D758B",
":. c #535A82",
">. c #575F8A",
",. c #5A628D",
"<. c #5E7084",
"1. c #487B90",
"2. c #6D6884",
"3. c #65688E",
"4. c #62778E",
"5. c #626A94",
"6. c #87778A",
"7. c #917482",
"8. c #3C8195",
"9. c #6EA2B5",
"0. c #74B9CA",
"q. c #8D8296",
"w. c #9E929F",
"e. c #A78880",
"r. c #AA8A84",
"t. c #BE8684",
"y. c #BE8886",
"u. c #B59592",
"i. c #9D8FA4",
"p. c #9495A9",
"a. c #B8A7AC",
"s. c #CB8F86",
"d. c #CB9481",
"f. c #C59A87",
"g. c #CA9B87",
"h. c #CC9E89",
"j. c #CE928B",
"k. c #D69481",
"l. c #D09E93",
"z. c #E79781",
"x. c #D2A089",
"c. c #D4A695",
"v. c #DBAA93",
"b. c #D9AA99",
"n. c #D7A994",
"m. c #E6A88E",
"M. c #E1AE94",
"N. c #F0AB90",
"B. c #EFB49B",
"V. c #F7B195",
"C. c #FDBD9D",
"Z. c #CAACAF",
"A. c #C4B3BD",
"S. c #DBC0BE",
"D. c #FFC6A3",
"F. c #FFC9A5",
"G. c #F6C4AC",
"H. c #F9CDB5",
"J. c #AEB5C1",
"K. c #B0B6C1",
"L. c #CEBDC6",
"P. c #D0BEC7",
"I. c #EADEDC",
"U. c #C0D8E3",
"Y. c #E4E7F0",
"T. c #E5E8F0",
/* pixels */
"                                                                ",
"                                                                ",
"                                                                ",
"                                                                ",
"                                                                ",
"                                                                ",
"                    o o o o X o o o o X o o                     ",
"                    $ > < > > % < > % > > >                     ",
"                o + 9 w w w w w w w w w w 9 @ o                 ",
"                1 8 h K K K L K K K K K K h 8 1                 ",
"            o 1 F T P K K K K K K K K K K P T F 2 o             ",
"            o 2 :.5.I K h K K K K K k K K I 5.:.2 o             ",
"            o 2 :.5.I k K K K k K K K K K I 5.:.2 o             ",
"            o 1 T ,.:.L K k k k k k h K P :.,.I 1 o             ",
"            o < h :.,.>.L k k k k h k L >.,.:.h < o             ",
"            X $ q P >.3.2.~ ! 2.2.~ 2.2.5.>.P 9 $ o             ",
"            X $ w l P 2.u.b.c.c.c.c.b.u.2.L l w + X             ",
"            t b F k g Y r.v.C.D.D.C.v.r.Y g k F b u             ",
"        X y %.r.W g 9 0 H ] v.F.F.v.] M 0 9 g ! r.%.c X         ",
"        X v x.b.~ h H n 3 M h.F.F.h.M 3 n H h ! b.h.v X         ",
"        X c h.b.E H &.&.6 c f.F.F.f.c 6 &.&.H E n.g.c X         ",
"        X y %.&.M E n.h.t e *.V.V.*.5 t h.n.E M &.[ 5 X         ",
"            y f f ! b.g.t * ` -.-.` * t h.n.! q u - + X         ",
"            . > U q.b.=.S C | $.$.| C S d.c.6.I b t c y         ",
"            . 0 p.L.j.=.d.x.m.N.N.m.h.s.$.s.i.p.u.g.g.%.t X     ",
"            r Q a.Z.{ } k.B.G.H.H.G.B.k.| { 6.i.v.C.F.f.c X     ",
"        X y O.d.k...v ; ( y.S.I.I.S.s.( V i 6 N ..=.D.h.c X     ",
"        X c h.C.=.} : # s +.L.Y.T.P.X.^ s e @ % B } =.&.y X     ",
"        X c f.F.C.*.r # s +.P.Y.T.P.X./ / d # O % : t y         ",
"        X t O.g.f.&.b 7 Z 7.K.U.U.K.7.A A p % o o X X X         ",
"            t y c b G U R 4.9.0.0.9.4.G 7 # + o                 ",
"            X X . $ j U z x ;.8.8.1.3.E y & + o                 ",
"                    < 1 1 > , , , b S } _ B & o                 ",
"                    o o o o o o X = ) #.#.) 5 o                 "
};
