/* XPM */
static char *xpm___resized[] = {
/* columns rows colors chars-per-pixel */
"32 34 165 2 ",
"   c None",
".  c #091027",
"X  c #0D132A",
"o  c #12162B",
"O  c #191A2F",
"+  c #151D3A",
"@  c #1D1C30",
"#  c #241D32",
"$  c #2A1E33",
"%  c #1D223D",
"&  c #2D2235",
"*  c #322636",
"=  c #362939",
"-  c #3C2B3A",
";  c #392736",
":  c #46303E",
">  c #1C2740",
",  c #1D374D",
"<  c #202540",
"1  c #242B44",
"2  c #292D48",
"3  c #2B3248",
"4  c #20354B",
"5  c #393043",
"6  c #3F3A48",
"7  c #37354B",
"8  c #2E3454",
"9  c #2D375F",
"0  c #2D395B",
"q  c #383D54",
"w  c #2E3860",
"e  c #343C61",
"r  c #423441",
"t  c #473C46",
"y  c #493E47",
"u  c #493E48",
"i  c #5B3542",
"p  c #543742",
"a  c #6C3B48",
"s  c #6A3A48",
"d  c #3B4060",
"f  c #36426B",
"g  c #3B4369",
"h  c #364964",
"j  c #3C4672",
"k  c #3F4872",
"l  c #3E5571",
"z  c #3C5F79",
"x  c #4D414A",
"c  c #444252",
"v  c #494554",
"b  c #4D4A58",
"n  c #534D5C",
"m  c #5A4958",
"M  c #72444A",
"N  c #7B494D",
"B  c #7C424D",
"V  c #694F52",
"C  c #654658",
"Z  c #774856",
"A  c #755D5C",
"S  c #404666",
"D  c #454A6C",
"F  c #524F60",
"G  c #495168",
"H  c #545162",
"J  c #5F5B6E",
"K  c #414A74",
"L  c #454F7B",
"P  c #47507A",
"I  c #4A537C",
"U  c #465974",
"Y  c #5B5870",
"T  c #50577D",
"R  c #565D79",
"E  c #645C69",
"W  c #715260",
"Q  c #645F7A",
"!  c #625573",
"~  c #6E657C",
"^  c #71687F",
"/  c #84454F",
"(  c #8A4852",
")  c #8F595C",
"_  c #995856",
"`  c #9F5F5D",
"'  c #9C625D",
"]  c #8B5A63",
"[  c #9C5B60",
"{  c #846065",
"}  c #8A7472",
"|  c #9D7F75",
" . c #97696D",
".. c #AB6C65",
"X. c #A46865",
"o. c #AD716B",
"O. c #B7716D",
"+. c #A16972",
"@. c #A17E73",
"#. c #A6727B",
"$. c #AE7373",
"%. c #B87777",
"&. c #B56E65",
"*. c #C77A6F",
"=. c #CE7E6F",
"-. c #A48175",
";. c #A2827A",
":. c #B58477",
">. c #BC897A",
",. c #D28172",
"<. c #D18877",
"1. c #E4957F",
"2. c #3D758B",
"3. c #535A82",
"4. c #575F8A",
"5. c #5A628D",
"6. c #5F7185",
"7. c #487B90",
"8. c #6D6884",
"9. c #65688E",
"0. c #606481",
"q. c #716883",
"w. c #62778E",
"e. c #737188",
"r. c #626A94",
"t. c #8D7381",
"y. c #917482",
"u. c #847E99",
"i. c #3C8095",
"p. c #6EA2B5",
"a. c #74B9CA",
"s. c #A78880",
"d. c #AA8A84",
"f. c #B79692",
"g. c #9B99AB",
"h. c #A397A2",
"j. c #C68783",
"k. c #CC9682",
"l. c #C69A86",
"z. c #CA9C86",
"x. c #CB9C8A",
"c. c #D99786",
"v. c #E89983",
"b. c #D2A18A",
"n. c #D3A695",
"m. c #DAAA93",
"M. c #DAAB99",
"N. c #C8A69B",
"B. c #E3AC92",
"V. c #EDAC93",
"C. c #F0AE92",
"Z. c #F7B195",
"A. c #FDBC9C",
"S. c #C6A6AC",
"D. c #FFC6A3",
"F. c #FFC9A5",
"G. c #FFCDB2",
"H. c #AEB5C1",
"J. c #B0B6C1",
"K. c #CBBDC6",
"L. c #D0C0C8",
"P. c #D9C7CB",
"I. c #ECCDC6",
"U. c #C0D8E3",
"Y. c #E6E9F1",
/* pixels */
"                    o o o o o o o o o o o o                     ",
"                    % % & < > > < % % < > &                     ",
"                o % 8 e e f e f e e e e e 8 + o                 ",
"                1 8 g K k k k k L K K K K g 8 2                 ",
"            o 1 D I L K k L k l K K K k K L T D 2 o             ",
"            o 2 3.r.I K k k k k K K K k j I r.3.2 o             ",
"            o 2 3.r.3.j k k k k K K K K K I r.R 2 o             ",
"            o 1 L 4.3.3.k j j j j j g K L 3.5.I 2 o             ",
"            o & f 3.5.5.P j j j j j j L 4.5.3.g > o             ",
"            o % w I 4.r.8.8.~ ~ ~ ~ ^ 8.9.5.L e + X             ",
"            o + e k L 8.f.M.n.n.n.n.M.f.8.L K e + X             ",
"            y v D j f Y d.B.A.F.F.A.m.d.Y f f D b u             ",
"        X u -.d.Q f 0 q b } m.F.F.m.} n q 0 f Q d.-.y X         ",
"        o x b.M.~ g H b 3 n x.F.F.x.n 3 b H D ~ M.x.x X         ",
"        X x x.m.E H ;.;.t x l.F.F.l.x 6 @.s.H E m.x.x o         ",
"        X u -.;.F E m.x.x 5 :.Z.Z.:.6 u z.m.E H -.-.u o         ",
"            u u e ~ M.z.x = ' ,.,.' = u z.M.~ d c y             ",
"            . + 0 ~ x.k.A V ..,.,...V A k.x.~ 0 + .             ",
"        X X X + e ! $.<.k.b.B.C.C.B.b.k.<.$.! 0 + .             ",
"        u u u n R Q ] &.c.V.V.V.C.V.V.c.X.] 8.5.n y             ",
"    X u @.z.z.f.g.u.W B [ O.*.=.=.*.O.) p m g.K.N.@.t X         ",
"    X x z.F.A.m.h.e.m i B [ %.j.j.%.[ a $ c h.I.G.l.x X         ",
"    X x z.A.v.o.C 7 r i N +.S.P.P.S.+.a $ 5  .c.A.l.x X         ",
"    X u @.>.X.M & # : a / #.L.Y.Y.K.#.a $ - ' v.A.l.x X         ",
"        u t : & O & s ( ( #.L.Y.Y.K.$.s # t >.A.D.l.x X         ",
"        X X X X o & p Z Z t.H.U.U.J.} C 5 v -.x.z.@.y X         ",
"                o O $ 7 G w.p.a.a.p.w.R U l v x u t             ",
"                o O * u ! w.7.2.2.7.z l l h % X . o             ",
"                o * M ' +.] c , , , , < 1 >                     ",
"                X - N ` _ N = X o o o o o o                     ",
"                    - - - -                                     ",
"                    o o o X                                     ",
"                                                                ",
"                                                                "
};
