/* XPM */
static char *xpm___resized[] = {
/* columns rows colors chars-per-pixel */
"32 34 169 2 ",
"   c None",
".  c #090F27",
"X  c #0D132A",
"o  c #12162B",
"O  c #191A2F",
"+  c #14182E",
"@  c #1C1D31",
"#  c #241D31",
"$  c #281C31",
"%  c #1D223D",
"&  c #1F2033",
"*  c #2D2235",
"=  c #312636",
"-  c #362939",
";  c #3C2B39",
":  c #39333F",
">  c #4A2F3D",
",  c #40303E",
"<  c #1D2741",
"1  c #1D374D",
"2  c #202540",
"3  c #242B44",
"4  c #292D48",
"5  c #2B3248",
"6  c #20354B",
"7  c #3C3443",
"8  c #3F3A4A",
"9  c #343248",
"0  c #2E3454",
"q  c #2D395B",
"w  c #353C55",
"e  c #383E5E",
"r  c #343C61",
"t  c #403541",
"y  c #463C46",
"u  c #493E47",
"i  c #493E48",
"p  c #423D4F",
"a  c #5A3D49",
"s  c #563643",
"d  c #453F50",
"f  c #6B3946",
"g  c #663B48",
"h  c #3F4455",
"j  c #36426B",
"k  c #3B4369",
"l  c #364964",
"z  c #3C4672",
"x  c #3F4872",
"c  c #3E5571",
"v  c #3C5F79",
"b  c #4D414A",
"n  c #50434B",
"m  c #494554",
"M  c #4D4A58",
"N  c #4A4658",
"B  c #524E5D",
"V  c #5C4C5A",
"C  c #714449",
"Z  c #7A484D",
"A  c #694E52",
"S  c #654658",
"D  c #774856",
"F  c #755C5B",
"G  c #404666",
"H  c #454A6C",
"J  c #495168",
"K  c #545162",
"L  c #5E5A6D",
"P  c #414A74",
"I  c #454F7B",
"U  c #47507A",
"Y  c #4B537B",
"T  c #465974",
"R  c #5B5870",
"E  c #50577D",
"W  c #545B79",
"Q  c #635B68",
"!  c #645F7A",
"~  c #71646B",
"^  c #6E667C",
"/  c #71687F",
"(  c #82434E",
")  c #894751",
"_  c #8F585B",
"`  c #965655",
"'  c #9C5E5D",
"]  c #9B625D",
"[  c #825E64",
"{  c #99786F",
"}  c #8A7472",
"|  c #9D7F75",
" . c #966268",
".. c #A46663",
"X. c #AB6D65",
"o. c #AD716B",
"O. c #A36F79",
"+. c #A36F70",
"@. c #A17E73",
"#. c #A5707A",
"$. c #A47071",
"%. c #B36C64",
"&. c #C86F64",
"*. c #D17F70",
"=. c #A38175",
"-. c #A18179",
";. c #B88778",
":. c #CF8675",
">. c #D38172",
",. c #3D758B",
"<. c #535A82",
"1. c #575F8A",
"2. c #5A628D",
"3. c #5E7084",
"4. c #487B90",
"5. c #6D6884",
"6. c #65688E",
"7. c #62778E",
"8. c #626A94",
"9. c #87778A",
"0. c #917482",
"q. c #3C8195",
"w. c #6EA2B5",
"e. c #74B9CA",
"r. c #9E929F",
"t. c #8D8296",
"y. c #A78880",
"u. c #AA8A84",
"i. c #BE8684",
"p. c #BE8886",
"a. c #B59592",
"s. c #9D8FA4",
"d. c #9496A9",
"f. c #BAA9AE",
"g. c #CC8F86",
"h. c #CB9481",
"j. c #C59A87",
"k. c #CA9C87",
"l. c #CC9D89",
"z. c #CE928B",
"x. c #D69481",
"c. c #D09E93",
"v. c #E79781",
"b. c #D2A089",
"n. c #D4A695",
"m. c #DBAA93",
"M. c #D9AA99",
"N. c #D7A994",
"B. c #E6A88E",
"V. c #E1AE94",
"C. c #F0AB90",
"Z. c #EFB49B",
"A. c #F7B195",
"S. c #FDBD9C",
"D. c #CAACAF",
"F. c #C4B3BD",
"G. c #DBC0BE",
"H. c #FFC6A3",
"J. c #FFC9A5",
"K. c #F6C4AC",
"L. c #F9CDB5",
"P. c #AEB5C1",
"I. c #B0B6C1",
"U. c #CEBDC6",
"Y. c #D0BEC7",
"T. c #EADEDC",
"R. c #C0D8E3",
"E. c #E4E7F0",
"W. c #E5E8F0",
/* pixels */
"                                                                ",
"                                                                ",
"                                                                ",
"                                                                ",
"                                                                ",
"                                                                ",
"                    + + + + X + + o o o o o                     ",
"                    % @ < < * % < < % 2 2 %                     ",
"                o @ q r r r r r r r r r r q # X                 ",
"                3 0 k P P P P I P P P P P k 0 4                 ",
"            o 3 H E U P P P P P P P P P P I E H 3 o             ",
"            o 4 <.8.Y P k P P P P P P z P Y 8.<.4 o             ",
"            o 4 <.8.Y z P P P z P P P P z <.8.<.4 o             ",
"            o 3 E 2.<.I P z z z z z k P I <.1.Y 3 o             ",
"            o 2 k <.2.1.I z z z z z z I 1.2.<.k 2 o             ",
"            X % e U 1.6.5./ ^ 5.5.^ / 5.6.1.Y q % o             ",
"            X % r x U 5.a.M.n.n.n.n.n.a.5.I P r @ X             ",
"            y m H z j R u.m.S.J.H.S.V.u.R j z H m d             ",
"        X i =.u.! j q w K } M.J.J.m.} B w q j ! u.=.i X         ",
"        X n b.M./ k K M 5 B l.J.J.l.B 5 M K G / M.l.n X         ",
"        X b b.N.Q K -.-.y b j.J.J.j.b 8 -.-.B Q m.l.n X         ",
"        X 7 { -.B Q N.l.u t ;.C.A.;.7 i l.N.Q B -.=.i X         ",
"        X @ 7 p N / M.k.u - ] >.>.' - i l.M.^ e m u             ",
"        i i i N W 7.n.:.F A X.*.*.X.A F h.n.t.T 2 .             ",
"    X y @.k.k.a.d.s.g.*.h.l.B.C.C.B.l.h.:.z.F.d.w . X +         ",
"    X b k.J.S.M.r.9. .%.x.Z.K.L.L.K.Z.x...$.D.f.~ : @ o         ",
"    X b k.S.v.o.V p a Z ' p.Y.T.T.G.p._ > A $.z.k.{ 7 o         ",
"    X i @.;...C * @ > f ( O.Y.W.W.Y.$.f $ - X.:.S.l.n X         ",
"        u u , = O * g ) ) #.Y.E.W.Y.#.f * t ;.S.J.k.b X         ",
"        X X X X X * s D D 0.P.R.R.I.0.S 9 m =.l.k.@.i X         ",
"                + O * 9 J 7.w.e.e.w.7.W T l m b i i             ",
"                o @ = b R 3.4.q.,.,.v T T l < . X X             ",
"                o = C ] ..[ N 1 1 6 3 < 3 <                     ",
"                o ; ` &.&.` - X X o o o o +                     "
};
