/* XPM */
static char *xpm___resized[] = {
/* columns rows colors chars-per-pixel */
"32 34 228 2 ",
"   c None",
".  c #091027",
"X  c #0B1128",
"o  c #0C1129",
"O  c #0D1229",
"+  c #0E1228",
"@  c #0C122A",
"#  c #0D132A",
"$  c #0F142A",
"%  c #0E142B",
"&  c #0F152C",
"*  c #101229",
"=  c #101428",
"-  c #11152B",
";  c #12142A",
":  c #12152B",
">  c #12162B",
",  c #10162D",
"<  c #11162D",
"1  c #12162C",
"2  c #13162C",
"3  c #13172C",
"4  c #13172D",
"5  c #13172E",
"6  c #16182E",
"7  c #1C1A2E",
"8  c #171B31",
"9  c #1D1C30",
"0  c #1F1C31",
"q  c #1F1D32",
"w  c #151E38",
"e  c #181F3B",
"r  c #19213A",
"t  c #1C213B",
"y  c #1A213C",
"u  c #1C223D",
"i  c #1D223D",
"p  c #1E233E",
"a  c #1E243E",
"s  c #212134",
"d  c #202036",
"f  c #322636",
"g  c #322637",
"h  c #362636",
"j  c #392736",
"k  c #3A2938",
"l  c #3A2A3A",
"z  c #3B2B3A",
"x  c #3E2C3A",
"c  c #3E2C3B",
"v  c #3C2C3D",
"b  c #45303F",
"n  c #1C2740",
"m  c #1E394F",
"M  c #1F3A50",
"N  c #212640",
"B  c #202A42",
"V  c #212B43",
"C  c #262B45",
"Z  c #262B46",
"A  c #222C44",
"S  c #212F47",
"D  c #272C46",
"F  c #2A2B40",
"G  c #2C2F43",
"H  c #292E44",
"J  c #232D4A",
"K  c #252F4B",
"L  c #3D2E43",
"P  c #26304C",
"I  c #27304C",
"U  c #21374D",
"Y  c #2B314B",
"T  c #3E3643",
"R  c #2E3452",
"E  c #2E3557",
"W  c #3A3950",
"Q  c #323C5D",
"!  c #323C5F",
"~  c #343E5E",
"^  c #363F5F",
"/  c #3C3D5D",
"(  c #333B60",
")  c #333B61",
"_  c #343C61",
"`  c #353D62",
"'  c #363D63",
"]  c #4B3544",
"[  c #403843",
"{  c #413A46",
"}  c #473D47",
"|  c #493E46",
" . c #493E47",
".. c #4D3648",
"X. c #43394B",
"o. c #4B3A49",
"O. c #493E48",
"+. c #4A3F48",
"@. c #4A3F49",
"#. c #4A3C4B",
"$. c #593C4E",
"%. c #5B3C4F",
"&. c #364963",
"*. c #3A4269",
"=. c #3C4469",
"-. c #3B446C",
";. c #3C466D",
":. c #3C466E",
">. c #3D466E",
",. c #3B4672",
"<. c #3D4772",
"1. c #3D4773",
"2. c #3F4872",
"3. c #3F4972",
"4. c #3E4873",
"5. c #3F4973",
"6. c #3E4974",
"7. c #3F4974",
"8. c #3F5571",
"9. c #3E607A",
"0. c #4D4149",
"q. c #4D414A",
"w. c #4E424A",
"e. c #4F424A",
"r. c #4F424B",
"t. c #4F434B",
"y. c #50464E",
"u. c #414657",
"i. c #494251",
"p. c #4A4354",
"a. c #4A4754",
"s. c #4B4754",
"d. c #41405F",
"f. c #564A51",
"g. c #5C4958",
"h. c #5F4A58",
"j. c #5C525B",
"k. c #5F555D",
"l. c #75474C",
"z. c #7C494C",
"x. c #7C4B4E",
"c. c #724557",
"v. c #734658",
"b. c #7F4B5C",
"n. c #404462",
"m. c #494567",
"M. c #404B63",
"N. c #434769",
"B. c #494568",
"V. c #474D6F",
"C. c #50486A",
"Z. c #51486A",
"A. c #55496B",
"S. c #435168",
"D. c #575363",
"F. c #404973",
"G. c #404974",
"H. c #414A74",
"J. c #404A75",
"K. c #414A75",
"L. c #414B75",
"P. c #424B75",
"I. c #434C76",
"U. c #434C77",
"Y. c #454E77",
"T. c #405672",
"R. c #435773",
"E. c #4B5A74",
"W. c #47507A",
"Q. c #48507A",
"!. c #48517B",
"~. c #49517B",
"^. c #4D5479",
"/. c #48517C",
"(. c #50577D",
"). c #615C6E",
"_. c #765C68",
"`. c #775C68",
"'. c #635E78",
"]. c #7F6562",
"[. c #995856",
"{. c #9A5957",
"}. c #A05F5D",
"|. c #856066",
" X c #846671",
".X c #9C7B71",
"XX c #9E7C72",
"oX c #A76969",
"OX c #A07D73",
"+X c #A18077",
"@X c #A58174",
"#X c #A58175",
"$X c #A68175",
"%X c #A5847B",
"&X c #3E788E",
"*X c #515984",
"=X c #525A85",
"-X c #516A81",
";X c #546A81",
":X c #58608A",
">X c #59618B",
",X c #5C648E",
"<X c #5D6590",
"1X c #4A7E93",
"2X c #746A81",
"3X c #607287",
"4X c #3E8499",
"5X c #5D8698",
"6X c #5C8699",
"7X c #6294A5",
"8X c #A98882",
"9X c #C89A86",
"0X c #CA9B87",
"qX c #CA9C87",
"wX c #CB9C88",
"eX c #CC9D88",
"rX c #CD9E88",
"tX c #CE9E88",
"yX c #CE9E89",
"uX c #CE9F89",
"iX c #CE9F8A",
"pX c #D4A38D",
"aX c #D3A48F",
"sX c #D7A790",
"dX c #DEAA90",
"fX c #DEAE9C",
"gX c #E1AC92",
"hX c #FFC2A1",
/* pixels */
"                                                                ",
"                                                                ",
"                    2 2 2 2 2 2 2 2 2 2 2 2                     ",
"                    i a a a a a a a a a a i                     ",
"                = t E ' ' ` ` ` ` ` ` ' ' E t =                 ",
"                C R *.L.L.K.K.K.K.K.K.L.L.*.R C                 ",
"            - D V.(.Y.5.G.H.H.H.H.H.H.G.5.Y.(.V.D -             ",
"            > Z ^.<X*XW.P.F.F.F.F.F.F.P.W.*X<X^.Z >             ",
"            1 N =.=X,X:XQ.2.F.F.F.F.2.Q.:X,X=X=.N 1             ",
"            3 p ( /.>X:X!.2.F.F.F.F.2.!.:X>X/.( p 3             ",
"            3 p _ U.~.!.I.F.F.F.F.F.F.I.!.~.U._ p 3             ",
"            $ u _ H.F.2.F.F.F.F.F.F.F.F.2.F.H._ u $             ",
"            O y _ K.G.F.F.F.F.F.F.F.F.F.F.G.K._ y O             ",
"            | p.N.G.G.F.F.F.F.F.F.F.F.F.F.G.G.N.p.|             ",
"        # +.@X8X'.1.4.F.F.F.F.F.F.F.F.F.F.4.1.'.8X@X+.#         ",
"        # e.rXfX2X,.<.F.F.F.F.F.F.F.F.F.F.<.,.2XfXrXe.#         ",
"        # e.rXfX2X,.<.F.F.F.F.F.F.F.F.F.F.<.,.2XfXrXe.#         ",
"        # +.@X8X'.1.4.F.F.F.F.F.F.F.F.F.F.4.1.'.8X@X+.#         ",
"            | p.N.G.G.F.F.F.F.F.F.F.F.F.F.G.G.N.p.|             ",
"            . e ) L.H.F.F.F.F.F.F.F.F.F.F.H.L.) e .             ",
"            . e ) L.H.F.F.F.F.F.F.F.F.F.F.H.L.) e .             ",
"             .i.n.;.2.G.F.F.F.F.F.F.F.F.G.2.;.n.i. .            ",
"        # +.$X%XD.Q -.H.G.F.F.F.F.F.F.G.H.-.Q D.%X$X+.#         ",
"        # r.eXaXj.J ! >.3.G.7.5.5.7.G.3.;.! K k.sXyXt.#         ",
"        # t.wXiXy.w P ^ >.J.7.6.6.7.J.:.~ I r f.pXuXt.#         ",
"        # w.0XdX].{ G Y / B.Z.A.A.C.m.d.W F 8 [ .X#X@.#         ",
"        # q.9XhXgXXX{ d L %.v.b.b.c.$...] v q s T O.            ",
"        # } OXqXtX+Xa.H X.h.`. X X_.g.o.b h 0 < % @             ",
"            } 0.w.s.S.R.E.;X5X7X7X6X-XM.F 7 6 4                 ",
"            # o X n &.T.8.9.&X4X4X1X3X).#.f 9 5                 ",
"                    B A V S U M m u.|.oX}.l.g ,                 ",
"                    > > > : ; * + j z.[.{.x.l &                 ",
"                                    k x c z                     ",
"                                    & & & &                     "
};
