/* XPM */
static char *xpm___resized[] = {
/* columns rows colors chars-per-pixel */
"32 32 152 2 ",
"   c None",
".  c #0D132A",
"X  c #12162C",
"o  c #171D39",
"O  c #191F3A",
"+  c #1F2033",
"@  c #1E233E",
"#  c #242439",
"$  c #3B2836",
"%  c #30283D",
"&  c #3A2B3A",
"*  c #352637",
"=  c #472D3B",
"-  c #43323F",
";  c #53353F",
":  c #1B2F46",
">  c #1D354B",
",  c #2A2A41",
"<  c #252B4A",
"1  c #292F4D",
"2  c #3C3541",
"3  c #3F3846",
"4  c #373B4F",
"5  c #35344F",
"6  c #2D3456",
"7  c #2F3658",
"8  c #2B3E53",
"9  c #3B3D51",
"0  c #353D62",
"q  c #363F68",
"w  c #443A46",
"e  c #493E47",
"r  c #4A3F48",
"t  c #443742",
"y  c #613542",
"u  c #713F45",
"i  c #3F4858",
"p  c #3D465A",
"a  c #384067",
"s  c #3C456C",
"d  c #3D4772",
"f  c #3F4873",
"g  c #336A7F",
"h  c #4D424B",
"j  c #5E454C",
"k  c #484857",
"l  c #494352",
"z  c #504657",
"x  c #584B57",
"c  c #544B5E",
"v  c #594C5D",
"b  c #7C494D",
"n  c #604950",
"m  c #614D5C",
"M  c #40476E",
"N  c #43496E",
"B  c #434763",
"V  c #594C67",
"C  c #59546C",
"Z  c #414A74",
"A  c #494F76",
"S  c #464F79",
"D  c #47507A",
"F  c #49527C",
"G  c #4B5076",
"H  c #5D5776",
"J  c #625564",
"K  c #635F7B",
"L  c #7D6461",
"P  c #65607C",
"I  c #6A657F",
"U  c #6B6277",
"Y  c #70687F",
"T  c #796375",
"R  c #854B4D",
"E  c #824F51",
"W  c #8C4F50",
"Q  c #845758",
"!  c #835152",
"~  c #955554",
"^  c #9C605F",
"/  c #885B64",
"(  c #85676C",
")  c #9A6062",
"_  c #8D716F",
"`  c #9A796F",
"'  c #8A7075",
"]  c #A26661",
"[  c #A66B67",
"{  c #A87070",
"}  c #A37E73",
"|  c #A37271",
" . c #BB7870",
".. c #C86E64",
"X. c #A9857E",
"o. c #A1817C",
"O. c #BD8A7A",
"+. c #D48A7A",
"@. c #E2947D",
"#. c #4C5580",
"$. c #4F5882",
"%. c #525B84",
"&. c #575F8A",
"*. c #585F89",
"=. c #57608A",
"-. c #5A628C",
";. c #467084",
":. c #5E7D8A",
">. c #6D6883",
",. c #65688E",
"<. c #716980",
"1. c #616892",
"2. c #8F7782",
"3. c #807A8F",
"4. c #49889B",
"5. c #5D90A3",
"6. c #6095A4",
"7. c #67A0B2",
"8. c #74B5C6",
"9. c #898B9A",
"0. c #968590",
"q. c #AA8984",
"w. c #AD8E8D",
"e. c #BA8E83",
"r. c #BD968D",
"t. c #B59492",
"y. c #9298AC",
"u. c #A397A3",
"i. c #97AAB7",
"p. c #AAA5B3",
"a. c #B9B0B2",
"s. c #C08D80",
"d. c #CA9C86",
"f. c #C7968C",
"g. c #CA9D88",
"h. c #D59E8D",
"j. c #E79882",
"k. c #CFA08C",
"l. c #DBA88F",
"z. c #C4A294",
"x. c #D6A897",
"c. c #D3A798",
"v. c #D6A998",
"b. c #D9AB99",
"n. c #D4A491",
"m. c #E2AD93",
"M. c #FFBA9A",
"N. c #CFBAB9",
"B. c #EBB5A1",
"V. c #FEC19F",
"C. c #FFC5A2",
"Z. c #B8C2CD",
/* pixels */
"                                                                ",
"                                                                ",
"                                                                ",
"                                                                ",
"                    X X X X X X X X X X X X                     ",
"                    # : : # @ @ : # @ @ , O                     ",
"                X @ 6 0 0 0 0 0 0 0 0 0 0 6 O X                 ",
"                O 1 q Z Z Z Z Z M Z F #.#.s 1 O                 ",
"            X O 6 q N Z Z Z Z Z Z D *.1.1.*.N 6 # X             ",
"            X : 0 Z Z Z Z Z D F F %.*.1.1.*.F 0 : X             ",
"            X @ 0 Z Z N f S &.1.1.*.$.F F F S 0 O X             ",
"            X @ 0 f Z Z S $.-.1.1.*.Z Z Z Z Z 0 @ X             ",
"            X @ 0 d f S &.-.%.F #.S Z Z Z Z Z 0 , X             ",
"            X , V >.<.>.1.-.S f Z Z Z Z Z Z Z 7 : X             ",
"            . w } b.b.t.>.S Z f Z Z Z Z Z Z Z 0 O X             ",
"            . h f.C.m.q.C a d f Z q Z s Z Z Z 0 @ X             ",
"            . h g.m._ z 5 6 a f d q Z d Z Z Z 0 @ X             ",
"            . h d.g.x , l c B N K <.T *.A f Z 0 @ X             ",
"            . h g.g.h w } X.x V q.b.b.w.K f f 0 @ X             ",
"            X h +.O.t e d.n.J v s.M.C.b.>.f f 0 # X             ",
"            X & ) [ & h d.c.U V [ j.M.b.Y s f 0 : X             ",
"            X & b b j L l.v.I H { +.h.w.K Z Z 0 @ X             ",
"                & j o.l.V.c.>.I f.h.2.*.A Z Z 0 @ X             ",
"                . & ` k.d.X.T T e.r.<.-.s a f 0 @ X             ",
"                . + & e e n Q ) Q ' p.y.B < q 0 , .             ",
"                X # 9 p % = R W u ( N.a.k O 0 0 @ X             ",
"                . 9 9.u./ y = ; R  .B.z.h O 0 0 , X             ",
"                . p i.Z.0.v # & ] j.M.g.r O 6 6 O X             ",
"                X 8 5.8.7.;.: t O.M.C.d.h X O :                 ",
"                X > g 4.6.:.l j } g.d.} r . . X                 ",
"                    > p ( | ) ! j e r e                         ",
"                    . $ ~ ....~ % . . .                         "
};
