/* XPM */
static char *xpm___resized[] = {
/* columns rows colors chars-per-pixel */
"32 32 154 2 ",
"   c None",
".  c #0D132B",
"X  c #12162C",
"o  c #171D39",
"O  c #191F3A",
"+  c #1F2033",
"@  c #1E233E",
"#  c #242439",
"$  c #382636",
"%  c #362738",
"&  c #30283D",
"*  c #3B2B3A",
"=  c #352637",
"-  c #472D3B",
";  c #43323F",
":  c #53353F",
">  c #1B2F46",
",  c #1D354B",
"<  c #2A2A41",
"1  c #252B4A",
"2  c #292F4D",
"3  c #3C3541",
"4  c #3F3846",
"5  c #373B4F",
"6  c #35344F",
"7  c #2D3456",
"8  c #2F3658",
"9  c #2B3E53",
"0  c #3B3D51",
"q  c #353D62",
"w  c #363F68",
"e  c #443A46",
"r  c #493E47",
"t  c #4A3F48",
"y  c #443742",
"u  c #613542",
"i  c #713F45",
"p  c #3F4859",
"a  c #3D465A",
"s  c #384067",
"d  c #3C456C",
"f  c #3D4772",
"g  c #3F4873",
"h  c #336A7F",
"j  c #4D424B",
"k  c #5E454C",
"l  c #484857",
"z  c #4A4453",
"x  c #504657",
"c  c #584B57",
"v  c #544B5E",
"b  c #594C5D",
"n  c #7C494D",
"m  c #7A474B",
"M  c #604950",
"N  c #614D5C",
"B  c #40476E",
"V  c #43496E",
"C  c #434763",
"Z  c #594C67",
"A  c #59546C",
"S  c #414A74",
"D  c #494F76",
"F  c #464F79",
"G  c #4B5076",
"H  c #47507A",
"J  c #49527C",
"K  c #5D5776",
"L  c #625564",
"P  c #635F7B",
"I  c #7D6461",
"U  c #65607C",
"Y  c #6A657F",
"T  c #6B6277",
"R  c #70687F",
"E  c #796375",
"W  c #854B4D",
"Q  c #824F51",
"!  c #8C4F50",
"~  c #845758",
"^  c #855253",
"/  c #9A5857",
"(  c #995755",
")  c #8E5C60",
"_  c #825A67",
"`  c #86686D",
"'  c #9D6161",
"]  c #8D716F",
"[  c #9A796F",
"{  c #8A7075",
"}  c #A26661",
"|  c #A66B67",
" . c #A87070",
".. c #A37E74",
"X. c #A77572",
"o. c #BB7870",
"O. c #A9857E",
"+. c #A1817C",
"@. c #BD8A7A",
"#. c #D48A7A",
"$. c #E2947D",
"%. c #4C5580",
"&. c #4F5882",
"*. c #525B84",
"=. c #575F8A",
"-. c #585F89",
";. c #57608A",
":. c #5A628C",
">. c #467084",
",. c #5F7E8C",
"<. c #6D6883",
"1. c #65688E",
"2. c #716980",
"3. c #616892",
"4. c #8F7782",
"5. c #807A8F",
"6. c #49899C",
"7. c #5D90A3",
"8. c #6197A5",
"9. c #67A0B2",
"0. c #74B5C6",
"q. c #898B9A",
"w. c #968590",
"e. c #AA8984",
"r. c #AD8E8D",
"t. c #BA8E83",
"y. c #BD968D",
"u. c #B59492",
"i. c #9298AC",
"p. c #A397A3",
"a. c #97AAB7",
"s. c #AAA5B3",
"d. c #B9B0B2",
"f. c #C08D80",
"g. c #CA9C86",
"h. c #C7968C",
"j. c #CA9D88",
"k. c #D59E8D",
"l. c #E79882",
"z. c #CFA08C",
"x. c #DBA88F",
"c. c #C4A294",
"v. c #D6A897",
"b. c #D3A798",
"n. c #D6A998",
"m. c #D9AB99",
"M. c #D4A491",
"N. c #E2AD93",
"B. c #FFBA9A",
"V. c #CFBAB9",
"C. c #EBB5A1",
"Z. c #FEC19F",
"A. c #FFC5A2",
"S. c #B8C2CD",
/* pixels */
"                                                                ",
"                                                                ",
"                    X X X X X X X X X X X X                     ",
"                    > # # > @ @ # O > # > #                     ",
"                X O 7 q q q q q q q q q q 7 O X                 ",
"                @ 2 s S S S S S S S %.%.%.B 2 O                 ",
"            X @ 8 s d S S S S B S J =.3.3.=.B 7 @ X             ",
"            X @ q S S S S S J J J &.=.3.3.=.J q @ X             ",
"            X @ q S S g f H -.3.3.:.&.J J J F q @ X             ",
"            X @ q g g S F *.:.3.3.-.H f f S S q # X             ",
"            X @ q f f F -.:.&.J J H S S S S S q > X             ",
"            X < A 2.2.<.1.-.H f S B S S B S S q O X             ",
"            . e ..b.m.y.<.H S S f S B S B S S q < X             ",
"            . j h.A.N.e.A s f S S f g g S S S q @ X             ",
"            . j j.m.] x 6 7 s S f f f f g S S q @ X             ",
"            . j j.z.c < z Z C V P 2.<.P D S g q @ X             ",
"            X j j.j.j 4 [ O.v v e.v.v.r.P g g q > X             ",
"            . r @.@.e r g.M.L b t.B.A.v.<.f g q @ X             ",
"            . y | } * r g.v.T Z | $.B.n.2.f g q @ X             ",
"            . * m Q k I x.n.R K  .#.k.r.P g S q @ X             ",
"                = k ..N.Z.b.Y P h.k.4.P D S S q # X             ",
"                . 3 [ g.g.O.E E t.y.5.*.B q f q > X             ",
"                X O 3 j r c ) ' ~ { s.i.C 1 q q @ X             ",
"                X # 5 0 & - n ! i ` V.d.l @ q q < X             ",
"                . 0 q.p._ u - u W o.C.c.t O q q O X             ",
"                . a a.S.w.N # * } l.B.g.t o 7 7 @ X             ",
"                X 9 7.0.8.>., y @.B.A.g.t o O >                 ",
"                X , h 6.8.,.z k ..g.g...r . X X                 ",
"                    , a ` X.' ^ k t t r                         ",
"                    . % n / / n % . . .                         ",
"                        % * * *                                 ",
"                        X X X X                                 "
};
