/* XPM */
static char *C_resized[] = {
/* columns rows colors chars-per-pixel */
"32 34 156 2 ",
"   c None",
".  c #071029",
"X  c #0D132A",
"o  c #12162C",
"O  c #191F35",
"+  c #171E3B",
"@  c #211A2F",
"#  c #251D32",
"$  c #1F2134",
"%  c #1E233E",
"&  c #2D2235",
"*  c #392837",
"=  c #3B2B3A",
"-  c #35293A",
";  c #43323F",
":  c #2A2A41",
">  c #292F4D",
",  c #272D4B",
"<  c #332F45",
"1  c #283549",
"2  c #3D3544",
"3  c #3F3846",
"4  c #33364E",
"5  c #393B4E",
"6  c #2E3456",
"7  c #2C3A58",
"8  c #353C62",
"9  c #363F68",
"0  c #463C46",
"q  c #493E47",
"w  c #5A3646",
"e  c #6A3A45",
"r  c #3C4558",
"t  c #384365",
"y  c #3A436B",
"u  c #3D4772",
"i  c #3F4873",
"p  c #4D414A",
"a  c #5D434D",
"s  c #4C4251",
"d  c #504657",
"f  c #584B57",
"g  c #544A5D",
"h  c #574A59",
"j  c #76424E",
"k  c #79484C",
"l  c #744652",
"z  c #7C4D5C",
"x  c #40476E",
"c  c #44496E",
"v  c #434464",
"b  c #594C67",
"n  c #55526A",
"m  c #5B566E",
"M  c #414A74",
"N  c #464F79",
"B  c #47507A",
"V  c #49527C",
"C  c #4B5076",
"Z  c #5D5877",
"A  c #635664",
"S  c #685A6F",
"D  c #65586B",
"F  c #765862",
"G  c #7D5F64",
"H  c #635F7B",
"J  c #645B70",
"K  c #735E71",
"L  c #47657D",
"P  c #67616B",
"I  c #7D6461",
"U  c #6A657F",
"Y  c #6B6277",
"T  c #70687F",
"R  c #7F6476",
"E  c #81434E",
"W  c #864650",
"Q  c #814F51",
"!  c #8B4751",
"~  c #89565C",
"^  c #955453",
"/  c #9F5A61",
"(  c #925C60",
")  c #816469",
"_  c #8D716F",
"`  c #99786F",
"'  c #A46563",
"]  c #A86A68",
"[  c #A86F70",
"{  c #A26971",
"}  c #A27E73",
"|  c #A67A78",
" . c #AB7A7A",
".. c #BF7B79",
"X. c #C76B61",
"o. c #A8847D",
"O. c #A38179",
"+. c #BE8B7B",
"@. c #D38B7A",
"#. c #E2947D",
"$. c #4C5580",
"%. c #4F5882",
"&. c #525A83",
"*. c #575F8A",
"=. c #585F89",
"-. c #5E6487",
";. c #57608A",
":. c #5A628C",
">. c #527584",
",. c #6D6883",
"<. c #63688D",
"1. c #716980",
"2. c #616892",
"3. c #637990",
"4. c #8E7482",
"5. c #917A85",
"6. c #807B91",
"7. c #5D8596",
"8. c #5A8FA1",
"9. c #6A97A4",
"0. c #6A98A5",
"q. c #6CA3B6",
"w. c #73BBCC",
"e. c #858796",
"r. c #AA8984",
"t. c #AE8F8C",
"y. c #B59492",
"u. c #A097A2",
"i. c #94A7B5",
"p. c #A3A3B2",
"a. c #A1A7BE",
"s. c #C08D80",
"d. c #C09086",
"f. c #CA9B86",
"g. c #C6958A",
"h. c #CC9E89",
"j. c #D59F8E",
"k. c #CFA08C",
"l. c #D6A08F",
"z. c #DBA88F",
"x. c #D4A592",
"c. c #D6A897",
"v. c #D3A798",
"b. c #D6A998",
"n. c #D9AB99",
"m. c #E2AD93",
"M. c #FFB998",
"N. c #CBA8AD",
"B. c #FEC19F",
"V. c #FFC4A0",
"C. c #FFCFA9",
"Z. c #ADB6C3",
"A. c #BEBAC3",
"S. c #D5C5CA",
"D. c #C0DBE7",
"F. c #C3DDE8",
/* pixels */
"                                                                ",
"                                                                ",
"                                                                ",
"                                                                ",
"                                                                ",
"                                                                ",
"                    o o o o X o o o o X o o                     ",
"                    % % % % : % % % % : % %                     ",
"                o % 6 8 8 8 8 8 8 8 8 8 8 6 % X                 ",
"                % > x V %.V M M M M M M M y , %                 ",
"            o % 6 x =.2.2.:.B M M M M M M u y 6 % o             ",
"            o % 8 V ;.2.2.-.V V V B M i M M i 8 % o             ",
"            o % 8 N B B V &.:.2.2.;.B u i M N 8 % o             ",
"            o % 8 M M i i B ;.2.2.:.&.B i i u 8 % o             ",
"            o % 8 M M i M M B B V &.;.;.N u u 8 % o             ",
"            o % 8 M M M x M M u x B ;.<.,.1.1.n : o             ",
"            X % 8 M M M i i i i M M N ,.y.n.n.O.0 X             ",
"            o % 8 M M M i u i i M u 9 m r.m.B.f.p X             ",
"            o : 8 M M i u u u i M y 6 4 d _ z.f.p X             ",
"            o % 8 M x C H ,.1.H c v b q : f k.f.p X             ",
"            o % 8 i i H t.b.n.r.g g o.} 3 p k.k.p X             ",
"            o % 8 i i ,.v.V.M.s.g A x.f.0 0 +.+.p X             ",
"            o % 8 i i ,.b.M.#.[ b K v.f.0 = ' ' ; X             ",
"            o % 8 u u H t.j.@.[ Z ,.b.z.I a Q k = o             ",
"            o % 8 i u N Z 5.l.g.Y ,.v.B.z.O.a *                 ",
"            X % 8 $.-.-.M S d.g.R P o.@.k.O.0 .                 ",
"            X + 7 -.a.p.S e ( [ ' ~ a p p p                     ",
"            0 h J 6.p.u.F e k / .. .A 4 O X                     ",
"        X 0 } h.x.r.P h l W ! [ N.S.A.e.5 .                     ",
"        X p f.C.C.f.q @ w l z 5.Z.D.F.i.r X                     ",
"        X p f.C.C.f.q o # < n >.q.w.w.8.7 X                     ",
"        X 0 } f.g.` 0 O # < t L 7.0.0.>.1 o                     ",
"            0 p p 3 O & w w < 0 ) | | I < o                     ",
"            X X X . o - j j & = ^ X.X.^ = X                     "
};
