/* XPM */
static char *F_resized[] = {
/* columns rows colors chars-per-pixel */
"32 34 155 2 ",
"   c None",
".  c #0A1027",
"X  c #071029",
"o  c #0D132A",
"O  c #12162C",
"+  c #1E233E",
"@  c #2F2235",
"#  c #25293F",
"$  c #2E263A",
"%  c #392837",
"&  c #332538",
"*  c #362C3B",
"=  c #3A2B3B",
"-  c #342636",
";  c #3F343F",
":  c #43323F",
">  c #272840",
",  c #2A2A41",
"<  c #292F4D",
"1  c #272D4B",
"2  c #27354A",
"3  c #29394D",
"4  c #2A334A",
"5  c #3D3343",
"6  c #3F3846",
"7  c #36344D",
"8  c #3E3D4C",
"9  c #2D3456",
"0  c #3E3E51",
"q  c #323A5F",
"w  c #343C62",
"e  c #363F68",
"r  c #4F3442",
"t  c #453B45",
"y  c #4A3E47",
"u  c #473E48",
"i  c #5F3E46",
"p  c #733F4C",
"a  c #3E4357",
"s  c #384067",
"d  c #3A436B",
"f  c #3C4672",
"g  c #3F4873",
"h  c #4E424B",
"j  c #5C444B",
"k  c #484555",
"l  c #504657",
"z  c #584B57",
"x  c #544B5E",
"c  c #594C5E",
"v  c #79484C",
"b  c #74404D",
"n  c #68495A",
"m  c #654454",
"M  c #705255",
"N  c #7B615F",
"B  c #40476E",
"V  c #43496E",
"C  c #464964",
"Z  c #584C68",
"A  c #465167",
"S  c #57526A",
"D  c #5B566E",
"F  c #414A74",
"G  c #464F79",
"H  c #465772",
"J  c #4B5076",
"K  c #47507A",
"L  c #49527C",
"P  c #545D77",
"I  c #684F68",
"U  c #625966",
"Y  c #7D5F64",
"T  c #635F7B",
"R  c #4A637D",
"E  c #776567",
"W  c #686177",
"Q  c #6E667E",
"!  c #70687F",
"~  c #824F51",
"^  c #814F58",
"/  c #86535B",
"(  c #955453",
")  c #9E635D",
"_  c #81656A",
"`  c #9B6B6E",
"'  c #8D716F",
"]  c #89707F",
"[  c #A36761",
"{  c #AD6A62",
"}  c #AA6F6E",
"|  c #A56962",
" . c #B17067",
".. c #A37E73",
"X. c #A67A79",
"o. c #BD7E78",
"O. c #C76B61",
"+. c #A1817B",
"@. c #A8847D",
"#. c #A48175",
"$. c #B98777",
"%. c #BE8B7B",
"&. c #4C5580",
"*. c #4F5882",
"=. c #525A83",
"-. c #575F8A",
";. c #585F89",
":. c #4C6A81",
">. c #57608A",
",. c #5A628B",
"<. c #596C84",
"1. c #527585",
"2. c #6D6884",
"3. c #62688D",
"4. c #716A82",
"5. c #7E7A8F",
"6. c #616892",
"7. c #6E7191",
"8. c #647D97",
"9. c #5D8695",
"0. c #6997A4",
"q. c #6998A6",
"w. c #7AB1B8",
"e. c #AA8984",
"r. c #AE8F8B",
"t. c #A4958C",
"y. c #B59492",
"u. c #959EAD",
"i. c #AB9CA5",
"p. c #9BA4B8",
"a. c #A0A1AF",
"s. c #C28F82",
"d. c #C69985",
"f. c #C99B86",
"g. c #CB9D88",
"h. c #C49784",
"j. c #DB9782",
"k. c #E79780",
"l. c #CFA08C",
"z. c #D9A68D",
"x. c #D4A591",
"c. c #D5A897",
"v. c #D7A998",
"b. c #DAAB99",
"n. c #DDAB91",
"m. c #E3AE94",
"M. c #ECAD93",
"N. c #FCBC9C",
"B. c #D3B1A9",
"V. c #CABBBA",
"C. c #DAC2AC",
"Z. c #FFC4A1",
"A. c #FFCBA6",
"S. c #F5C5AC",
"D. c #C9BFC7",
/* pixels */
"                                                                ",
"                                                                ",
"                                                                ",
"                                                                ",
"                                                                ",
"                                                                ",
"                    O O O O O O O O O O O O                     ",
"                    + + + # + + + + # + + +                     ",
"                O + 9 q w w w w w w w w q 9 + O                 ",
"                + 1 V L L K G F F F F F G e 1 +                 ",
"            O + 9 g ;.6.6.,.K f F F F F F g d 9 + O             ",
"            O + w L ,.6.6.,.=.L L K F f V F F w + O             ",
"            O > w G K K L =.,.6.6.,.G B f F F w > O             ",
"            O + q F F g f J >.6.6.,.=.G F f F w + O             ",
"            O + w F F F F F K L L =.,.;.G f f w + O             ",
"            O + w F F F F f F V f K ;.3.2.4.2.S , o             ",
"            O + q F F F F F f F F f G 2.y.b.b.+.6 o             ",
"            O + w F F F f f f F F g e D e.M.Z.f.h o             ",
"            O + w F F F f f f f F e 9 7 l ' m.f.h o             ",
"            O + w F F J T ! ! T V C c k , z g.g.h o             ",
"            O # w F f T r.v.v.e.x x @...6 h g.g.h o             ",
"            O + w F f ! v.Z.N.s.c I x.f.u t %.%.u o             ",
"            O + e f d Q b.N.k.} Z W c.f.u % | | : O             ",
"            O + q L ,.5.r.$.[ M I ] b.z.E j ~ v = o             ",
"            O + q ,.p.a.U t - r / o.M.N.n...j -                 ",
"            O + q 7.D.V.E u t j ~ { j.M.z.#.u X                 ",
"            O + q 2.B.S.x.h.d...j j { { M u                     ",
"            O + 9 S +.z.N.A.A.f.u = ` ` 5 .                     ",
"                + # 5 N z.A.A.d.t k i.i.k .                     ",
"                O o o 8 t.C.C.t.k A p.u.a o                     ",
"                    o 3 9.w.w.0.:.R 8.<.4 O                     ",
"                    O 2 1.0.q.9.R H P C # O                     ",
"                    o 5 Y X.X.E u 7 n m $ O                     ",
"                    O = ( O.O.( % @ p p & O                     "
};
