/* XPM */
static char *G_resized[] = {
/* columns rows colors chars-per-pixel */
"32 34 165 2 ",
"   c None",
".  c #071028",
"X  c #0D132A",
"o  c #12162C",
"O  c #14182E",
"+  c #1B1E33",
"@  c #171D37",
"#  c #291F34",
"$  c #1E233E",
"%  c #222034",
"&  c #2E2236",
"*  c #322537",
"=  c #392636",
"-  c #332638",
";  c #3C2B3A",
":  c #3B2937",
">  c #3B333F",
",  c #402E3B",
"<  c #43323F",
"1  c #54323F",
"2  c #1C2D45",
"3  c #1C334A",
"4  c #2A2A41",
"5  c #282E4C",
"6  c #312D43",
"7  c #3F3846",
"8  c #32364E",
"9  c #34354A",
"0  c #2D3456",
"q  c #273B51",
"w  c #353D62",
"e  c #363F68",
"r  c #403642",
"t  c #453B46",
"y  c #493E47",
"u  c #493F48",
"i  c #4C3644",
"p  c #5C3442",
"a  c #5E3B4B",
"s  c #603947",
"d  c #613742",
"f  c #723E4B",
"g  c #3F4858",
"h  c #3A4458",
"j  c #384265",
"k  c #3A436B",
"l  c #3D4772",
"z  c #3F4873",
"x  c #3C607A",
"c  c #4D424A",
"v  c #5D444C",
"b  c #4B4453",
"n  c #474A5C",
"m  c #424052",
"M  c #544B5E",
"N  c #564A59",
"B  c #60404F",
"V  c #75444D",
"C  c #7C424D",
"Z  c #7B494C",
"A  c #604052",
"S  c #634B51",
"D  c #69525E",
"F  c #79605E",
"G  c #454B64",
"H  c #40476E",
"J  c #42496E",
"K  c #434464",
"L  c #594C67",
"P  c #59546C",
"I  c #414A74",
"U  c #464F79",
"Y  c #47507A",
"T  c #49527C",
"R  c #4B5076",
"E  c #5D5877",
"W  c #625664",
"Q  c #655D66",
"!  c #68596E",
"~  c #635F7B",
"^  c #735E71",
"/  c #7D6461",
"(  c #6A647B",
")  c #70687F",
"_  c #7F6476",
"`  c #834E53",
"'  c #89565C",
"]  c #9A5856",
"[  c #985B61",
"{  c #846A6E",
"}  c #9F6260",
"|  c #966162",
" . c #8D716F",
".. c #9B796F",
"X. c #9F7D72",
"o. c #A36464",
"O. c #A86A68",
"+. c #A86F70",
"@. c #A26972",
"#. c #A37E74",
"$. c #A6727B",
"%. c #A87675",
"&. c #BE7A78",
"*. c #A8847D",
"=. c #A6847A",
"-. c #BE8B7B",
";. c #BB877A",
":. c #D38B7A",
">. c #E2947D",
",. c #3C758C",
"<. c #4C5580",
"1. c #4F5882",
"2. c #525A83",
"3. c #575F8A",
"4. c #585F89",
"5. c #57608A",
"6. c #5B628B",
"7. c #5F7C89",
"8. c #6D6883",
"9. c #65688E",
"0. c #716980",
"q. c #616892",
"w. c #657990",
"e. c #917884",
"r. c #48879A",
"t. c #578C9F",
"y. c #5F93A2",
"u. c #6FA3B6",
"i. c #73B9CB",
"p. c #848897",
"a. c #AA8984",
"s. c #AE8F8E",
"d. c #B59492",
"f. c #9A97A2",
"g. c #999DB0",
"h. c #91A5B3",
"j. c #A4A2B3",
"k. c #B3B4BF",
"l. c #C08D80",
"z. c #C09086",
"x. c #C69985",
"c. c #C99B86",
"v. c #C6958A",
"b. c #CC9D88",
"n. c #D39F8C",
"m. c #CFA08C",
"M. c #D6A08F",
"N. c #DAA78E",
"B. c #D6A897",
"V. c #D6A998",
"C. c #D9AB99",
"Z. c #D6A793",
"A. c #E3A790",
"S. c #E2AD93",
"D. c #FEBB9A",
"F. c #C8A8AD",
"G. c #FEC19F",
"H. c #FFC4A0",
"J. c #FFCDA8",
"K. c #B5B7C2",
"L. c #D1BFC8",
"P. c #CFC0C8",
"I. c #D2C4C9",
"U. c #C0D9E4",
"Y. c #EAEBF2",
/* pixels */
"                                                                ",
"                                                                ",
"                    o o o o O o O O O o o o                     ",
"                    $ $ $ $ $ $ 2 % $ $ $ $                     ",
"                o @ 0 w w w w w w w w w w 0 $ o                 ",
"                $ 5 J <.T T I I z I I I I e 5 %                 ",
"            o $ 0 z 3.q.q.6.Y z z I I I I I e 0 $ o             ",
"            o $ w T 6.q.q.6.1.Y T Y I I I I I w $ o             ",
"            o $ w U T T Y 2.6.q.q.3.U z z z z w % O             ",
"            O $ w I I z z Y 6.q.q.3.2.T z l z w 2 O             ",
"            o 2 w I I z z I Y T <.2.6.3.U l l w @ O             ",
"            o % w I I I z I z z z U 3.9.8.8.8.P 4 o             ",
"            o $ w I I z I z z z z I U 8.d.C.C.=.t X             ",
"            O $ w I I I z z l z z l e P a.S.H.c.c X             ",
"            o $ w I I z z l l z I k 0 8 N  .S.c.c X             ",
"            o $ w I z R ~ ) ) E J K L u 4 N b.c.c X             ",
"            o $ w z z ~ s.V.V.a.L M *.#.7 c m.m.c .             ",
"            o $ w z l ) V.H.D.:.N W Z.c.c r -.-.c X             ",
"            o $ w z l 8.V.D.>.O.L ( B.x.c ; o.o.> X             ",
"            o $ w z z ~ s.n.:.+.P 8.V.N.F v ` Z : X             ",
"            o $ w z z U ~ e.M.v.~ 8.B.G.N.#.v -                 ",
"            O $ 0 z 6.6.U ! d.x.{ ^ *.c.n.*.t .                 ",
"            O O @ n g.j.! s [ O.o.' v y c u                     ",
"            o + > Q f.f.D d C [ &.$.W 8 + X                     ",
"            o 7 ..*.Q m i d C @.F.I.k.p.8 X o O                 ",
"            X c m.N./ 7 ; 1 C $.I.Y.Y.k.n X o O                 ",
"            X c x.D.Z...t - f $.I.Y.Y.k.n o o o                 ",
"            X u x.J.J.c.c # s e.k.U.U.h.h X o O                 ",
"            X c c.J.J.b.c $ G w.u.i.i.t.q X                     ",
"            X t X.b.A.;.v 6 g x ,.r.y.7.n ;                     ",
"                t S [ o.` a 6 2 3 g { +.} Z ; o                 ",
"                . # p f V a & X . : Z ] ] V - o                 ",
"                    & & - *         ; ; , - + O                 ",
"                    o o X O         X X X O O O                 "
};
