/* XPM */
static char *I_resized[] = {
/* columns rows colors chars-per-pixel */
"32 34 167 2 ",
"   c None",
".  c #0E142B",
"X  c #12162C",
"o  c #18182D",
"O  c #1B1D31",
"+  c #171E39",
"@  c #181F3A",
"#  c #261E33",
"$  c #291E32",
"%  c #1E233E",
"&  c #2D2235",
"*  c #292338",
"=  c #312537",
"-  c #322538",
";  c #3A2A39",
":  c #382837",
">  c #38323F",
",  c #43323F",
"<  c #472A39",
"1  c #1E2E46",
"2  c #1E374D",
"3  c #1F394F",
"4  c #2A2A41",
"5  c #2A2F4C",
"6  c #242A45",
"7  c #36354D",
"8  c #3B3646",
"9  c #2D3456",
"0  c #2F3960",
"q  c #353C62",
"w  c #363F68",
"e  c #443A46",
"r  c #493D47",
"t  c #483E48",
"y  c #5E3A44",
"u  c #5B3544",
"i  c #673844",
"p  c #3F4759",
"a  c #384067",
"s  c #3A436B",
"d  c #3D4772",
"f  c #3F4873",
"g  c #3C5F79",
"h  c #4D414A",
"j  c #4C4047",
"k  c #5A434B",
"l  c #474456",
"z  c #514654",
"x  c #544B5D",
"c  c #574A59",
"v  c #674B4F",
"b  c #73424C",
"n  c #7B494D",
"m  c #77484C",
"M  c #684A57",
"N  c #7B4F54",
"B  c #43496E",
"V  c #414669",
"C  c #495068",
"Z  c #5D5462",
"A  c #55526B",
"S  c #59556E",
"D  c #414A74",
"F  c #464F79",
"G  c #47507A",
"H  c #49527C",
"J  c #465574",
"K  c #5C5372",
"L  c #594C67",
"P  c #655662",
"I  c #7B5963",
"U  c #635F7B",
"Y  c #725E71",
"T  c #566079",
"R  c #7B6360",
"E  c #6D6176",
"W  c #6A657F",
"Q  c #77667A",
"!  c #84444E",
"~  c #864B53",
"^  c #975654",
"/  c #985655",
"(  c #98575A",
")  c #87565B",
"_  c #A55D59",
"`  c #A6625E",
"'  c #865966",
"]  c #83696E",
"[  c #97646F",
"{  c #8D716F",
"}  c #97776E",
"|  c #8B6D70",
" . c #A36462",
".. c #A76967",
"X. c #BD6961",
"o. c #B37369",
"O. c #A46C71",
"+. c #A27E74",
"@. c #A5707A",
"#. c #AB7876",
"$. c #B77975",
"%. c #C5776C",
"&. c #A8847D",
"*. c #A1817C",
"=. c #BE8B7B",
"-. c #D38A7A",
";. c #C9917F",
":. c #E2947D",
">. c #3E778E",
",. c #4C5580",
"<. c #4F5882",
"1. c #525A83",
"2. c #575F8A",
"3. c #585F89",
"4. c #5A628C",
"5. c #5C6585",
"6. c #6D6883",
"7. c #65688E",
"8. c #716980",
"9. c #616892",
"0. c #8F7C87",
"q. c #867E93",
"w. c #AE7F83",
"e. c #3D8196",
"r. c #468598",
"t. c #60869A",
"y. c #5C91A1",
"u. c #659CAD",
"i. c #789DAB",
"p. c #6FAEBF",
"a. c #71B7C9",
"s. c #878D97",
"d. c #AA8984",
"f. c #AB8C8B",
"g. c #B59492",
"h. c #B29EA8",
"j. c #9CAAB6",
"k. c #B0B2BE",
"l. c #B5ABB8",
"z. c #C08D80",
"x. c #C99B86",
"c. c #C69489",
"v. c #CB9D88",
"b. c #C79984",
"n. c #D59E8E",
"m. c #CA9C93",
"M. c #CFA08C",
"N. c #DBA88F",
"B. c #D8A48B",
"V. c #C8A598",
"C. c #D6A999",
"Z. c #D9AB99",
"A. c #D6A794",
"S. c #E3AE94",
"D. c #F1AF93",
"F. c #FDBB9A",
"G. c #C5AEB1",
"H. c #FDC09F",
"J. c #FFC4A0",
"K. c #FFCEA9",
"L. c #AFB9C4",
"P. c #BCB8C1",
"I. c #CFBFC7",
"U. c #BFD8E3",
"Y. c #D1C3C9",
"T. c #C0D8E3",
"R. c #EAEBF3",
/* pixels */
"                    X . X X X X X X X X X X                     ",
"                    * 1 * @ % 1 % % @ 6 @ 1                     ",
"                . % 9 q q q q q q q q q q 9 # X                 ",
"                % 5 w D f D D D D D H H ,.f 5 @                 ",
"            X % 9 s D D D D D D D G 3.9.9.3.B 9 * X             ",
"            X % q D D D D D G H H <.3.9.9.3.,.q 1 X             ",
"            X % q D D D d G 2.9.9.3.1.H H H D q @ X             ",
"            X % q d d D G <.4.9.9.3.G D D D D q % X             ",
"            X % q f d F 2.4.<.H H F D d D D D q % X             ",
"            X 4 A W 8.6.7.2.F f D D D D D D D q * X             ",
"            . e *.Z.Z.g.6.F f B D D D D D D D q 1 X             ",
"            . h x.J.S.d.S w d D D w d V D D D q @ X             ",
"            . h x.S.{ z 7 9 s D D d d d D D D q 1 X             ",
"            X h v.v.c 4 z x V B U W W U G D D q @ X             ",
"            . h v.v.h e +.&.x x d.C.Z.f.U d d q * X             ",
"            . r =.=.e t c.A.P x z.F.J.Z.6.d D q 1 X             ",
"            . , .. .; r b.C.Y L ..B.F.N.6.f f q 1 .             ",
"            X ; m ~ k R A.C.6.K O.-.n.d.S 9 q 9 + .             ",
"                = k +.N.F.C.6.U c.n.0.L 5 + % + X .             ",
"                = v ;.D.M.&.Y ] c.m.q.3.x j r h h t             ",
"            X : m ` -...v k ) .. .w.l.I.m.c.b.b.x.+.e .         ",
"            X > ^ X.` n z P #.$._ [ h.G.V.A.F.K.K.x.t .         ",
"            X ; ^ ` < c s.k.Y.G.O.~ I P z R N.K.K.x.h .         ",
"            X ; n m = l k.R.R.Y.@.! i < o > } v.v.+.r .         ",
"                : & X l k.R.R.Y.@.! ! i $ O 7 t h t             ",
"                : : : Z j.U.T.k.0.] I P 7 6 * * X .             ",
"            . ; n / ^ | i.p.a.p.u.t.7.T J C i u $ .             ",
"            X - b _ X.#.i.t.r.e.e.4.g J K E [ i - X             ",
"            X % = k ` %.$.] p 3 3 3 2 7 M ' ( M - X             ",
"            X X . ; m ^ ^ n : . . . . & u b i i - X             ",
"                    ; ; ; :             - - - -                 ",
"                    . . X .             X X . X                 ",
"                                                                ",
"                                                                "
};
