/* XPM */
static char *J_resized[] = {
/* columns rows colors chars-per-pixel */
"32 34 165 2 ",
"   c None",
".  c #071028",
"X  c #0D132A",
"o  c #12162C",
"O  c #14182E",
"+  c #1B1E33",
"@  c #171D37",
"#  c #291F34",
"$  c #1E233E",
"%  c #222034",
"&  c #2E2236",
"*  c #322537",
"=  c #392636",
"-  c #332638",
";  c #3C2B3A",
":  c #3B2937",
">  c #3B333F",
",  c #402E3B",
"<  c #43323F",
"1  c #54323F",
"2  c #1C2D45",
"3  c #1C334A",
"4  c #2A2A41",
"5  c #282E4C",
"6  c #312D43",
"7  c #3F3846",
"8  c #32364E",
"9  c #34354A",
"0  c #2D3456",
"q  c #273B51",
"w  c #353D62",
"e  c #363F68",
"r  c #403642",
"t  c #453B46",
"y  c #493E47",
"u  c #493F48",
"i  c #4C3644",
"p  c #5C3442",
"a  c #5E3B4B",
"s  c #603947",
"d  c #613742",
"f  c #723E4B",
"g  c #3F4858",
"h  c #3A4458",
"j  c #384265",
"k  c #3A436B",
"l  c #3D4772",
"z  c #3F4873",
"x  c #3C607A",
"c  c #4D424A",
"v  c #5D444C",
"b  c #4B4453",
"n  c #474A5C",
"m  c #424052",
"M  c #544B5E",
"N  c #564A59",
"B  c #60404F",
"V  c #75444D",
"C  c #7C424D",
"Z  c #7B494C",
"A  c #604052",
"S  c #634B51",
"D  c #69525E",
"F  c #79605E",
"G  c #454B64",
"H  c #40476E",
"J  c #42496E",
"K  c #434464",
"L  c #594C67",
"P  c #59546C",
"I  c #414A74",
"U  c #464F79",
"Y  c #47507A",
"T  c #49527C",
"R  c #4B5076",
"E  c #5D5877",
"W  c #625664",
"Q  c #655D66",
"!  c #68596E",
"~  c #635F7B",
"^  c #735E71",
"/  c #7D6461",
"(  c #6A647B",
")  c #70687F",
"_  c #7F6476",
"`  c #834E53",
"'  c #89565C",
"]  c #9A5856",
"[  c #985B61",
"{  c #846A6E",
"}  c #9F6260",
"|  c #966162",
" . c #8D716F",
".. c #9B796F",
"X. c #9F7D72",
"o. c #A36464",
"O. c #A86A68",
"+. c #A86F70",
"@. c #A26972",
"#. c #A37E74",
"$. c #A6727B",
"%. c #A87675",
"&. c #BE7A78",
"*. c #A8847D",
"=. c #A6847A",
"-. c #BE8B7B",
";. c #BB877A",
":. c #D38B7A",
">. c #E2947D",
",. c #3C758C",
"<. c #4C5580",
"1. c #4F5882",
"2. c #525A83",
"3. c #575F8A",
"4. c #585F89",
"5. c #57608A",
"6. c #5B628B",
"7. c #5F7C89",
"8. c #6D6883",
"9. c #65688E",
"0. c #716980",
"q. c #616892",
"w. c #657990",
"e. c #917884",
"r. c #48879A",
"t. c #578C9F",
"y. c #5F93A2",
"u. c #6FA3B6",
"i. c #73B9CB",
"p. c #848897",
"a. c #AA8984",
"s. c #AE8F8E",
"d. c #B59492",
"f. c #9A97A2",
"g. c #999DB0",
"h. c #91A5B3",
"j. c #A4A2B3",
"k. c #B3B4BF",
"l. c #C08D80",
"z. c #C09086",
"x. c #C69985",
"c. c #C99B86",
"v. c #C6958A",
"b. c #CC9D88",
"n. c #D39F8C",
"m. c #CFA08C",
"M. c #D6A08F",
"N. c #DAA78E",
"B. c #D6A897",
"V. c #D6A998",
"C. c #D9AB99",
"Z. c #D6A793",
"A. c #E3A790",
"S. c #E2AD93",
"D. c #FEBB9A",
"F. c #C8A8AD",
"G. c #FEC19F",
"H. c #FFC4A0",
"J. c #FFCDA8",
"K. c #B5B7C2",
"L. c #D1BFC8",
"P. c #CFC0C8",
"I. c #D2C4C9",
"U. c #C0D9E4",
"Y. c #EAEBF2",
/* pixels */
"                                                                ",
"                                                                ",
"                    O O o o O O o O o o o o                     ",
"                    2 % $ $ $ $ $ $ $ $ $ $                     ",
"                X $ 0 w w w w w w w w w w 0 $ o                 ",
"                $ 5 w I I I I I I I T 1.T H 5 $                 ",
"            o $ 0 k k I I I z z I U 5.q.q.3.H 0 $ o             ",
"            o $ w U I I I I T T T 2.5.q.q.6.T w $ o             ",
"            o $ w I I z z U 4.q.q.4.1.Y T T U w $ o             ",
"            o $ w z z I Y 1.6.q.q.4.Y I I l I w $ o             ",
"            o $ w l l U 3.6.2.T T Y I l l I I w $ O             ",
"            o 4 P 0.0.8.9.3.U z I I I I I I I w % O             ",
"            X t X.C.C.d.0.Y I I I I I H I I I w 2 O             ",
"            X c v.H.S.a.P k k I l l l l I I I w @ o             ",
"            X c c.C. .N 8 0 k I l l l l l I U w 4 o             ",
"            X c c.m.N 4 b L K J ~ ) ) ~ R I I w @ o             ",
"            X c c.c.c 7 =.*.N L a.V.V.s.~ z z w 2 o             ",
"            X y -.-.t t x.M.W N l.D.H.B.) l z w @ o             ",
"            X r O.o.; c c.Z.~ L O.>.D.B.8.l z w 4 o             ",
"            o ; Z Z v / N.V.8.P +.:.n.s.~ l I w $ o             ",
"                - v =.N.G.B.8.~ v.M.e.~ R l I e $ o             ",
"                . c =.m.c.*.^ _ v.z.! J 9.6.k 0 $ o             ",
"                    c c y v ' o.O.[ a ! j.g.K O o O             ",
"                    X O 8 Q %.&.o.f s D f.f.Q > + o             ",
"                O o X 9 p.K.I.F.@.C d i h Q *...r o             ",
"                o o X n k.Y.Y.P.$.C 1 ; < / N.b.c X             ",
"                O o X n k.Y.Y.P.$.f = t ..N.D.c.c X             ",
"                O o X h h.U.U.K.e.A % c c.J.J.x.c X             ",
"                    X q t.i.i.u.w.G 2 y x.J.J.x.c X             ",
"                    ; b 7.y.r.,.x h 6 B ;.A.M.X.t X             ",
"                X ; Z } %.{ m 3 2 6 s ` o.| S t                 ",
"                o - V ] ] Z = X X * s V f p & .                 ",
"                O + - ; , :         * * * &                     ",
"                O O O X o X         o o o X                     "
};
