/* XPM */
static char *K_resized[] = {
/* columns rows colors chars-per-pixel */
"32 34 155 2 ",
"   c None",
".  c #0A1027",
"X  c #071029",
"o  c #0D132A",
"O  c #12162C",
"+  c #1E233E",
"@  c #2F2235",
"#  c #25293F",
"$  c #2E263A",
"%  c #392837",
"&  c #332538",
"*  c #362C3B",
"=  c #3A2B3B",
"-  c #342636",
";  c #3F343F",
":  c #43323F",
">  c #272840",
",  c #2A2A41",
"<  c #292F4D",
"1  c #272D4B",
"2  c #27354A",
"3  c #29394D",
"4  c #2A334A",
"5  c #3D3343",
"6  c #3F3846",
"7  c #36344D",
"8  c #3E3D4C",
"9  c #2D3456",
"0  c #3E3E51",
"q  c #323A5F",
"w  c #343C62",
"e  c #363F68",
"r  c #4F3442",
"t  c #453B45",
"y  c #4A3E47",
"u  c #473E48",
"i  c #5F3E46",
"p  c #733F4C",
"a  c #3E4357",
"s  c #384067",
"d  c #3A436B",
"f  c #3C4672",
"g  c #3F4873",
"h  c #4E424B",
"j  c #5C444B",
"k  c #484555",
"l  c #504657",
"z  c #584B57",
"x  c #544B5E",
"c  c #594C5E",
"v  c #79484C",
"b  c #74404D",
"n  c #68495A",
"m  c #654454",
"M  c #705255",
"N  c #7B615F",
"B  c #40476E",
"V  c #43496E",
"C  c #464964",
"Z  c #584C68",
"A  c #465167",
"S  c #57526A",
"D  c #5B566E",
"F  c #414A74",
"G  c #464F79",
"H  c #465772",
"J  c #4B5076",
"K  c #47507A",
"L  c #49527C",
"P  c #545D77",
"I  c #684F68",
"U  c #625966",
"Y  c #7D5F64",
"T  c #635F7B",
"R  c #4A637D",
"E  c #776567",
"W  c #686177",
"Q  c #6E667E",
"!  c #70687F",
"~  c #824F51",
"^  c #814F58",
"/  c #86535B",
"(  c #955453",
")  c #9E635D",
"_  c #81656A",
"`  c #9B6B6E",
"'  c #8D716F",
"]  c #89707F",
"[  c #A36761",
"{  c #AD6A62",
"}  c #AA6F6E",
"|  c #A56962",
" . c #B17067",
".. c #A37E73",
"X. c #A67A79",
"o. c #BD7E78",
"O. c #C76B61",
"+. c #A1817B",
"@. c #A8847D",
"#. c #A48175",
"$. c #B98777",
"%. c #BE8B7B",
"&. c #4C5580",
"*. c #4F5882",
"=. c #525A83",
"-. c #575F8A",
";. c #585F89",
":. c #4C6A81",
">. c #57608A",
",. c #5A628B",
"<. c #596C84",
"1. c #527585",
"2. c #6D6884",
"3. c #62688D",
"4. c #716A82",
"5. c #7E7A8F",
"6. c #616892",
"7. c #6E7191",
"8. c #647D97",
"9. c #5D8695",
"0. c #6997A4",
"q. c #6998A6",
"w. c #7AB1B8",
"e. c #AA8984",
"r. c #AE8F8B",
"t. c #A4958C",
"y. c #B59492",
"u. c #959EAD",
"i. c #AB9CA5",
"p. c #9BA4B8",
"a. c #A0A1AF",
"s. c #C28F82",
"d. c #C69985",
"f. c #C99B86",
"g. c #CB9D88",
"h. c #C49784",
"j. c #DB9782",
"k. c #E79780",
"l. c #CFA08C",
"z. c #D9A68D",
"x. c #D4A591",
"c. c #D5A897",
"v. c #D7A998",
"b. c #DAAB99",
"n. c #DDAB91",
"m. c #E3AE94",
"M. c #ECAD93",
"N. c #FCBC9C",
"B. c #D3B1A9",
"V. c #CABBBA",
"C. c #DAC2AC",
"Z. c #FFC4A1",
"A. c #FFCBA6",
"S. c #F5C5AC",
"D. c #C9BFC7",
/* pixels */
"                                                                ",
"                                                                ",
"                                                                ",
"                                                                ",
"                                                                ",
"                                                                ",
"                    O O O O O O O O O O O O                     ",
"                    + # + + + # + + + + # +                     ",
"                O + 9 w w w w w w w w w w 9 + O                 ",
"                + 1 s F F F F F F G L L &.d 1 +                 ",
"            O + 9 s g F F F F F F K >.6.6.;.B 9 + O             ",
"            O + w F F F F F G L L *.,.6.6.>.L w + O             ",
"            O + w F F g g K ;.6.6.,.*.L L L G w + O             ",
"            O + w F g g K *.,.6.6.;.K B g F F w + O             ",
"            O + w f f G -.,.=.L L K F F g F F w # O             ",
"            O , S ! 4.2.3.>.G g B B F F g F F w + O             ",
"            o t +.b.b.y.2.G F B F g F g F F F w + O             ",
"            o h f.N.M.e.D e g F g g g g F F F w # O             ",
"            o h f.m.' l 7 9 d F f f f f F F F w + O             ",
"            o h g.g.z , k x C V T 4.4.T K g F w + O             ",
"            o h g.g.k t ..@.x x e.c.v.r.T g g w + O             ",
"            o y %.%.t y f.x.S c s.N.Z.v.Q f g w + O             ",
"            O : | [ % y f.c.W Z } k.N.v.Q f g w # O             ",
"            o % v ~ j E n.b.] I ^ ) $.r.5.>.L w + O             ",
"                - j #.n.N.M.o./ r * 6 U a.p.,.q + O             ",
"                X t #.z.M.j.{ ~ j t t E V.D.7.q + O             ",
"                    t M  .{ i j ..h.h.x.S.B.2.w + O             ",
"                    X 5 ` ` * u d.A.A.N.n.+.S 9 + o             ",
"                    . k i.i.0 h d.A.A.z.N 6 > +                 ",
"                    o a u.p.A k t.C.C.t.6 . o O                 ",
"                    o 2 <.8.R :.0.w.w.9.3 o                     ",
"                    O # C P H R 9.0.0.1.2 O                     ",
"                    O $ m n 7 8 E X.X._ * O                     ",
"                    O & b p @ % ( O.O.( = o                     "
};
