/* XPM */
static char *L_resized[] = {
/* columns rows colors chars-per-pixel */
"32 34 152 2 ",
"   c None",
".  c #0E142B",
"X  c #12162C",
"o  c #14182E",
"O  c #1B1B30",
"+  c #141B32",
"@  c #2A1F33",
"#  c #221D31",
"$  c #1E233E",
"%  c #212134",
"&  c #2B2235",
"*  c #312536",
"=  c #382737",
"-  c #312539",
";  c #3B2B3A",
":  c #442C3D",
">  c #4A2E3D",
",  c #48303D",
"<  c #42323F",
"1  c #1D2A43",
"2  c #1C344B",
"3  c #1E3A50",
"4  c #212C44",
"5  c #2A2A41",
"6  c #252C4B",
"7  c #2A2F4B",
"8  c #362E46",
"9  c #223047",
"0  c #23374D",
"q  c #363146",
"w  c #3C3542",
"e  c #3F3846",
"r  c #35344F",
"t  c #2E3456",
"y  c #203B50",
"u  c #2B3955",
"i  c #353D62",
"p  c #363F68",
"a  c #443945",
"s  c #4A3E47",
"d  c #443242",
"f  c #5D3746",
"g  c #513343",
"h  c #643B49",
"j  c #613944",
"k  c #344263",
"l  c #3A4167",
"z  c #3B4667",
"x  c #3D4772",
"c  c #3F4873",
"v  c #3E5571",
"b  c #3D5F7A",
"n  c #4E424A",
"m  c #50444F",
"M  c #4A4453",
"N  c #424858",
"B  c #514557",
"V  c #574A56",
"C  c #594953",
"Z  c #544B5E",
"A  c #57495B",
"S  c #66434D",
"D  c #74434D",
"F  c #7A494D",
"G  c #674357",
"H  c #7D4A5B",
"J  c #675457",
"K  c #6B5758",
"L  c #77605E",
"P  c #40476E",
"I  c #43496E",
"U  c #4A4566",
"Y  c #534D60",
"T  c #5D5060",
"R  c #57526A",
"E  c #5A556E",
"W  c #414A74",
"Q  c #464F79",
"!  c #405773",
"~  c #4B5076",
"^  c #47507A",
"/  c #49527C",
"(  c #6B5661",
")  c #665966",
"_  c #725560",
"`  c #635F7B",
"'  c #40617B",
"]  c #70687F",
"[  c #8F535D",
"{  c #965756",
"}  c #9B5856",
"|  c #A25A57",
" . c #9B605F",
".. c #805C66",
"X. c #8F6769",
"o. c #91636E",
"O. c #8D716F",
"+. c #97776E",
"@. c #99786F",
"#. c #8F767A",
"$. c #9A7970",
"%. c #A46862",
"&. c #A66B68",
"*. c #A06A73",
"=. c #A17872",
"-. c #C96E64",
";. c #CA7066",
":. c #A88376",
">. c #A2827A",
",. c #A9857A",
"<. c #BE8B7B",
"1. c #C08D7E",
"2. c #D58B7B",
"3. c #E2947E",
"4. c #3E788F",
"5. c #4C5580",
"6. c #4F5882",
"7. c #525A83",
"8. c #575F8A",
"9. c #585F89",
"0. c #57608A",
"q. c #5A628C",
"w. c #41798F",
"e. c #5F7E8B",
"r. c #6D6884",
"t. c #65688E",
"y. c #716980",
"u. c #647F8C",
"i. c #616892",
"p. c #3E859A",
"a. c #45889C",
"s. c #AA8985",
"d. c #AE8F8D",
"f. c #B59492",
"g. c #B29EA8",
"h. c #B7A2AB",
"j. c #C79884",
"k. c #CA9B86",
"l. c #CD9E89",
"z. c #D59E8B",
"x. c #CFA08C",
"c. c #D9A48E",
"v. c #C8A396",
"b. c #D6A691",
"n. c #D7A998",
"m. c #D9AB99",
"M. c #D9A995",
"N. c #E3AE94",
"B. c #FDBA9A",
"V. c #C4B4B6",
"C. c #FFC4A1",
"Z. c #FFCEA9",
/* pixels */
"                    X X X X + o o X X X o X                     ",
"                    $ $ 1 % O 4 $ $ $ $ $ $                     ",
"                X $ t i i i i i i i i i i t $ o                 ",
"                $ 6 p Q W W W W W W / 5.5.P 6 O                 ",
"            X $ t l c W W W W W W ^ 9.i.i.9.P t $ X             ",
"            X $ i W W c W W ^ / / 6.9.i.i.9./ i 4 X             ",
"            X % i W W P P ^ 0.i.i.9.7./ / / Q i O +             ",
"            X 1 i c c W ^ 6.q.i.i.8.^ W W W W i 4 X             ",
"            X $ i x x Q 9.q.7./ / / W x W W W i O +             ",
"            X 5 R y.y.r.i.8.^ x W P W W W W W i $ o             ",
"            . a =.m.m.f.r.Q W c x W W W W W W i $ o             ",
"            . n k.C.N.s.E p x c x x x c P W W i $ o             ",
"            . s k.m.O.B r t z c x x x x P W W i 4 X             ",
"            . m l.x.V 5 M Z U I ` y.y.` ^ W W i $ X             ",
"            . n l.l.n e =.,.Z Z s.n.n.d.` c c i $ X             ",
"            . s <.<.a n x.b.) V j.B.C.n.r.c c p % X             ",
"            o < %.%.; n x.M.) V %.z.B.c.y.x W i O +             ",
"            X ; F F * w >.,.Y N &.2.z.s.E p x i $ o             ",
"                ; * + % ; w % n j.c.#.Y 7 6 p i $ X             ",
"                . . . % w s n K =.=.T 8 - 8 l p 4 X             ",
"                    + w >.1.1.:.K a d g h G U p 4 X             ",
"                    . n x.Z.Z.N._ s ( ..[ [ U t O X             ",
"                    . n 1.Z.Z.C.N.v.V.g.*.h d $                 ",
"                    . w >.1.x.j.l.v.V.g.o.f @ .                 ",
"                . o o $ ; n n n s C K _ S , # .                 ",
"                - & O + $ $ $ $ 2 u N C S j , =                 ",
"            o * h f % $ k ! v ' w.a.a.u.X.| } F 8 X             ",
"            o & f h : q z ! v ' w.p.p.u.=.-.-.{ ; X             ",
"            o $ & : h h q 4 4 4 0 0 3 M o.-.-.{ ; X             ",
"            X X . - h f & X X X X . . = F { } F ; .             ",
"                    - & O X             ; ; ; ;                 ",
"                    . X o o             . o . .                 ",
"                                                                ",
"                                                                "
};
