/* XPM */
static char *M_resized[] = {
/* columns rows colors chars-per-pixel */
"32 34 159 2 ",
"   c None",
".  c #071029",
"X  c #0D132A",
"o  c #12162C",
"O  c #181E35",
"+  c #321F33",
"@  c #1E233E",
"#  c #2F2337",
"$  c #20263E",
"%  c #292439",
"&  c #322436",
"*  c #312538",
"=  c #3B2B3A",
"-  c #4D2C3A",
";  c #41313E",
":  c #292A41",
">  c #292F4D",
",  c #252D48",
"<  c #283349",
"1  c #3F3745",
"2  c #3F3846",
"3  c #32354D",
"4  c #39364B",
"5  c #2D3456",
"6  c #323A5F",
"7  c #353C52",
"8  c #343C62",
"9  c #363F68",
"0  c #453B45",
"q  c #493D47",
"w  c #4A3F49",
"e  c #5E3846",
"r  c #6B3846",
"t  c #723E4B",
"y  c #3C4256",
"u  c #384067",
"i  c #3A436B",
"p  c #3D4772",
"a  c #3F4873",
"s  c #4E424B",
"d  c #5D454C",
"f  c #494759",
"g  c #524653",
"h  c #544B5E",
"j  c #594B5A",
"k  c #79484C",
"l  c #72414D",
"z  c #614252",
"x  c #7E4F5D",
"c  c #784653",
"v  c #6A5657",
"b  c #40476E",
"n  c #44496E",
"m  c #454865",
"M  c #594C67",
"N  c #54526A",
"B  c #5A556D",
"V  c #414A74",
"C  c #464F79",
"Z  c #47507A",
"A  c #49527C",
"S  c #4B5076",
"D  c #5D5877",
"F  c #635664",
"G  c #6B5760",
"H  c #66586B",
"J  c #685D66",
"K  c #6A5A70",
"L  c #635F7B",
"P  c #735E71",
"I  c #7D6461",
"U  c #6A647B",
"Y  c #70687F",
"T  c #7E6476",
"R  c #814F51",
"E  c #964F58",
"W  c #89565C",
"Q  c #915353",
"!  c #975059",
"~  c #915C5E",
"^  c #985B61",
"/  c #9E6560",
"(  c #8D716F",
")  c #A46563",
"_  c #A86A68",
"`  c #A86F70",
"'  c #A26972",
"]  c #A37E74",
"[  c #AC7B7D",
"{  c #C16A62",
"}  c #C07C7A",
"|  c #AA8476",
" . c #A4837C",
".. c #A8847D",
"X. c #A58175",
"o. c #B78678",
"O. c #B98778",
"+. c #BE8B7B",
"@. c #D48373",
"#. c #D38B7A",
"$. c #E2947D",
"%. c #4C5580",
"&. c #4F5882",
"*. c #525A83",
"=. c #575F8A",
"-. c #585F89",
";. c #57608A",
":. c #5A628C",
">. c #596884",
",. c #6D6883",
"<. c #62688D",
"1. c #716980",
"2. c #736E88",
"3. c #6B7081",
"4. c #616892",
"5. c #6E7291",
"6. c #917A85",
"7. c #828695",
"8. c #AA8984",
"9. c #AE8F8E",
"0. c #BC8E81",
"q. c #B59492",
"w. c #939BAB",
"e. c #9F9EB0",
"r. c #9EA4BC",
"t. c #AEA0A9",
"y. c #B2B4BF",
"u. c #C08D80",
"i. c #C09086",
"p. c #C69985",
"a. c #C99B86",
"s. c #C6958A",
"d. c #CC9E88",
"f. c #D49F8C",
"g. c #CFA08C",
"h. c #D6A08F",
"j. c #DBA88F",
"k. c #CCA697",
"l. c #D6A897",
"z. c #D3A798",
"x. c #D6A998",
"c. c #D9AB99",
"v. c #D4A491",
"b. c #E2A68F",
"n. c #E2AD93",
"m. c #F7B195",
"M. c #FFB998",
"N. c #D7B4AB",
"B. c #CCABB0",
"V. c #C7B6B6",
"C. c #FEC19F",
"Z. c #FFC4A0",
"A. c #FFCDA9",
"S. c #B8B7C2",
"D. c #BFC4CF",
"F. c #C9C0C7",
"G. c #C1C4CE",
"H. c #D5C7CC",
"J. c #DEE0E8",
/* pixels */
"                                                                ",
"                                                                ",
"                                                                ",
"                                                                ",
"                    o X o o o o o o o o o o                     ",
"                    $ : $ @ @ @ @ @ @ @ @ @                     ",
"                o O 5 8 8 8 8 8 8 8 8 8 8 5 @ o                 ",
"                @ > u V V V V V V C A A %.b > @                 ",
"            o @ 5 u a V V V V V V A :.4.4.-.b 5 @ o             ",
"            o @ u V V V V V Z A A *.:.4.4.-.A 8 @ o             ",
"            o @ 8 V V a V C -.4.4.-.A A A A C 8 @ o             ",
"            o @ 8 a a V Z &.:.4.4.-.Z p p V V 8 @ o             ",
"            o @ 8 p p C =.:.&.A A Z V V V V V 8 @ o             ",
"            X : N ,.1.1.4.=.C p V V b V V V V 8 $ o             ",
"            X 0  .c.c.q.,.C V V p V V V V V V 8 @ o             ",
"            X s p.Z.n.8.B 9 p V p p p p V V V 8 @ o             ",
"            X s s.n.( f 3 5 9 V p p p p a V V 8 @ o             ",
"            X s a.f.j : w j m b L Y Y L Z p a 8 @ o             ",
"            X s d.d.w 0 ] 8.M h 8.c.l.9.U p V 8 : o             ",
"            X 0 +.+.0 w a.h.F j u.M.Z.l.Y a a 8 @ X             ",
"            X 0 ) ) = q p.c.U M ` $.M.c.1.p a 8 @ o             ",
"            o = k R d I j.x.Y B ` #.f.9.D p b u @ o             ",
"                & d X.j.C.z.,.,.s.f.6.L C V V 6 @ o             ",
"                . 0 X.h.p. .K T s.i.K n :.:.A 6 @ o             ",
"                    s s 0 d W / _ ^ e H e.r.:.6 @ o             ",
"                    X @ < F [ @.^ t 0 v V.F.5.6 @ o             ",
"                    X 7 7.y.H.B.' r & g k.N.2.8 @ o             ",
"                    X f y.J.G.t.[ ^ d v | ..B 5 @ o             ",
"                    X f y.G.3.J u.b.f.X.v 0 : @                 ",
"                    X y w.w.y ; s.A.A.a.w . . o                 ",
"                    X < >.>., q p.A.A.p.w .                     ",
"                    & 1 N m $ 0 o.m.m.o.q X                     ",
"                o # e c x d % 1 ^ @.@./ ; X                     ",
"                o * l ! E t # = Q { { Q = o                     "
};
