/* XPM */
static char *N_resized[] = {
/* columns rows colors chars-per-pixel */
"32 34 156 2 ",
"   c None",
".  c #071029",
"X  c #0D132A",
"o  c #12162C",
"O  c #191F35",
"+  c #171E3B",
"@  c #211A2F",
"#  c #251D32",
"$  c #1F2134",
"%  c #1E233E",
"&  c #2D2235",
"*  c #392837",
"=  c #3B2B3A",
"-  c #35293A",
";  c #43323F",
":  c #2A2A41",
">  c #292F4D",
",  c #272D4B",
"<  c #332F45",
"1  c #283549",
"2  c #3D3544",
"3  c #3F3846",
"4  c #33364E",
"5  c #393B4E",
"6  c #2E3456",
"7  c #2C3A58",
"8  c #353C62",
"9  c #363F68",
"0  c #463C46",
"q  c #493E47",
"w  c #5A3646",
"e  c #6A3A45",
"r  c #3C4558",
"t  c #384365",
"y  c #3A436B",
"u  c #3D4772",
"i  c #3F4873",
"p  c #4D414A",
"a  c #5D434D",
"s  c #4C4251",
"d  c #504657",
"f  c #584B57",
"g  c #544A5D",
"h  c #574A59",
"j  c #76424E",
"k  c #79484C",
"l  c #744652",
"z  c #7C4D5C",
"x  c #40476E",
"c  c #44496E",
"v  c #434464",
"b  c #594C67",
"n  c #55526A",
"m  c #5B566E",
"M  c #414A74",
"N  c #464F79",
"B  c #47507A",
"V  c #49527C",
"C  c #4B5076",
"Z  c #5D5877",
"A  c #635664",
"S  c #685A6F",
"D  c #65586B",
"F  c #765862",
"G  c #7D5F64",
"H  c #635F7B",
"J  c #645B70",
"K  c #735E71",
"L  c #47657D",
"P  c #67616B",
"I  c #7D6461",
"U  c #6A657F",
"Y  c #6B6277",
"T  c #70687F",
"R  c #7F6476",
"E  c #81434E",
"W  c #864650",
"Q  c #814F51",
"!  c #8B4751",
"~  c #89565C",
"^  c #955453",
"/  c #9F5A61",
"(  c #925C60",
")  c #816469",
"_  c #8D716F",
"`  c #99786F",
"'  c #A46563",
"]  c #A86A68",
"[  c #A86F70",
"{  c #A26971",
"}  c #A27E73",
"|  c #A67A78",
" . c #AB7A7A",
".. c #BF7B79",
"X. c #C76B61",
"o. c #A8847D",
"O. c #A38179",
"+. c #BE8B7B",
"@. c #D38B7A",
"#. c #E2947D",
"$. c #4C5580",
"%. c #4F5882",
"&. c #525A83",
"*. c #575F8A",
"=. c #585F89",
"-. c #5E6487",
";. c #57608A",
":. c #5A628C",
">. c #527584",
",. c #6D6883",
"<. c #63688D",
"1. c #716980",
"2. c #616892",
"3. c #637990",
"4. c #8E7482",
"5. c #917A85",
"6. c #807B91",
"7. c #5D8596",
"8. c #5A8FA1",
"9. c #6A97A4",
"0. c #6A98A5",
"q. c #6CA3B6",
"w. c #73BBCC",
"e. c #858796",
"r. c #AA8984",
"t. c #AE8F8C",
"y. c #B59492",
"u. c #A097A2",
"i. c #94A7B5",
"p. c #A3A3B2",
"a. c #A1A7BE",
"s. c #C08D80",
"d. c #C09086",
"f. c #CA9B86",
"g. c #C6958A",
"h. c #CC9E89",
"j. c #D59F8E",
"k. c #CFA08C",
"l. c #D6A08F",
"z. c #DBA88F",
"x. c #D4A592",
"c. c #D6A897",
"v. c #D3A798",
"b. c #D6A998",
"n. c #D9AB99",
"m. c #E2AD93",
"M. c #FFB998",
"N. c #CBA8AD",
"B. c #FEC19F",
"V. c #FFC4A0",
"C. c #FFCFA9",
"Z. c #ADB6C3",
"A. c #BEBAC3",
"S. c #D5C5CA",
"D. c #C0DBE7",
"F. c #C3DDE8",
/* pixels */
"                                                                ",
"                                                                ",
"                                                                ",
"                                                                ",
"                                                                ",
"                                                                ",
"                    o o o o X o o o o o o o                     ",
"                    % % % % % & % , % % % %                     ",
"                o % 6 8 8 8 8 8 8 8 8 8 8 6 % X                 ",
"                % , t M M M M M M M V V V x , %                 ",
"            o % 6 t u M M M M M M B :.2.2.;.M 6 % o             ",
"            o % 8 M M M M M B V V %.:.2.<.:.V 8 % o             ",
"            o % 8 M M u u V =.2.2.:.%.V V V N 8 % o             ",
"            o % 8 i i i N %.:.2.2.=.B u i M i 8 % o             ",
"            o % 8 u u N *.:.&.V B N M M i M i 8 % o             ",
"            o : n 1.1.,.2.*.V u M M M M i i i 8 : o             ",
"            X 0 O.n.n.y.,.N M u M M M x M M M 8 % o             ",
"            X p f.V.m.r.m t u M u u u u M M M 8 % o             ",
"            X p f.m._ d 4 6 t M u u u u u M N 8 & o             ",
"            X p f.h.h : s g v c H T T H B i i 8 % o             ",
"            X p h.h.s 3 O.O.g b r.n.n.t.Y u i 8 % o             ",
"            X p +.+.0 q f.x.A h t.M.B.n.,.u i 8 % o             ",
"            X ; ' ' = 0 f.v.Y b ] #.M.n.T i i 8 % O             ",
"            o = k Q a I z.v.,.m [ @.j.t.Z u i 8 % o             ",
"                - a O.m.B.x.T Y g.x.5.H C u i 8 % o             ",
"                . 0 O.h.f.o.Y R g.d.S M -.:.$.8 % X             ",
"                    p p q a ~ { ] ( w S p.a.-.7 % X             ",
"                    . $ 4 A  .X./ E e F u.p.6.J d 0             ",
"                    X 5 e.A.S.N.{ ! W l d P t.x.h.} 0 X         ",
"                    X r i.D.D.Z.4.Q l w # q f.C.C.f.p X         ",
"                    . r 8.w.w.q.3.n 2 @ o q f.C.C.f.p X         ",
"                    X 1 >.0.0.7.%.y < # o 3 ` f.f.} 0 X         ",
"                    X < G | | ) 0 4 w w & $ 2 p p 0             ",
"                    o = ^ X.X.^ * & j j - X X X X X             "
};
