/* XPM */
static char *P_resized[] = {
/* columns rows colors chars-per-pixel */
"32 32 176 2 ",
"   c None",
".  c #050D27",
"X  c #091028",
"o  c #0A1028",
"O  c #0B1028",
"+  c #0D1229",
"@  c #0C132A",
"#  c #0D132A",
"$  c #0F142A",
"%  c #0E142B",
"&  c #0E152C",
"*  c #0F152C",
"=  c #101428",
"-  c #11152B",
";  c #12162B",
":  c #12162C",
">  c #13162C",
",  c #13172C",
"<  c #11182F",
"1  c #19192E",
"2  c #121930",
"3  c #141B34",
"4  c #161D39",
"5  c #1F2134",
"6  c #1C213B",
"7  c #1A213C",
"8  c #1B233C",
"9  c #1C223D",
"0  c #1D223D",
"q  c #1E233E",
"w  c #1C253C",
"e  c #1E243E",
"r  c #312435",
"t  c #322637",
"y  c #392736",
"u  c #3A2938",
"i  c #3B2B3A",
"p  c #3E2C3A",
"a  c #3E2C3B",
"s  c #3F2F3C",
"d  c #1D384E",
"f  c #212640",
"g  c #262B45",
"h  c #262B46",
"j  c #212D46",
"k  c #272C46",
"l  c #272F4A",
"z  c #26304C",
"x  c #29324D",
"c  c #3D3643",
"v  c #3E3743",
"b  c #34384B",
"n  c #2B3551",
"m  c #2E3452",
"M  c #2E3557",
"N  c #2E3855",
"B  c #2F3759",
"V  c #303A56",
"C  c #353E5E",
"Z  c #333B60",
"A  c #333D60",
"S  c #343C61",
"D  c #353D62",
"F  c #363D63",
"G  c #453543",
"H  c #433A45",
"J  c #463C46",
"K  c #473D47",
"L  c #473E47",
"P  c #493C46",
"I  c #493E46",
"U  c #463F4B",
"Y  c #4B3B4B",
"T  c #493F48",
"R  c #4A3F48",
"E  c #3A4269",
"W  c #39436A",
"Q  c #3B446A",
"!  c #3C4469",
"~  c #3D456C",
"^  c #3D466D",
"/  c #3D476E",
"(  c #3A486B",
")  c #3B4F6E",
"_  c #3B4672",
"`  c #3D4772",
"'  c #3D4773",
"]  c #3F4871",
"[  c #3F4872",
"{  c #3E4873",
"}  c #3F4973",
"|  c #4C414A",
" . c #4D414A",
".. c #4F424A",
"X. c #4E424B",
"o. c #424657",
"O. c #4A4354",
"+. c #544F5B",
"@. c #5A4E59",
"#. c #76474B",
"$. c #7C494C",
"%. c #7D4B4E",
"&. c #765C5C",
"*. c #434769",
"=. c #444869",
"-. c #474D6F",
";. c #404771",
":. c #404772",
">. c #404872",
",. c #404972",
"<. c #404873",
"1. c #404973",
"2. c #404974",
"3. c #414A74",
"4. c #404A75",
"5. c #414A75",
"6. c #424B75",
"7. c #434C76",
"8. c #434C77",
"9. c #454E77",
"0. c #47507A",
"q. c #43557C",
"w. c #48507A",
"e. c #48517B",
"r. c #49517B",
"t. c #4D5479",
"y. c #48517C",
"u. c #50577D",
"i. c #615B6D",
"p. c #635E78",
"a. c #635E79",
"s. c #995856",
"d. c #9A5957",
"f. c #A05F5D",
"g. c #A0645F",
"h. c #866065",
"j. c #9A7A70",
"k. c #A36762",
"l. c #A86968",
"z. c #A07D73",
"x. c #A07E73",
"c. c #A58174",
"v. c #A58275",
"b. c #A6857A",
"n. c #BD8A7A",
"m. c #D28978",
"M. c #445E83",
"N. c #515984",
"B. c #525A85",
"V. c #456286",
"C. c #496E8D",
"Z. c #58608A",
"A. c #59618B",
"S. c #5C648E",
"D. c #5D6590",
"F. c #4B7E92",
"G. c #746A81",
"H. c #617285",
"J. c #3F8498",
"K. c #4C87A2",
"L. c #4D93AC",
"P. c #A98882",
"I. c #A98883",
"U. c #C69382",
"Y. c #CC9582",
"T. c #CE9683",
"R. c #C99B87",
"E. c #CA9C87",
"W. c #CA9C88",
"Q. c #CB9D88",
"!. c #CD9E88",
"~. c #E59681",
"^. c #DEAE9C",
"/. c #FFBC9C",
"(. c #FFBD9D",
"). c #FFC9A6",
/* pixels */
"                                                                ",
"                                                                ",
"                    > > > > > > > > > > > >                     ",
"                    0 e e e e e e e e e e 0                     ",
"                = 6 M F F D D D D D D F F M 6 =                 ",
"                g m E 5.5.5.5.5.5.5.5.5.5.E m g                 ",
"            - k -.u.9.} 2.3.3.3.3.3.3.2.} 9.u.-.k -             ",
"            ; h t.D.N.0.6.1.1.1.1.1.1.6.0.N.D.t.h ;             ",
"            : f ! B.S.Z.w.[ <.1.1.<.[ w.Z.S.B.! f :             ",
"            , q Z y.A.Z.e.[ <.1.1.<.[ e.Z.A.y.Z q ,             ",
"            , q S 8.r.e.7.1.1.1.1.1.1.7.e.r.8.S q ,             ",
"            $ 9 S 3.1.[ 1.1.1.1.1.1.1.1.[ 1.3.S 9 $             ",
"            + 7 S 5.2.<.1.1.1.1.1.1.1.1.<.2.5.S 7 +             ",
"            I O.*.2.2.1.1.1.1.1.1.1.1.1.1.2.2.*.O.I             ",
"        # R c.P.p.' { 1.1.1.1.1.1.1.1.1.1.{ ' p.P.c.R #         ",
"        # ..!.^.G._ ` 1.1.1.1.1.1.1.1.1.1.` _ G.^.!...#         ",
"        # ..!.^.G._ ` 1.1.1.1.1.1.1.1.1.1.` _ G.^.!...#         ",
"        # R c.I.a.' { 1.1.1.1.1.1.1.1.1.1.{ ' a.I.c.R #         ",
"            I O.=.4.2.1.1.1.1.1.1.1.1.1.1.2.4.=.O.I             ",
"            X 4 B / ,.1.1.1.1.1.1.1.1.1.1.,./ B 4 X             ",
"            o 3 l C ^ 2.1.1.1.1.1.1.1.1.2.^ C l 3 o             ",
"            T U b V Q 3.2.1.1.1.1.1.1.2.3.Q V b U T             ",
"        . J v.b.+.N W 3.2.1.1.1.1.1.1.2.3.W N +.b.v.J .         ",
"        H &.T.U.@.z A ^ ] <.>.>.>.>.<.] ^ A z @.U.T.&.H         ",
"    # L x.Y.m.k.G 8 x C ~ <.:.;.;.:.<.~ C x 8 G k.m.Y.x.L #     ",
"    #  .W.(.~.g.s 2 w n ( q.M.V.V.M.q.( n w 2 s g.~.(.W. .#     ",
"    # | R.)./.n.P % < j ) C.K.L.L.K.C.) j < % P n./.).R.| #     ",
"    # K z.E.Q.j.v 1 r Y i.H.F.J.J.F.H.i.Y r 1 v j.Q.E.z.K #     ",
"        K  .X.c 5 t #.f.l.h.o.d d o.h.l.f.#.t 5 c X. .K         ",
"        # # # @ & i %.d.s.$.y O O y $.s.d.%.i & @ # # #         ",
"                    i a p u         u p a i                     ",
"                    * * * *         * * * *                     "
};
