/* XPM */
static char *S_resized[] = {
/* columns rows colors chars-per-pixel */
"32 32 180 2 ",
"   c None",
".  c #050D27",
"X  c #0B1028",
"o  c #0D1229",
"O  c #0C132A",
"+  c #0D132A",
"@  c #0F142A",
"#  c #0E152C",
"$  c #0F152C",
"%  c #101428",
"&  c #11152B",
"*  c #12162B",
"=  c #12162C",
"-  c #13162C",
";  c #13172C",
":  c #18182D",
">  c #19192E",
",  c #1A1A2F",
"<  c #161B31",
"1  c #171D35",
"2  c #1C1C31",
"3  c #1F2134",
"4  c #1B213B",
"5  c #1B223B",
"6  c #1C213B",
"7  c #1A213C",
"8  c #1C223D",
"9  c #1D223D",
"0  c #1E233E",
"q  c #1E243E",
"w  c #302435",
"e  c #332535",
"r  c #322637",
"t  c #392736",
"y  c #3A2938",
"u  c #3B2B3A",
"i  c #3E2C3A",
"p  c #3E2C3B",
"a  c #3A2B3C",
"s  c #3F2F3D",
"d  c #40303D",
"f  c #45303F",
"g  c #1C384F",
"h  c #212640",
"j  c #262B45",
"k  c #262B46",
"l  c #272C46",
"z  c #2A2B40",
"x  c #2F3245",
"c  c #28304B",
"v  c #28314C",
"b  c #2A324D",
"n  c #3D3643",
"m  c #3E3743",
"M  c #2E3452",
"N  c #2E3557",
"B  c #3A3950",
"V  c #31395A",
"C  c #343E5E",
"Z  c #363F5F",
"A  c #333B60",
"S  c #343C61",
"D  c #353E61",
"F  c #343C62",
"G  c #353D62",
"H  c #363D63",
"J  c #4B3544",
"K  c #433A45",
"L  c #463C47",
"P  c #473D47",
"I  c #473E47",
"U  c #493C46",
"Y  c #4B3D46",
"T  c #493E46",
"R  c #4D3648",
"E  c #443D49",
"W  c #463E49",
"Q  c #4B3A49",
"!  c #493F48",
"~  c #4A3F48",
"^  c #4A3C4B",
"/  c #593C4E",
"(  c #3A4269",
")  c #3C4469",
"_  c #3C466D",
"`  c #3C466E",
"'  c #3D466E",
"]  c #3E476E",
"[  c #3B4672",
"{  c #3D4772",
"}  c #3D4773",
"|  c #3F4872",
" . c #3E4873",
".. c #3F4973",
"X. c #3E4974",
"o. c #3F4974",
"O. c #4C414A",
"+. c #4D414A",
"@. c #4F424A",
"#. c #4E424B",
"$. c #414657",
"%. c #4A4354",
"&. c #41405F",
"*. c #5C4958",
"=. c #76474C",
"-. c #7C494C",
";. c #7D4B4E",
":. c #724557",
">. c #7F4B5C",
",. c #765C5C",
"<. c #494567",
"1. c #404B63",
"2. c #434769",
"3. c #474D6F",
"4. c #50486A",
"5. c #55496B",
"6. c #404972",
"7. c #404973",
"8. c #404974",
"9. c #414A74",
"0. c #404A75",
"q. c #414A75",
"w. c #414B75",
"e. c #424B75",
"r. c #434C76",
"t. c #434C77",
"y. c #454E77",
"u. c #47507A",
"i. c #48507A",
"p. c #48517B",
"a. c #49517B",
"s. c #4D5479",
"d. c #48517C",
"f. c #50577D",
"g. c #615C6E",
"h. c #765C68",
"j. c #635E78",
"k. c #995856",
"l. c #9A5957",
"z. c #A05F5D",
"x. c #856066",
"c. c #846671",
"v. c #9A7A70",
"b. c #A06560",
"n. c #A16660",
"m. c #A76969",
"M. c #A07D73",
"N. c #A07E73",
"B. c #A17F74",
"V. c #A58174",
"C. c #A68276",
"Z. c #BD8A7B",
"A. c #C18D7C",
"S. c #D28979",
"D. c #515984",
"F. c #525A85",
"G. c #516A81",
"H. c #58608A",
"J. c #59618B",
"K. c #5C648E",
"L. c #5D6590",
"P. c #4A7E93",
"I. c #746A81",
"U. c #607287",
"Y. c #3D8498",
"T. c #5C8699",
"R. c #6294A5",
"E. c #A98882",
"W. c #CC9582",
"Q. c #CE9783",
"!. c #C99B87",
"~. c #CA9C87",
"^. c #CA9C88",
"/. c #CB9D88",
"(. c #CD9E88",
"). c #E59681",
"_. c #DEAE9C",
"`. c #FFBC9C",
"'. c #FFBD9D",
"]. c #FFC9A5",
/* pixels */
"                    - - - - - - - - - - - -                     ",
"                    9 q q q q q q q q q q 9                     ",
"                % 6 N H H G G G G G G H H N 6 %                 ",
"                j M ( w.w.q.q.q.q.q.q.w.w.( M j                 ",
"            & l 3.f.y...8.9.9.9.9.9.9.8...y.f.3.l &             ",
"            * k s.L.D.u.e.7.7.7.7.7.7.e.u.D.L.s.k *             ",
"            = h ) F.K.H.i.| 6.7.7.6.| i.H.K.F.) h =             ",
"            ; 0 A d.J.H.p.| 6.7.7.6.| p.H.J.d.A 0 ;             ",
"            ; 0 S t.a.p.r.7.7.7.7.7.7.r.p.a.t.S 0 ;             ",
"            @ 8 S 9.7.| 7.7.7.7.7.7.7.7.| 7.9.S 8 @             ",
"            o 7 S q.8.6.7.7.7.7.7.7.7.7.6.8.q.S 7 o             ",
"            T %.2.8.8.7.7.7.7.7.7.7.7.7.7.8.8.2.%.T             ",
"        + ~ V.E.j.}  .7.7.7.7.7.7.7.7.7.7. .} j.E.V.~ +         ",
"        + @.(._.I.[ { 7.7.7.7.7.7.7.7.7.7.{ [ I._.(.@.+         ",
"        + @.(._.I.[ { 7.7.7.7.7.7.7.7.7.7.{ [ I._.(.@.+         ",
"        + ~ V.E.j.}  .7.7.7.7.7.7.7.7.7.7. .} j.E.V.~ +         ",
"            T %.2.8.8.7.7.7.7.7.7.7.7.7.7.8.8.2.%.T             ",
"            o 7 S w.9.7.7.7.7.7.7.7.7.7.7.9.w.S 7 o             ",
"            @ 8 F w.9.7.7.7.7.7.7.7.7.7.7.9.w.F 8 @             ",
"            @ 4 V ] 6.8.7.7.7.7.7.7.7.7.8.6.] V 4 @             ",
"            + 1 c Z ' 9.8.7.7.7.7.7.7.8.9.' Z c 1 +             ",
"            ! E x b D _ | 8.o.....o.8.| _ D b x E !             ",
"        . L C.B.W 5 v C ` 0.o.X.X.o.0.` C v 5 W B.C.L .         ",
"        K ,.Q.A.Y < z B &.<.4.5.5.4.<.&.B z < Y A.Q.,.K         ",
"    + I N.W.S.n.d 2 a J R / :.>.>.:./ R J a 2 d n.S.W.N.I +     ",
"    + +.^.'.).b.s , e f Q *.h.c.c.h.*.Q f e , s b.).'.^.+.+     ",
"    + O.!.].`.Z.U & : z 1.G.T.R.R.T.G.1.z : & U Z.`.].!.O.+     ",
"    + P M.~./.v.m > w ^ g.U.P.Y.Y.P.U.g.^ w > m v./.~.M.P +     ",
"        P +.#.n 3 r =.z.m.x.$.g g $.x.m.z.=.r 3 n #.+.P         ",
"        + + + O # u ;.l.k.-.t X X t -.k.l.;.u # O + + +         ",
"                    u p i y         y i p u                     ",
"                    $ $ $ $         $ $ $ $                     "
};
