/* XPM */
static char *U_resized[] = {
/* columns rows colors chars-per-pixel */
"32 32 158 2 ",
"   c None",
".  c #071029",
"X  c #0D132A",
"o  c #12162C",
"O  c #191E38",
"+  c #171C36",
"@  c #1E233E",
"#  c #2E293E",
"$  c #292236",
"%  c #352536",
"&  c #392637",
"*  c #362738",
"=  c #3B2B3A",
"-  c #4B303E",
";  c #43323F",
":  c #53313F",
">  c #1F2747",
",  c #1C2F46",
"<  c #1D354B",
"1  c #2A2A41",
"2  c #252C4A",
"3  c #292F4D",
"4  c #3F3846",
"5  c #35344F",
"6  c #2D3456",
"7  c #2F3658",
"8  c #2A3D52",
"9  c #393B50",
"0  c #2E3963",
"q  c #353D62",
"w  c #363F68",
"e  c #453B46",
"r  c #4A3E47",
"t  c #483F48",
"y  c #583540",
"u  c #413F51",
"i  c #6E3D48",
"p  c #733C49",
"a  c #3E4154",
"s  c #3F4859",
"d  c #3C4559",
"f  c #384065",
"g  c #3A426B",
"h  c #3D4772",
"j  c #3F4873",
"k  c #336A7F",
"l  c #4D424B",
"z  c #5E454C",
"x  c #41465C",
"c  c #464A5C",
"v  c #494958",
"b  c #4A4453",
"n  c #504657",
"m  c #5C4A53",
"M  c #544B5E",
"N  c #5C4C5C",
"B  c #64484F",
"V  c #704047",
"C  c #7C444B",
"Z  c #7B494D",
"A  c #734349",
"S  c #40476E",
"D  c #43496E",
"F  c #434464",
"G  c #594C67",
"H  c #5A546C",
"J  c #57526A",
"K  c #414A74",
"L  c #494F76",
"P  c #464F79",
"I  c #47507A",
"U  c #49527C",
"Y  c #4B5076",
"T  c #5D5372",
"R  c #685863",
"E  c #625564",
"W  c #7E5A68",
"Q  c #635F7B",
"!  c #7D6461",
"~  c #68627C",
"^  c #70687F",
"/  c #796375",
"(  c #814F51",
")  c #8C5051",
"_  c #885758",
"`  c #9A5857",
"'  c #955453",
"]  c #8D5B60",
"[  c #846B6F",
"{  c #9E6262",
"}  c #8D716F",
"|  c #A36761",
" . c #A66B67",
".. c #B1756E",
"X. c #A87070",
"o. c #A37E73",
"O. c #AC757E",
"+. c #A77572",
"@. c #A9857E",
"#. c #A1817C",
"$. c #BE8A7B",
"%. c #D48B7B",
"&. c #E2947D",
"*. c #4C5580",
"=. c #4F5882",
"-. c #525A83",
";. c #575F8A",
":. c #585F89",
">. c #57608A",
",. c #5A628C",
"<. c #457084",
"1. c #5F7E8C",
"2. c #6D6883",
"3. c #65688E",
"4. c #716980",
"5. c #616892",
"6. c #937B85",
"7. c #49899C",
"8. c #5B8EA0",
"9. c #6197A5",
"0. c #659FB0",
"q. c #71B2C3",
"w. c #92838F",
"e. c #8C8E9C",
"r. c #AA8984",
"t. c #AE8F8D",
"y. c #B18A81",
"u. c #AF908F",
"i. c #BD9085",
"p. c #B59492",
"a. c #8E91A0",
"s. c #9F95A2",
"d. c #93A6B4",
"f. c #B2B4BF",
"g. c #BBB1B4",
"h. c #C08D80",
"j. c #CA9B86",
"k. c #CA9D88",
"l. c #C7968B",
"z. c #D69F8F",
"x. c #E89882",
"c. c #CFA08C",
"v. c #D7A08F",
"b. c #DBA88F",
"n. c #C5A396",
"m. c #D6A897",
"M. c #D3A798",
"N. c #D6A998",
"B. c #D9AB99",
"V. c #D4A491",
"C. c #E2AD93",
"Z. c #FFBA9A",
"A. c #C6B7B8",
"S. c #E8B4A1",
"D. c #FEC19F",
"F. c #FFC5A2",
"G. c #B4BEC9",
"H. c #D8C6CD",
/* pixels */
"                    o o o o o o o X o o o o                     ",
"                    @ @ @ @ @ @ 1 @ @ > $ @                     ",
"                o @ 6 q q q q q q q 7 q q 6 @ o                 ",
"                @ 3 j *.U U K K K K K P K q 2 @                 ",
"            o @ 6 g ;.5.5.,.I j j K K K K g g 6 > o             ",
"            o @ q *.,.5.5.,.U U U I K K K P K q @ o             ",
"            o @ q K U U U -.,.5.5.,.P K S K K q @ o             ",
"            o @ d K K j j U ,.5.5.,.U U K h j q @ o             ",
"            o > 7 K K K h K Y U U U ,.>.I j j 7 @ o             ",
"            o @ q P K K K j j j K I >.5.2.4.4.J 1 o             ",
"            X @ q K K S j K j j K K I 2.p.B.B.#.4 X             ",
"            o 1 q K K j j h h h j h g T r.C.D.j.l X             ",
"            o @ q K K j h h h h j g 7 9 v } C.j.l X             ",
"            o @ q K j L Q 4.^ ~ D F M l # M c.j.l X             ",
"            o @ q j j Q t.N.B.w.M M @.o.4 l n.j.l X             ",
"            o @ q j h 4.N.F.Z.%.M E V.j.l = $.%.r X             ",
"            o @ q j h 2.N.Z.&.X.G ~ m.j.r = | | ; X             ",
"            o @ q j h ~ u.z.%.X.T 2.N.b.! z ( C = o             ",
"            o > q K j I Q 6.v.l.~ ~ N.D.C.#.z %                 ",
"            o @ q K K g 0 J y.i./ / @.j.j.o.e .                 ",
"            o @ q K P q 2 # B _ { ] m e r e                     ",
"            o @ q j g f d b = y ) ) - 1 9 a                     ",
"            o @ q f 2 x e.e.u $ y V i ] s.e.x X                 ",
"            o > 6 6 + b g.A.R % = : C O.H.G.v X                 ",
"                @ O o b n.S...A * * p O.H.f.v X                 ",
"                o X X l j.Z.x.| = $ N w.G.d.a X                 ",
"                    X l j.F.Z.$.e , <.0.q.8.8 o                 ",
"                    X e o.j.k.#.z b 1.9.7.k < o                 ",
"                        e l l z ( | +.[ s <                     ",
"                        X X . * Z ` ` Z & X                     ",
"                                = = = &                         ",
"                                o X o o                         "
};
