/* XPM */
static char *W_resized[] = {
/* columns rows colors chars-per-pixel */
"32 32 152 2 ",
"   c None",
".  c #0D132A",
"X  c #12162C",
"o  c #171D39",
"O  c #191F3A",
"+  c #1F2033",
"@  c #1E233E",
"#  c #242439",
"$  c #3B2836",
"%  c #30283D",
"&  c #3A2B3A",
"*  c #352637",
"=  c #472D3B",
"-  c #43323F",
";  c #53353F",
":  c #1B2F46",
">  c #1D354B",
",  c #2A2A41",
"<  c #252B4A",
"1  c #292F4D",
"2  c #3C3541",
"3  c #3F3846",
"4  c #373B4F",
"5  c #35344F",
"6  c #2D3456",
"7  c #2F3658",
"8  c #2B3E53",
"9  c #3B3D51",
"0  c #353D62",
"q  c #363F68",
"w  c #443A46",
"e  c #493E47",
"r  c #4A3F48",
"t  c #443742",
"y  c #613542",
"u  c #713F45",
"i  c #3F4858",
"p  c #3D465A",
"a  c #384067",
"s  c #3C456C",
"d  c #3D4772",
"f  c #3F4873",
"g  c #336A7F",
"h  c #4D424B",
"j  c #5E454C",
"k  c #484857",
"l  c #494352",
"z  c #504657",
"x  c #584B57",
"c  c #544B5E",
"v  c #594C5D",
"b  c #7C494D",
"n  c #604950",
"m  c #614D5C",
"M  c #40476E",
"N  c #43496E",
"B  c #434763",
"V  c #594C67",
"C  c #59546C",
"Z  c #414A74",
"A  c #494F76",
"S  c #464F79",
"D  c #47507A",
"F  c #49527C",
"G  c #4B5076",
"H  c #5D5776",
"J  c #625564",
"K  c #635F7B",
"L  c #7D6461",
"P  c #65607C",
"I  c #6A657F",
"U  c #6B6277",
"Y  c #70687F",
"T  c #796375",
"R  c #854B4D",
"E  c #824F51",
"W  c #8C4F50",
"Q  c #845758",
"!  c #835152",
"~  c #955554",
"^  c #9C605F",
"/  c #885B64",
"(  c #85676C",
")  c #9A6062",
"_  c #8D716F",
"`  c #9A796F",
"'  c #8A7075",
"]  c #A26661",
"[  c #A66B67",
"{  c #A87070",
"}  c #A37E73",
"|  c #A37271",
" . c #BB7870",
".. c #C86E64",
"X. c #A9857E",
"o. c #A1817C",
"O. c #BD8A7A",
"+. c #D48A7A",
"@. c #E2947D",
"#. c #4C5580",
"$. c #4F5882",
"%. c #525B84",
"&. c #575F8A",
"*. c #585F89",
"=. c #57608A",
"-. c #5A628C",
";. c #467084",
":. c #5E7D8A",
">. c #6D6883",
",. c #65688E",
"<. c #716980",
"1. c #616892",
"2. c #8F7782",
"3. c #807A8F",
"4. c #49889B",
"5. c #5D90A3",
"6. c #6095A4",
"7. c #67A0B2",
"8. c #74B5C6",
"9. c #898B9A",
"0. c #968590",
"q. c #AA8984",
"w. c #AD8E8D",
"e. c #BA8E83",
"r. c #BD968D",
"t. c #B59492",
"y. c #9298AC",
"u. c #A397A3",
"i. c #97AAB7",
"p. c #AAA5B3",
"a. c #B9B0B2",
"s. c #C08D80",
"d. c #CA9C86",
"f. c #C7968C",
"g. c #CA9D88",
"h. c #D59E8D",
"j. c #E79882",
"k. c #CFA08C",
"l. c #DBA88F",
"z. c #C4A294",
"x. c #D6A897",
"c. c #D3A798",
"v. c #D6A998",
"b. c #D9AB99",
"n. c #D4A491",
"m. c #E2AD93",
"M. c #FFBA9A",
"N. c #CFBAB9",
"B. c #EBB5A1",
"V. c #FEC19F",
"C. c #FFC5A2",
"Z. c #B8C2CD",
/* pixels */
"                                                                ",
"                                                                ",
"                                                                ",
"                                                                ",
"                    X X X X X X X X X X X X                     ",
"                    # @ @ O : # @ : : # @ O                     ",
"                X @ 6 0 0 0 0 0 0 0 7 0 0 7 # X                 ",
"                O 1 M #.#.F Z Z Z Z Z S Z q < O                 ",
"            X O 6 d *.1.1.&.F Z Z Z Z Z Z Z q 6 , X             ",
"            X , 0 F *.1.,.-.$.F F F Z d Z Z Z 0 @ X             ",
"            X O 0 Z F F S $.-.1.1.*.S Z Z Z d q @ X             ",
"            X : 0 Z Z Z Z S *.1.1.*.$.S Z d d 0 @ X             ",
"            X # 0 Z Z Z s Z S F F $.*.*.S d d 0 : X             ",
"            X @ 0 Z Z Z Z Z Z Z Z S &.,.>.<.<.C % X             ",
"            X @ 0 Z Z Z Z Z Z s Z Z F >.t.b.b.} 3 .             ",
"            X @ 0 Z Z Z d d d Z Z d q C q.m.C.d.r .             ",
"            X @ a Z Z d d d d d Z q 7 5 z ' m.d.h X             ",
"            X : 0 Z Z G P Y >.P N B V r , x k.d.h .             ",
"            X # 7 Z d P w.x.b.q.V c X.} 3 h g.g.h .             ",
"            X @ a f d Y x.C.M.e.x J n.d.r t O.O.e X             ",
"            X @ 0 f d >.b.M.@.[ V K c.d.e & ] ] t X             ",
"            X @ 0 f f P w.n.+.{ C Y b.l.L j E b & .             ",
"            X @ 0 Z Z G K 2.h.f.K >.c.M.l.X.j *                 ",
"            X @ a d a d -.<.r.e.( T q.f.g.` 2 .                 ",
"            X # 0 q < B y.p.' ! ) / j h h & O X                 ",
"            X : 0 0 o k a.N.( b W b = % 9 4 # X                 ",
"            X , 0 0 @ h z.B. .R ; = y / u.9.4 .                 ",
"            X O 6 6 o h g.M.j.) & # m 0.Z.i.k .                 ",
"                @ o X h d.C.M.O.w : ;.7.8.5.8 .                 ",
"                X X . r o.d.d.} j l 4.6.4.g > X                 ",
"                        h h h j R ] [ ( i >                     ",
"                        . . . $ ~ ....~ $ .                     "
};
